SplineFontDB: 3.0
FontName: Cabin-Bold
FullName: Cabin Bold
FamilyName: Cabin
Weight: Bold
Copyright: Copyright (c) 2010 by Pablo Impallari. www.impallari.com\nCopyright (c) 2010 by Igino Marini. www.ikern.com All rights reserved.
Version: 001.002
ItalicAngle: 0
UnderlinePosition: -50
UnderlineWidth: 50
Ascent: 750
Descent: 250
sfntRevision: 0x00010000
LayerCount: 2
Layer: 0 1 "Back"  1
Layer: 1 1 "Fore"  0
NeedsXUIDChange: 1
XUID: [1021 496 529952750 10327865]
FSType: 0
OS2Version: 2
OS2_WeightWidthSlopeOnly: 0
OS2_UseTypoMetrics: 1
CreationTime: 1292345386
ModificationTime: 1292360593
PfmFamily: 17
TTFWeight: 700
TTFWidth: 5
LineGap: 27
VLineGap: 0
Panose: 2 0 0 0 0 0 0 0 0 0
OS2TypoAscent: 0
OS2TypoAOffset: 1
OS2TypoDescent: 0
OS2TypoDOffset: 1
OS2TypoLinegap: 53
OS2WinAscent: 0
OS2WinAOffset: 1
OS2WinDescent: 0
OS2WinDOffset: 1
HheadAscent: 0
HheadAOffset: 1
HheadDescent: 0
HheadDOffset: 1
OS2SubXSize: 700
OS2SubYSize: 650
OS2SubXOff: 0
OS2SubYOff: 140
OS2SupXSize: 700
OS2SupYSize: 650
OS2SupXOff: 0
OS2SupYOff: 477
OS2StrikeYSize: 50
OS2StrikeYPos: 250
OS2Vendor: 'PYRS'
OS2CodePages: 00000001.00000000
OS2UnicodeRanges: 8000002f.0000000b.00000000.00000000
Lookup: 258 0 0 "'kern' Horizontal Kerning in Latin lookup 0"  {"'kern' Horizontal Kerning in Latin lookup 0 per glyph data 0"  "'kern' Horizontal Kerning in Latin lookup 0 kerning class 1"  } ['kern' ('latn' <'dflt' > ) ]
MarkAttachClasses: 1
DEI: 91125
KernClass2: 71+ 60 "'kern' Horizontal Kerning in Latin lookup 0 kerning class 1" 
 10 registered
 8 asterisk
 2 at
 9 backslash
 9 braceleft
 11 bracketleft
 5 comma
 10 exclamdown
 4 four
 27 guillemotleft guilsinglleft
 29 guillemotright guilsinglright
 20 emdash endash hyphen
 9 parenleft
 6 period
 22 quotedblleft quoteleft
 24 quotedblright quoteright
 27 quotedblbase quotesinglbase
 20 quotedbl quotesingle
 5 seven
 3 six
 5 slash
 9 trademark
 12 questiondown
 50 A Aacute Acircumflex Adieresis Agrave Atilde Aring
 1 B
 10 C Ccedilla
 5 D Eth

StartChar: .notdef
Encoding: 65536 -1 0
Width: 250
Flags: HMW
HStem: 240 130<55 179 55 179>
VStem: 55 124<240 370>
LayerCount: 2
Fore
SplineSet
179 240 m 1,0,-1
 55 240 l 1,1,-1
 55 370 l 1,2,-1
 179 370 l 1,3,-1
 179 240 l 1,0,-1
EndSplineSet
EndChar

StartChar: A
Encoding: 65 65 1
Width: 625
Flags: HMW
HStem: 0 21G<3 136 3 3 489 622 489 489> 169 124<240 385 240 429 196 385> 680 20G<252 373 373 373>
LayerCount: 2
Fore
SplineSet
489 0 m 1,0,-1
 429 169 l 1,1,-1
 196 169 l 1,2,-1
 136 0 l 1,3,-1
 3 0 l 1,4,-1
 252 700 l 1,5,-1
 373 700 l 1,6,-1
 622 0 l 1,7,-1
 489 0 l 1,0,-1
312 498 m 1,8,-1
 240 293 l 1,9,-1
 385 293 l 1,10,-1
 312 498 l 1,8,-1
EndSplineSet
EndChar

StartChar: AE
Encoding: 198 198 2
Width: 867
Flags: HMW
HStem: 0 124<528 833 528 833> 169 124<262 397 262 397 203 397> 303 124<528 756 528 756> 576 124<528 824 528 528>
VStem: 397 131<124 169 169 169 293 303 427 573 573 573>
LayerCount: 2
Fore
SplineSet
330 700 m 1,0,-1
 824 700 l 1,1,-1
 824 576 l 1,2,-1
 528 576 l 1,3,-1
 528 427 l 1,4,-1
 756 427 l 1,5,-1
 756 303 l 1,6,-1
 528 303 l 1,7,-1
 528 124 l 1,8,-1
 833 124 l 1,9,-1
 833 0 l 1,10,-1
 397 0 l 1,11,-1
 397 169 l 1,12,-1
 203 169 l 1,13,-1
 122 0 l 1,14,-1
 -11 0 l 1,15,-1
 330 700 l 1,0,-1
262 293 m 1,16,-1
 397 293 l 1,17,-1
 397 573 l 1,18,-1
 262 293 l 1,16,-1
EndSplineSet
EndChar

StartChar: Aacute
Encoding: 193 193 3
Width: 625
Flags: HMW
HStem: 0 21G<3 136 3 3 489 622 489 489> 169 124<240 385 240 429 196 385> 680 20G<252 373 373 373> 930 20G<406 406>
VStem: 219 187<846 846 846 859 859 859>
LayerCount: 2
Fore
SplineSet
489 0 m 1,0,-1
 429 169 l 1,1,-1
 196 169 l 1,2,-1
 136 0 l 1,3,-1
 3 0 l 1,4,-1
 252 700 l 1,5,-1
 373 700 l 1,6,-1
 622 0 l 1,7,-1
 489 0 l 1,0,-1
406 846 m 1,8,-1
 219 785 l 1,9,-1
 219 859 l 1,10,-1
 406 950 l 1,11,-1
 406 846 l 1,8,-1
312 498 m 1,12,-1
 240 293 l 1,13,-1
 385 293 l 1,14,-1
 312 498 l 1,12,-1
EndSplineSet
EndChar

StartChar: Acircumflex
Encoding: 194 194 4
Width: 625
Flags: HMW
HStem: 0 21G<3 136 3 3 489 622 489 489> 169 124<240 385 240 429 196 385> 680 20G<252 373 373 373> 930 20G<312 312>
LayerCount: 2
Fore
SplineSet
489 0 m 1,0,-1
 429 169 l 1,1,-1
 196 169 l 1,2,-1
 136 0 l 1,3,-1
 3 0 l 1,4,-1
 252 700 l 1,5,-1
 373 700 l 1,6,-1
 622 0 l 1,7,-1
 489 0 l 1,0,-1
459 785 m 1,8,-1
 312 856 l 1,9,-1
 165 785 l 1,10,-1
 165 859 l 1,11,-1
 312 950 l 1,12,-1
 459 859 l 1,13,-1
 459 785 l 1,8,-1
312 498 m 1,14,-1
 240 293 l 1,15,-1
 385 293 l 1,16,-1
 312 498 l 1,14,-1
EndSplineSet
EndChar

StartChar: Adieresis
Encoding: 196 196 5
Width: 625
Flags: HMW
HStem: 0 21G<3 136 3 3 489 622 489 489> 169 124<240 385 240 429 196 385> 680 20G<252 373 373 373> 776 106<188 285 188 285 188 339 339 436>
VStem: 188 97<776 882> 339 97<776 882>
LayerCount: 2
Fore
SplineSet
489 0 m 1,0,-1
 429 169 l 1,1,-1
 196 169 l 1,2,-1
 136 0 l 1,3,-1
 3 0 l 1,4,-1
 252 700 l 1,5,-1
 373 700 l 1,6,-1
 622 0 l 1,7,-1
 489 0 l 1,0,-1
312 498 m 1,8,-1
 240 293 l 1,9,-1
 385 293 l 1,10,-1
 312 498 l 1,8,-1
285 776 m 1,11,-1
 188 776 l 1,12,-1
 188 882 l 1,13,-1
 285 882 l 1,14,-1
 285 776 l 1,11,-1
436 776 m 1,15,-1
 339 776 l 1,16,-1
 339 882 l 1,17,-1
 436 882 l 1,18,-1
 436 776 l 1,15,-1
EndSplineSet
EndChar

StartChar: Agrave
Encoding: 192 192 6
Width: 625
Flags: HMW
HStem: 0 21G<3 136 3 3 489 622 489 489> 169 124<240 385 240 429 196 385> 680 20G<252 373 373 373> 930 20G<219 219>
VStem: 219 187<846 859 785 950 785 950>
LayerCount: 2
Fore
SplineSet
489 0 m 1,0,-1
 429 169 l 1,1,-1
 196 169 l 1,2,-1
 136 0 l 1,3,-1
 3 0 l 1,4,-1
 252 700 l 1,5,-1
 373 700 l 1,6,-1
 622 0 l 1,7,-1
 489 0 l 1,0,-1
406 785 m 1,8,-1
 219 846 l 1,9,-1
 219 950 l 1,10,-1
 406 859 l 1,11,-1
 406 785 l 1,8,-1
312 498 m 1,12,-1
 240 293 l 1,13,-1
 385 293 l 1,14,-1
 312 498 l 1,12,-1
EndSplineSet
EndChar

StartChar: Atilde
Encoding: 195 195 7
Width: 625
Flags: HMW
HStem: 0 21G<3 136 3 3 489 622 489 489> 169 124<240 385 240 429 196 385> 680 20G<252 373 373 373> 799 89<355 382.5 348 416> 841 47 841 89<240 274> 915 20G
LayerCount: 2
Fore
SplineSet
489 0 m 1,0,-1
 429 169 l 1,1,-1
 196 169 l 1,2,-1
 136 0 l 1,3,-1
 3 0 l 1,4,-1
 252 700 l 1,5,-1
 373 700 l 1,6,-1
 622 0 l 1,7,-1
 489 0 l 1,0,-1
500 915 m 1,8,9
 493 872 493 872 461 835.5 c 128,-1,10
 429 799 429 799 382 799 c 0,11,12
 353 799 353 799 312.5 820 c 128,-1,13
 272 841 272 841 254 841 c 0,14,15
 236 841 236 841 223.5 826.5 c 128,-1,16
 211 812 211 812 207 794 c 1,17,-1
 124 814 l 1,18,19
 129 863 129 863 167.5 896.5 c 128,-1,20
 206 930 206 930 244 930 c 0,21,22
 282 930 282 930 316.5 909 c 128,-1,23
 351 888 351 888 370 888 c 0,24,25
 389 888 389 888 405 903 c 128,-1,26
 421 918 421 918 424 935 c 1,27,-1
 500 915 l 1,8,9
312 498 m 1,28,-1
 240 293 l 1,29,-1
 385 293 l 1,30,-1
 312 498 l 1,28,-1
EndSplineSet
EndChar

StartChar: B
Encoding: 66 66 8
Width: 599
Flags: HMW
HStem: 0 120<205 286 286 332> 307 107<205 253 253 305 205 316 205 253> 593 107<205 251 205 205>
VStem: 77 128<120 307 120 414 414 593> 382 128<488.5 537> 436 74 436 132<175.5 250.5 125 253.5>
LayerCount: 2
Fore
SplineSet
77 0 m 1,0,-1
 77 700 l 1,1,-1
 257 700 l 2,2,3
 325 700 325 700 368 693.5 c 128,-1,4
 411 687 411 687 445.5 668 c 128,-1,5
 480 649 480 649 495 612 c 128,-1,6
 510 575 510 575 510 517 c 0,7,8
 510 431 510 431 459 382 c 1,9,10
 568 334 568 334 568 206 c 0,11,12
 568 148 568 148 547 106 c 128,-1,13
 526 64 526 64 490 42 c 0,14,15
 422 0 422 0 332 0 c 2,16,-1
 77 0 l 1,0,-1
316 307 m 2,17,-1
 205 307 l 1,18,-1
 205 120 l 1,19,-1
 286 120 l 2,20,21
 369 120 369 120 402.5 139.5 c 128,-1,22
 436 159 436 159 436 214.5 c 128,-1,23
 436 270 436 270 407.5 288.5 c 128,-1,24
 379 307 379 307 316 307 c 2,17,-1
251 593 m 2,25,-1
 205 593 l 1,26,-1
 205 414 l 1,27,-1
 253 414 l 2,28,29
 327 414 327 414 354.5 436 c 128,-1,30
 382 458 382 458 382 506.5 c 128,-1,31
 382 555 382 555 354.5 574 c 128,-1,32
 327 593 327 593 251 593 c 2,25,-1
EndSplineSet
EndChar

StartChar: C
Encoding: 67 67 9
Width: 609
Flags: HMW
HStem: -14 123<312 416.5 312 416.5> 591 123<312 416.5>
VStem: 35 140<280 420 280 460>
LayerCount: 2
Fore
SplineSet
175 350 m 128,-1,1
 175 241 175 241 228 175 c 0,2,3
 280 109 280 109 372 109 c 128,-1,4
 464 109 464 109 565 149 c 1,5,-1
 579 27 l 1,6,7
 495 -14 495 -14 380 -14 c 0,8,9
 228 -14 228 -14 131.5 86.5 c 128,-1,10
 35 187 35 187 35 350 c 128,-1,11
 35 513 35 513 131.5 613.5 c 128,-1,12
 228 714 228 714 380 714 c 0,13,14
 495 714 495 714 579 673 c 1,15,-1
 565 551 l 1,16,17
 464 591 464 591 372 591 c 128,-1,18
 280 591 280 591 227.5 525 c 128,-1,0
 175 459 175 459 175 350 c 128,-1,1
EndSplineSet
EndChar

StartChar: copyright
Encoding: 169 169 10
Width: 701
Flags: HMW
HStem: 37 54<267.5 434 267.5 441> 194 69<331.5 374.5 331.5 375.5> 463 70<331.5 374.5> 638 55<267.5 434>
VStem: 40 62<287.5 442.5 287.5 464> 199 77<334.5 392.5 334.5 414.5> 599 62<287.5 442.5>
LayerCount: 2
Fore
SplineSet
297.5 436 m 128,-1,1
 276 409 276 409 276 364 c 128,-1,2
 276 319 276 319 297.5 291 c 128,-1,3
 319 263 319 263 358 263 c 128,-1,4
 397 263 397 263 446 285 c 1,5,-1
 454 216 l 1,6,7
 413 194 413 194 351 194 c 128,-1,8
 289 194 289 194 244 240.5 c 128,-1,9
 199 287 199 287 199 363.5 c 128,-1,10
 199 440 199 440 244 486.5 c 128,-1,11
 289 533 289 533 359 533 c 0,12,13
 408 533 408 533 454 512 c 1,14,-1
 446 442 l 1,15,16
 395 463 395 463 357 463 c 128,-1,0
 319 463 319 463 297.5 436 c 128,-1,1
351 693 m 128,-1,18
 487 693 487 693 574 602.5 c 128,-1,19
 661 512 661 512 661 365 c 128,-1,20
 661 218 661 218 574 127.5 c 128,-1,21
 487 37 487 37 351 37 c 128,-1,22
 215 37 215 37 127.5 127.5 c 128,-1,23
 40 218 40 218 40 365 c 128,-1,24
 40 512 40 512 127.5 602.5 c 128,-1,17
 215 693 215 693 351 693 c 128,-1,18
166 167 m 128,-1,26
 230 91 230 91 350.5 91 c 128,-1,27
 471 91 471 91 535 167 c 128,-1,28
 599 243 599 243 599 364.5 c 128,-1,29
 599 486 599 486 535 562 c 128,-1,30
 471 638 471 638 350.5 638 c 128,-1,31
 230 638 230 638 166 562.5 c 128,-1,32
 102 487 102 487 102 365 c 128,-1,25
 102 243 102 243 166 167 c 128,-1,26
EndSplineSet
EndChar

StartChar: D
Encoding: 68 68 11
Width: 720
Flags: HMW
HStem: 0 123<205 339 205 339> 577 123<205 339 205 205>
VStem: 77 128<123 577 123 700 123 700> 544 140<280 420>
LayerCount: 2
Fore
SplineSet
77 0 m 1,0,-1
 77 700 l 1,1,-1
 339 700 l 2,2,3
 492 700 492 700 588 606 c 128,-1,4
 684 512 684 512 684 350 c 128,-1,5
 684 188 684 188 588 94 c 128,-1,6
 492 0 492 0 339 0 c 2,7,-1
 77 0 l 1,0,-1
339 577 m 2,8,-1
 205 577 l 1,9,-1
 205 123 l 1,10,-1
 339 123 l 2,11,12
 439 123 439 123 491.5 183 c 128,-1,13
 544 243 544 243 544 350 c 128,-1,14
 544 457 544 457 491.5 517 c 128,-1,15
 439 577 439 577 339 577 c 2,8,-1
EndSplineSet
EndChar

StartChar: E
Encoding: 69 69 12
Width: 547
Flags: HMW
HStem: 0 124<208 513 208 513> 303 124<208 436 208 436> 576 124<208 504 208 208>
VStem: 77 131<124 303 427 576>
LayerCount: 2
Fore
SplineSet
77 700 m 1,0,-1
 504 700 l 1,1,-1
 504 576 l 1,2,-1
 208 576 l 1,3,-1
 208 427 l 1,4,-1
 436 427 l 1,5,-1
 436 303 l 1,6,-1
 208 303 l 1,7,-1
 208 124 l 1,8,-1
 513 124 l 1,9,-1
 513 0 l 1,10,-1
 77 0 l 1,11,-1
 77 700 l 1,0,-1
EndSplineSet
EndChar

StartChar: Eacute
Encoding: 201 201 13
Width: 547
Flags: HMW
HStem: 0 124<208 513 208 513> 303 124<208 436 208 436> 576 124<208 504 208 208> 930 20G<367 367>
VStem: 77 131<124 303 427 576> 180 187<846 846 846 859 859 859>
LayerCount: 2
Fore
SplineSet
77 700 m 1,0,-1
 504 700 l 1,1,-1
 504 576 l 1,2,-1
 208 576 l 1,3,-1
 208 427 l 1,4,-1
 436 427 l 1,5,-1
 436 303 l 1,6,-1
 208 303 l 1,7,-1
 208 124 l 1,8,-1
 513 124 l 1,9,-1
 513 0 l 1,10,-1
 77 0 l 1,11,-1
 77 700 l 1,0,-1
367 846 m 1,12,-1
 180 785 l 1,13,-1
 180 859 l 1,14,-1
 367 950 l 1,15,-1
 367 846 l 1,12,-1
EndSplineSet
EndChar

StartChar: Ecircumflex
Encoding: 202 202 14
Width: 547
Flags: HMW
HStem: 0 124<208 513 208 513> 303 124<208 436 208 436> 576 124<208 504 208 208> 930 20G<274 274>
VStem: 77 131<124 303 427 576>
LayerCount: 2
Fore
SplineSet
77 700 m 1,0,-1
 504 700 l 1,1,-1
 504 576 l 1,2,-1
 208 576 l 1,3,-1
 208 427 l 1,4,-1
 436 427 l 1,5,-1
 436 303 l 1,6,-1
 208 303 l 1,7,-1
 208 124 l 1,8,-1
 513 124 l 1,9,-1
 513 0 l 1,10,-1
 77 0 l 1,11,-1
 77 700 l 1,0,-1
421 785 m 1,12,-1
 274 856 l 1,13,-1
 127 785 l 1,14,-1
 127 859 l 1,15,-1
 274 950 l 1,16,-1
 421 859 l 1,17,-1
 421 785 l 1,12,-1
EndSplineSet
EndChar

StartChar: Edieresis
Encoding: 203 203 15
Width: 547
Flags: HMW
HStem: 0 124<208 513 208 513> 303 124<208 436 208 436> 576 124<208 504 208 208> 776 106<150 247 150 247 301 398 150 301>
VStem: 77 131<124 303 427 576> 150 97<776 882> 301 97<776 882>
LayerCount: 2
Fore
SplineSet
77 700 m 1,0,-1
 504 700 l 1,1,-1
 504 576 l 1,2,-1
 208 576 l 1,3,-1
 208 427 l 1,4,-1
 436 427 l 1,5,-1
 436 303 l 1,6,-1
 208 303 l 1,7,-1
 208 124 l 1,8,-1
 513 124 l 1,9,-1
 513 0 l 1,10,-1
 77 0 l 1,11,-1
 77 700 l 1,0,-1
398 776 m 1,12,-1
 301 776 l 1,13,-1
 301 882 l 1,14,-1
 398 882 l 1,15,-1
 398 776 l 1,12,-1
247 776 m 1,16,-1
 150 776 l 1,17,-1
 150 882 l 1,18,-1
 247 882 l 1,19,-1
 247 776 l 1,16,-1
EndSplineSet
EndChar

StartChar: Egrave
Encoding: 200 200 16
Width: 547
Flags: HMW
HStem: 0 124<208 513 208 513> 303 124<208 436 208 436> 576 124<208 504 208 208> 930 20G<180 180>
VStem: 77 131<124 303 427 576> 180 187<846 859 785 950 785 950>
LayerCount: 2
Fore
SplineSet
77 700 m 1,0,-1
 504 700 l 1,1,-1
 504 576 l 1,2,-1
 208 576 l 1,3,-1
 208 427 l 1,4,-1
 436 427 l 1,5,-1
 436 303 l 1,6,-1
 208 303 l 1,7,-1
 208 124 l 1,8,-1
 513 124 l 1,9,-1
 513 0 l 1,10,-1
 77 0 l 1,11,-1
 77 700 l 1,0,-1
367 785 m 1,12,-1
 180 846 l 1,13,-1
 180 950 l 1,14,-1
 367 859 l 1,15,-1
 367 785 l 1,12,-1
EndSplineSet
EndChar

StartChar: Eth
Encoding: 208 208 17
Width: 731
Flags: HMW
HStem: 0 123<216 350 216 350> 299 94<-4 88 -4 88 216 338> 577 123<216 350 216 216>
VStem: 88 128<123 299 123 299 123 299 393 577> 555 140<280 420>
LayerCount: 2
Fore
SplineSet
-4 393 m 1,0,-1
 88 393 l 1,1,-1
 88 700 l 1,2,-1
 350 700 l 2,3,4
 503 700 503 700 599 606 c 128,-1,5
 695 512 695 512 695 350 c 128,-1,6
 695 188 695 188 599 94 c 128,-1,7
 503 0 503 0 350 0 c 2,8,-1
 88 0 l 1,9,-1
 88 299 l 1,10,-1
 -4 299 l 1,11,-1
 -4 393 l 1,0,-1
350 577 m 2,12,-1
 216 577 l 1,13,-1
 216 393 l 1,14,-1
 338 393 l 1,15,-1
 338 299 l 1,16,-1
 216 299 l 1,17,-1
 216 123 l 1,18,-1
 350 123 l 2,19,20
 450 123 450 123 502.5 183 c 128,-1,21
 555 243 555 243 555 350 c 128,-1,22
 555 457 555 457 502.5 517 c 128,-1,23
 450 577 450 577 350 577 c 2,12,-1
EndSplineSet
EndChar

StartChar: Euro
Encoding: 8364 8364 18
Width: 701
Flags: HMW
HStem: 17 110<432 501 432 501> 209 86<62 154 62 176 32 154 314 497 314 314> 364 81<89 151 61 162 295 516> 573 110<422 501>
LayerCount: 2
Fore
SplineSet
89 445 m 1,0,-1
 162 445 l 1,1,2
 189 555 189 555 272 619 c 128,-1,3
 355 683 355 683 465 683 c 0,4,5
 575 683 575 683 650 646 c 1,6,-1
 636 533 l 1,7,8
 542 573 542 573 469 573 c 0,9,10
 334 573 334 573 295 445 c 1,11,-1
 546 445 l 1,12,-1
 516 364 l 1,13,-1
 282 364 l 1,14,-1
 282 350 l 2,15,16
 282 318 282 318 286 295 c 1,17,-1
 527 295 l 1,18,-1
 497 209 l 1,19,-1
 314 209 l 1,20,21
 361 127 361 127 469 127 c 0,22,23
 542 127 542 127 636 167 c 1,24,-1
 650 54 l 1,25,26
 576 17 576 17 472 17 c 0,27,28
 368 17 368 17 290 68 c 128,-1,29
 212 119 212 119 176 209 c 1,30,-1
 32 209 l 1,31,-1
 62 295 l 1,32,-1
 154 295 l 1,33,34
 151 320 151 320 151 350 c 2,35,-1
 151 364 l 1,36,-1
 61 364 l 1,37,-1
 89 445 l 1,0,-1
EndSplineSet
EndChar

StartChar: F
Encoding: 70 70 19
Width: 521
Flags: HMW
HStem: 0 21G<77 205 77 77> 303 124<205 436 205 436> 576 124<205 504 205 205>
VStem: 77 128<0 303 427 576>
LayerCount: 2
Fore
SplineSet
77 700 m 1,0,-1
 504 700 l 1,1,-1
 504 576 l 1,2,-1
 205 576 l 1,3,-1
 205 427 l 1,4,-1
 436 427 l 1,5,-1
 436 303 l 1,6,-1
 205 303 l 1,7,-1
 205 0 l 1,8,-1
 77 0 l 1,9,-1
 77 700 l 1,0,-1
EndSplineSet
EndChar

StartChar: G
Encoding: 71 71 20
Width: 664
Flags: HMW
HStem: -14 123<320.5 407.5 320.5 417> 245 106<412 489 412 617> 591 123<314 418>
VStem: 35 140<281.5 421 281.5 460.5> 412 205<245 351 39 351> 489 128<120 245 245 245>
LayerCount: 2
Fore
SplineSet
412 351 m 1,0,-1
 617 351 l 1,1,-1
 617 39 l 1,2,3
 579 17 579 17 508 1.5 c 128,-1,4
 437 -14 437 -14 377 -14 c 0,5,6
 228 -14 228 -14 131.5 86.5 c 0,7,8
 35 186 35 186 35 350 c 128,-1,9
 35 514 35 514 132 614 c 128,-1,10
 229 714 229 714 384 714 c 0,11,12
 437 714 437 714 497 702.5 c 128,-1,13
 557 691 557 691 594 673 c 1,14,-1
 580 551 l 1,15,16
 482 591 482 591 382 591 c 128,-1,17
 282 591 282 591 228.5 525.5 c 128,-1,18
 175 460 175 460 175 351 c 128,-1,19
 175 242 175 242 231 175.5 c 128,-1,20
 287 109 287 109 393 109 c 0,21,22
 436 109 436 109 489 120 c 1,23,-1
 489 245 l 1,24,-1
 412 245 l 1,25,-1
 412 351 l 1,0,-1
EndSplineSet
EndChar

StartChar: H
Encoding: 72 72 21
Width: 740
Flags: HMW
HStem: 0 21G<77 205 77 77 535 663 535 535> 303 124<205 535 205 535> 680 20G<77 205 205 205 535 663 663 663>
VStem: 77 128<0 303 0 427 427 700> 535 128<0 303 303 303 427 700 0 700>
LayerCount: 2
Fore
SplineSet
663 700 m 1,0,-1
 663 0 l 1,1,-1
 535 0 l 1,2,-1
 535 303 l 1,3,-1
 205 303 l 1,4,-1
 205 0 l 1,5,-1
 77 0 l 1,6,-1
 77 700 l 1,7,-1
 205 700 l 1,8,-1
 205 427 l 1,9,-1
 535 427 l 1,10,-1
 535 700 l 1,11,-1
 663 700 l 1,0,-1
EndSplineSet
EndChar

StartChar: I
Encoding: 73 73 22
Width: 282
Flags: HMW
HStem: 0 21G<77 205 77 77> 680 20G<77 205 205 205>
VStem: 77 128<0 700 0 700>
LayerCount: 2
Fore
SplineSet
205 700 m 1,0,-1
 205 0 l 1,1,-1
 77 0 l 1,2,-1
 77 700 l 1,3,-1
 205 700 l 1,0,-1
EndSplineSet
EndChar

StartChar: Iacute
Encoding: 205 205 23
Width: 282
Flags: HMW
HStem: 0 21G<77 205 77 77> 680 20G<77 205 205 205> 930 20G<281 281>
VStem: 77 128<0 700 0 700> 94 187<846 846 846 859 859 859>
LayerCount: 2
Fore
SplineSet
205 700 m 1,0,-1
 205 0 l 1,1,-1
 77 0 l 1,2,-1
 77 700 l 1,3,-1
 205 700 l 1,0,-1
281 846 m 1,4,-1
 94 785 l 1,5,-1
 94 859 l 1,6,-1
 281 950 l 1,7,-1
 281 846 l 1,4,-1
EndSplineSet
EndChar

StartChar: Icircumflex
Encoding: 206 206 24
Width: 282
Flags: HMW
HStem: 0 21G<77 205 77 77> 680 20G<77 205 205 205> 930 20G<141 141>
VStem: 77 128<0 700 0 700>
LayerCount: 2
Fore
SplineSet
205 700 m 1,0,-1
 205 0 l 1,1,-1
 77 0 l 1,2,-1
 77 700 l 1,3,-1
 205 700 l 1,0,-1
288 785 m 1,4,-1
 141 856 l 1,5,-1
 -6 785 l 1,6,-1
 -6 859 l 1,7,-1
 141 950 l 1,8,-1
 288 859 l 1,9,-1
 288 785 l 1,4,-1
EndSplineSet
EndChar

StartChar: Idieresis
Encoding: 207 207 25
Width: 282
Flags: HMW
HStem: 0 21G<77 205 77 77> 680 20G<77 205 205 205> 776 106<17 114 17 114 17 168 168 265>
VStem: 17 97<776 882> 77 128<0 700 0 700> 168 97<776 882>
LayerCount: 2
Fore
SplineSet
205 700 m 1,0,-1
 205 0 l 1,1,-1
 77 0 l 1,2,-1
 77 700 l 1,3,-1
 205 700 l 1,0,-1
114 776 m 1,4,-1
 17 776 l 1,5,-1
 17 882 l 1,6,-1
 114 882 l 1,7,-1
 114 776 l 1,4,-1
265 776 m 1,8,-1
 168 776 l 1,9,-1
 168 882 l 1,10,-1
 265 882 l 1,11,-1
 265 776 l 1,8,-1
EndSplineSet
EndChar

StartChar: Igrave
Encoding: 204 204 26
Width: 282
Flags: HMW
HStem: 0 21G<77 205 77 77> 680 20G<77 205 205 205> 930 20G<1 1>
VStem: 1 187<846 859 785 950 785 950> 77 128<0 700 0 700>
LayerCount: 2
Fore
SplineSet
205 700 m 1,0,-1
 205 0 l 1,1,-1
 77 0 l 1,2,-1
 77 700 l 1,3,-1
 205 700 l 1,0,-1
188 785 m 1,4,-1
 1 846 l 1,5,-1
 1 950 l 1,6,-1
 188 859 l 1,7,-1
 188 785 l 1,4,-1
EndSplineSet
EndChar

StartChar: J
Encoding: 74 74 27
Width: 282
Flags: HMW
HStem: -172 96<7 24 24 43 7 7> 680 20G<77 205 205 205>
VStem: 77 128<4 700>
LayerCount: 2
Fore
SplineSet
-3 -76 m 1,0,-1
 24 -76 l 2,1,2
 53 -76 53 -76 65 -57 c 128,-1,3
 77 -38 77 -38 77 4 c 2,4,-1
 77 700 l 1,5,-1
 205 700 l 1,6,-1
 205 -24 l 2,7,8
 205 -97 205 -97 162.5 -134.5 c 128,-1,9
 120 -172 120 -172 43 -172 c 2,10,-1
 7 -172 l 1,11,-1
 -3 -76 l 1,0,-1
EndSplineSet
EndChar

StartChar: K
Encoding: 75 75 28
Width: 621
Flags: HMW
HStem: 0 21G<77 205 77 77 474 618 474 474> 680 20G<77 205 205 205 474 618 618 618>
VStem: 77 128<0 700 0 700>
LayerCount: 2
Fore
SplineSet
618 0 m 1,0,-1
 474 0 l 1,1,-1
 230 370 l 1,2,-1
 474 700 l 1,3,-1
 618 700 l 1,4,-1
 374 370 l 1,5,-1
 618 0 l 1,0,-1
205 700 m 1,6,-1
 205 0 l 1,7,-1
 77 0 l 1,8,-1
 77 700 l 1,9,-1
 205 700 l 1,6,-1
EndSplineSet
EndChar

StartChar: L
Encoding: 76 76 29
Width: 500
Flags: HMW
HStem: 0 124<205 493 205 493> 680 20G<77 205 205 205>
VStem: 77 128<124 700 124 700 124 700>
LayerCount: 2
Fore
SplineSet
205 700 m 1,0,-1
 205 124 l 1,1,-1
 493 124 l 1,2,-1
 493 0 l 1,3,-1
 77 0 l 1,4,-1
 77 700 l 1,5,-1
 205 700 l 1,0,-1
EndSplineSet
EndChar

StartChar: M
Encoding: 77 77 30
Width: 832
Flags: HMW
HStem: 0 21G<47 180 47 47 652 785 652 652> 680 20G<143 248 248 248 584 689 689 689>
LayerCount: 2
Fore
SplineSet
689 700 m 1,0,-1
 785 0 l 1,1,-1
 652 0 l 1,2,-1
 593 469 l 1,3,-1
 416 147 l 1,4,-1
 239 468 l 1,5,-1
 180 0 l 1,6,-1
 47 0 l 1,7,-1
 143 700 l 1,8,-1
 248 700 l 1,9,-1
 416 381 l 1,10,-1
 584 700 l 1,11,-1
 689 700 l 1,0,-1
EndSplineSet
EndChar

StartChar: N
Encoding: 78 78 31
Width: 736
Flags: HMW
HStem: 0 21G<77 205 77 77 554 659 554 554> 680 20G<77 205 205 205 531 659 659 659>
VStem: 77 128<0 480 0 700> 531 128<248 700 0 700>
LayerCount: 2
Fore
SplineSet
659 700 m 1,0,-1
 659 0 l 1,1,-1
 554 0 l 1,2,-1
 205 480 l 1,3,-1
 205 0 l 1,4,-1
 77 0 l 1,5,-1
 77 700 l 1,6,-1
 205 700 l 1,7,-1
 531 248 l 1,8,-1
 531 700 l 1,9,-1
 659 700 l 1,0,-1
EndSplineSet
EndChar

StartChar: Ntilde
Encoding: 209 209 32
Width: 736
Flags: HMW
HStem: 0 21G<77 205 77 77 554 659 554 554> 680 20G<77 205 205 205 531 659 659 659> 799 89<401 428.5 394 462> 841 47 841 89<286 320> 915 20G
VStem: 77 128<0 480 0 700> 531 128<248 700 0 700>
LayerCount: 2
Fore
SplineSet
659 700 m 1,0,-1
 659 0 l 1,1,-1
 554 0 l 1,2,-1
 205 480 l 1,3,-1
 205 0 l 1,4,-1
 77 0 l 1,5,-1
 77 700 l 1,6,-1
 205 700 l 1,7,-1
 531 248 l 1,8,-1
 531 700 l 1,9,-1
 659 700 l 1,0,-1
546 915 m 1,10,11
 539 872 539 872 507 835.5 c 128,-1,12
 475 799 475 799 428 799 c 0,13,14
 399 799 399 799 358.5 820 c 128,-1,15
 318 841 318 841 300 841 c 0,16,17
 282 841 282 841 269.5 826.5 c 128,-1,18
 257 812 257 812 253 794 c 1,19,-1
 170 814 l 1,20,21
 175 863 175 863 213.5 896.5 c 128,-1,22
 252 930 252 930 290 930 c 0,23,24
 328 930 328 930 362.5 909 c 128,-1,25
 397 888 397 888 416 888 c 0,26,27
 435 888 435 888 451 903 c 128,-1,28
 467 918 467 918 470 935 c 1,29,-1
 546 915 l 1,10,11
EndSplineSet
EndChar

StartChar: O
Encoding: 79 79 33
Width: 760
Flags: HMW
HStem: -14 123<312 448 312 480> 591 123<312 448>
VStem: 35 140<280 420 280 460> 585 140<280 420>
LayerCount: 2
Fore
SplineSet
380 714 m 128,-1,1
 532 714 532 714 628.5 613.5 c 128,-1,2
 725 513 725 513 725 350 c 128,-1,3
 725 187 725 187 628.5 86.5 c 128,-1,4
 532 -14 532 -14 380 -14 c 128,-1,5
 228 -14 228 -14 131.5 86.5 c 128,-1,6
 35 187 35 187 35 350 c 128,-1,7
 35 513 35 513 131.5 613.5 c 128,-1,0
 228 714 228 714 380 714 c 128,-1,1
380 109 m 128,-1,9
 479 109 479 109 532 175 c 128,-1,10
 585 241 585 241 585 350 c 128,-1,11
 585 459 585 459 532 525 c 128,-1,12
 479 591 479 591 380 591 c 128,-1,13
 281 591 281 591 228 525 c 128,-1,14
 175 459 175 459 175 350 c 128,-1,15
 175 241 175 241 228 175 c 128,-1,8
 281 109 281 109 380 109 c 128,-1,9
EndSplineSet
EndChar

StartChar: OE
Encoding: 338 338 34
Width: 1063
Flags: HMW
HStem: -14 123<312 421> 0 109 0 124<724 1029 724 1029> 303 124<724 952 724 952> 576 124<724 1020 724 724> 591 123<312 421 280 448>
VStem: 35 140<280 420 280 460> 585 139<280 303 124 420>
LayerCount: 2
Fore
SplineSet
380 714 m 0,0,1
 502 714 502 714 593 645 c 1,2,-1
 593 700 l 1,3,-1
 1020 700 l 1,4,-1
 1020 576 l 1,5,-1
 724 576 l 1,6,-1
 724 427 l 1,7,-1
 952 427 l 1,8,-1
 952 303 l 1,9,-1
 724 303 l 1,10,-1
 724 124 l 1,11,-1
 1029 124 l 1,12,-1
 1029 0 l 1,13,-1
 593 0 l 1,14,-1
 593 55 l 1,15,16
 502 -14 502 -14 380 -14 c 0,17,18
 228 -14 228 -14 131.5 86.5 c 128,-1,19
 35 187 35 187 35 350 c 128,-1,20
 35 513 35 513 131.5 613.5 c 128,-1,21
 228 714 228 714 380 714 c 0,0,1
380 109 m 128,-1,23
 479 109 479 109 532 175 c 128,-1,24
 585 241 585 241 585 350 c 128,-1,25
 585 459 585 459 532 525 c 128,-1,26
 479 591 479 591 380 591 c 128,-1,27
 281 591 281 591 228 525 c 128,-1,28
 175 459 175 459 175 350 c 128,-1,29
 175 241 175 241 228 175 c 128,-1,22
 281 109 281 109 380 109 c 128,-1,23
EndSplineSet
EndChar

StartChar: Oacute
Encoding: 211 211 35
Width: 760
Flags: HMW
HStem: -14 123<312 448 312 480> 591 123<312 448> 930 20G<473 473>
VStem: 35 140<280 420 280 460> 286 187<846 846 846 859 859 859> 585 140<280 420>
LayerCount: 2
Fore
SplineSet
380 714 m 128,-1,1
 532 714 532 714 628.5 613.5 c 128,-1,2
 725 513 725 513 725 350 c 128,-1,3
 725 187 725 187 628.5 86.5 c 128,-1,4
 532 -14 532 -14 380 -14 c 128,-1,5
 228 -14 228 -14 131.5 86.5 c 128,-1,6
 35 187 35 187 35 350 c 128,-1,7
 35 513 35 513 131.5 613.5 c 128,-1,0
 228 714 228 714 380 714 c 128,-1,1
380 109 m 128,-1,9
 479 109 479 109 532 175 c 128,-1,10
 585 241 585 241 585 350 c 128,-1,11
 585 459 585 459 532 525 c 128,-1,12
 479 591 479 591 380 591 c 128,-1,13
 281 591 281 591 228 525 c 128,-1,14
 175 459 175 459 175 350 c 128,-1,15
 175 241 175 241 228 175 c 128,-1,8
 281 109 281 109 380 109 c 128,-1,9
473 846 m 1,16,-1
 286 785 l 1,17,-1
 286 859 l 1,18,-1
 473 950 l 1,19,-1
 473 846 l 1,16,-1
EndSplineSet
EndChar

StartChar: Ocircumflex
Encoding: 212 212 36
Width: 760
Flags: HMW
HStem: -14 123<312 448 312 480> 591 123<312 448> 930 20G<380 380>
VStem: 35 140<280 420 280 460> 585 140<280 420>
LayerCount: 2
Fore
SplineSet
380 714 m 128,-1,1
 532 714 532 714 628.5 613.5 c 128,-1,2
 725 513 725 513 725 350 c 128,-1,3
 725 187 725 187 628.5 86.5 c 128,-1,4
 532 -14 532 -14 380 -14 c 128,-1,5
 228 -14 228 -14 131.5 86.5 c 128,-1,6
 35 187 35 187 35 350 c 128,-1,7
 35 513 35 513 131.5 613.5 c 128,-1,0
 228 714 228 714 380 714 c 128,-1,1
380 109 m 128,-1,9
 479 109 479 109 532 175 c 128,-1,10
 585 241 585 241 585 350 c 128,-1,11
 585 459 585 459 532 525 c 128,-1,12
 479 591 479 591 380 591 c 128,-1,13
 281 591 281 591 228 525 c 128,-1,14
 175 459 175 459 175 350 c 128,-1,15
 175 241 175 241 228 175 c 128,-1,8
 281 109 281 109 380 109 c 128,-1,9
527 785 m 1,16,-1
 380 856 l 1,17,-1
 233 785 l 1,18,-1
 233 859 l 1,19,-1
 380 950 l 1,20,-1
 527 859 l 1,21,-1
 527 785 l 1,16,-1
EndSplineSet
EndChar

StartChar: Odieresis
Encoding: 214 214 37
Width: 760
Flags: HMW
HStem: -14 123<312 448 312 480> 591 123<312 448> 776 106<256 353 256 353 256 407 407 504>
VStem: 35 140<280 420 280 460> 256 97<776 882> 407 97<776 882> 585 140<280 420>
LayerCount: 2
Fore
SplineSet
380 714 m 128,-1,1
 532 714 532 714 628.5 613.5 c 128,-1,2
 725 513 725 513 725 350 c 128,-1,3
 725 187 725 187 628.5 86.5 c 128,-1,4
 532 -14 532 -14 380 -14 c 128,-1,5
 228 -14 228 -14 131.5 86.5 c 128,-1,6
 35 187 35 187 35 350 c 128,-1,7
 35 513 35 513 131.5 613.5 c 128,-1,0
 228 714 228 714 380 714 c 128,-1,1
380 109 m 128,-1,9
 479 109 479 109 532 175 c 128,-1,10
 585 241 585 241 585 350 c 128,-1,11
 585 459 585 459 532 525 c 128,-1,12
 479 591 479 591 380 591 c 128,-1,13
 281 591 281 591 228 525 c 128,-1,14
 175 459 175 459 175 350 c 128,-1,15
 175 241 175 241 228 175 c 128,-1,8
 281 109 281 109 380 109 c 128,-1,9
353 776 m 1,16,-1
 256 776 l 1,17,-1
 256 882 l 1,18,-1
 353 882 l 1,19,-1
 353 776 l 1,16,-1
504 776 m 1,20,-1
 407 776 l 1,21,-1
 407 882 l 1,22,-1
 504 882 l 1,23,-1
 504 776 l 1,20,-1
EndSplineSet
EndChar

StartChar: Ograve
Encoding: 210 210 38
Width: 760
Flags: HMW
HStem: -14 123<312 448 312 480> 591 123<312 448> 930 20G<286 286>
VStem: 35 140<280 420 280 460> 286 187<846 859 785 950 785 950> 585 140<280 420>
LayerCount: 2
Fore
SplineSet
380 714 m 128,-1,1
 532 714 532 714 628.5 613.5 c 128,-1,2
 725 513 725 513 725 350 c 128,-1,3
 725 187 725 187 628.5 86.5 c 128,-1,4
 532 -14 532 -14 380 -14 c 128,-1,5
 228 -14 228 -14 131.5 86.5 c 128,-1,6
 35 187 35 187 35 350 c 128,-1,7
 35 513 35 513 131.5 613.5 c 128,-1,0
 228 714 228 714 380 714 c 128,-1,1
380 109 m 128,-1,9
 479 109 479 109 532 175 c 128,-1,10
 585 241 585 241 585 350 c 128,-1,11
 585 459 585 459 532 525 c 128,-1,12
 479 591 479 591 380 591 c 128,-1,13
 281 591 281 591 228 525 c 128,-1,14
 175 459 175 459 175 350 c 128,-1,15
 175 241 175 241 228 175 c 128,-1,8
 281 109 281 109 380 109 c 128,-1,9
473 785 m 1,16,-1
 286 846 l 1,17,-1
 286 950 l 1,18,-1
 473 859 l 1,19,-1
 473 785 l 1,16,-1
EndSplineSet
EndChar

StartChar: Oslash
Encoding: 216 216 39
Width: 760
Flags: HMW
HStem: -31 21G<49 183 49 49> -14 123<363 448 363 480> 591 123<312 396> 696 20G<561 695 695 695>
VStem: 35 140<321.5 420 321.5 460> 585 140<280 379.5>
LayerCount: 2
Fore
SplineSet
380 714 m 0,0,1
 465 714 465 714 536 680 c 1,2,-1
 561 716 l 1,3,-1
 695 716 l 1,4,-1
 626 615 l 1,5,6
 725 514 725 514 725 350.5 c 128,-1,7
 725 187 725 187 628.5 86.5 c 128,-1,8
 532 -14 532 -14 380 -14 c 0,9,10
 293 -14 293 -14 219 22 c 1,11,-1
 183 -31 l 1,12,-1
 49 -31 l 1,13,-1
 130 87 l 1,14,15
 35 188 35 188 35 350.5 c 128,-1,16
 35 513 35 513 131.5 613.5 c 128,-1,17
 228 714 228 714 380 714 c 0,0,1
380 109 m 0,18,19
 479 109 479 109 532 175 c 128,-1,20
 585 241 585 241 585 341 c 128,-1,21
 585 441 585 441 548 502 c 1,22,-1
 291 126 l 1,23,24
 330 109 330 109 380 109 c 0,18,19
228 525 m 128,-1,26
 175 459 175 459 175 360 c 128,-1,27
 175 261 175 261 209 202 c 1,28,-1
 464 575 l 1,29,30
 426 591 426 591 380 591 c 0,31,25
 281 591 281 591 228 525 c 128,-1,26
EndSplineSet
EndChar

StartChar: Otilde
Encoding: 213 213 40
Width: 760
Flags: HMW
HStem: -14 123<312 448 312 480> 591 123<312 448> 799 89<423 450.5 416 484> 841 47 841 89<308 342> 915 20G
VStem: 35 140<280 420 280 460> 585 140<280 420>
LayerCount: 2
Fore
SplineSet
380 714 m 128,-1,1
 532 714 532 714 628.5 613.5 c 128,-1,2
 725 513 725 513 725 350 c 128,-1,3
 725 187 725 187 628.5 86.5 c 128,-1,4
 532 -14 532 -14 380 -14 c 128,-1,5
 228 -14 228 -14 131.5 86.5 c 128,-1,6
 35 187 35 187 35 350 c 128,-1,7
 35 513 35 513 131.5 613.5 c 128,-1,0
 228 714 228 714 380 714 c 128,-1,1
380 109 m 128,-1,9
 479 109 479 109 532 175 c 128,-1,10
 585 241 585 241 585 350 c 128,-1,11
 585 459 585 459 532 525 c 128,-1,12
 479 591 479 591 380 591 c 128,-1,13
 281 591 281 591 228 525 c 128,-1,14
 175 459 175 459 175 350 c 128,-1,15
 175 241 175 241 228 175 c 128,-1,8
 281 109 281 109 380 109 c 128,-1,9
568 915 m 1,16,17
 561 872 561 872 529 835.5 c 128,-1,18
 497 799 497 799 450 799 c 0,19,20
 421 799 421 799 380.5 820 c 128,-1,21
 340 841 340 841 322 841 c 0,22,23
 304 841 304 841 291.5 826.5 c 128,-1,24
 279 812 279 812 275 794 c 1,25,-1
 192 814 l 1,26,27
 197 863 197 863 235.5 896.5 c 128,-1,28
 274 930 274 930 312 930 c 0,29,30
 350 930 350 930 384.5 909 c 128,-1,31
 419 888 419 888 438 888 c 0,32,33
 457 888 457 888 473 903 c 128,-1,34
 489 918 489 918 492 935 c 1,35,-1
 568 915 l 1,16,17
EndSplineSet
EndChar

StartChar: P
Encoding: 80 80 41
Width: 578
Flags: HMW
HStem: 0 21G<77 77 77 205> 230 120<205 248 205 282> 593 107<205 268 268 296 205 205>
VStem: 77 128<0 230 0 350 350 593> 421 135<433 513.5>
LayerCount: 2
Fore
SplineSet
77 0 m 1,0,-1
 77 700 l 1,1,-1
 268 700 l 2,2,3
 329 700 329 700 370 695.5 c 128,-1,4
 411 691 411 691 449 677 c 0,5,6
 487 662 487 662 509 638 c 0,7,8
 556 586 556 586 556 475 c 0,9,10
 556 339 556 339 481.5 284.5 c 128,-1,11
 407 230 407 230 248 230 c 2,12,-1
 205 230 l 1,13,-1
 205 0 l 1,14,-1
 77 0 l 1,0,-1
296 593 m 2,15,-1
 205 593 l 1,16,-1
 205 350 l 1,17,-1
 282 350 l 2,18,19
 357 350 357 350 389 380.5 c 128,-1,20
 421 411 421 411 421 474.5 c 128,-1,21
 421 538 421 538 395.5 565.5 c 128,-1,22
 370 593 370 593 296 593 c 2,15,-1
EndSplineSet
EndChar

StartChar: Q
Encoding: 81 81 42
Width: 760
Flags: HMW
HStem: -14 123<312 399.5 312 418.5> 591 123<312 448>
VStem: 35 140<280 420 280 460> 585 140<325 420>
LayerCount: 2
Fore
SplineSet
380 714 m 128,-1,1
 532 714 532 714 628.5 613.5 c 128,-1,2
 725 513 725 513 725 350 c 0,3,4
 725 224 725 224 663 130 c 1,5,-1
 725 79 l 1,6,-1
 651 -10 l 1,7,-1
 582 47 l 1,8,9
 498 -14 498 -14 380 -14 c 0,10,11
 228 -14 228 -14 131.5 86.5 c 128,-1,12
 35 187 35 187 35 350 c 128,-1,13
 35 513 35 513 131.5 613.5 c 128,-1,0
 228 714 228 714 380 714 c 128,-1,1
470 292 m 1,14,-1
 558 218 l 1,15,16
 585 274 585 274 585 350 c 0,17,18
 585 459 585 459 532 525 c 128,-1,19
 479 591 479 591 380 591 c 128,-1,20
 281 591 281 591 228 525 c 128,-1,21
 175 459 175 459 175 350 c 128,-1,22
 175 241 175 241 228 175 c 128,-1,23
 281 109 281 109 380 109 c 0,24,25
 437 109 437 109 480 132 c 1,26,-1
 396 203 l 1,27,-1
 470 292 l 1,14,-1
EndSplineSet
EndChar

StartChar: R
Encoding: 82 82 43
Width: 626
Flags: HMW
HStem: 0 21G<77 205 77 77 480 613 480 480> 260 120<205 299 299 335 205 299> 593 107<205 304 205 205>
VStem: 77 128<0 260 0 380 380 593> 440 134<457.5 521.5>
LayerCount: 2
Fore
SplineSet
480 0 m 1,0,-1
 335 260 l 1,1,-1
 205 260 l 1,2,-1
 205 0 l 1,3,-1
 77 0 l 1,4,-1
 77 700 l 1,5,-1
 333 700 l 2,6,7
 449 700 449 700 511.5 651 c 128,-1,8
 574 602 574 602 574 485 c 0,9,10
 574 425 574 425 541 375 c 128,-1,11
 508 325 508 325 455 294 c 1,12,-1
 613 0 l 1,13,-1
 480 0 l 1,0,-1
304 593 m 2,14,-1
 205 593 l 1,15,-1
 205 380 l 1,16,-1
 299 380 l 2,17,18
 380 380 380 380 410 408 c 128,-1,19
 440 436 440 436 440 489 c 128,-1,20
 440 542 440 542 411 567.5 c 128,-1,21
 382 593 382 593 304 593 c 2,14,-1
EndSplineSet
EndChar

StartChar: registered
Encoding: 174 174 44
Width: 701
Flags: HMW
HStem: 37 54<267.5 434 267.5 441> 207 181<247 353 247 353 319 503 319 428> 474 60<319 355 319 319> 638 55<267.5 434>
VStem: 40 62<287.5 442.5 287.5 464> 247 72<207 322 207 388 388 474> 407 75<419.5 445> 599 62<287.5 442.5>
LayerCount: 2
Fore
SplineSet
428 207 m 1,0,-1
 364 322 l 1,1,-1
 319 322 l 1,2,-1
 319 207 l 1,3,-1
 247 207 l 1,4,-1
 247 534 l 1,5,-1
 368 534 l 2,6,7
 423 534 423 534 452.5 510.5 c 128,-1,8
 482 487 482 487 482 431.5 c 128,-1,9
 482 376 482 376 431 343 c 1,10,-1
 503 207 l 1,11,-1
 428 207 l 1,0,-1
355 474 m 2,12,-1
 319 474 l 1,13,-1
 319 388 l 1,14,-1
 353 388 l 2,15,16
 407 388 407 388 407 432 c 0,17,18
 407 453 407 453 396 463.5 c 128,-1,19
 385 474 385 474 355 474 c 2,12,-1
351 693 m 128,-1,21
 487 693 487 693 574 602.5 c 128,-1,22
 661 512 661 512 661 365 c 128,-1,23
 661 218 661 218 574 127.5 c 128,-1,24
 487 37 487 37 351 37 c 128,-1,25
 215 37 215 37 127.5 127.5 c 128,-1,26
 40 218 40 218 40 365 c 128,-1,27
 40 512 40 512 127.5 602.5 c 128,-1,20
 215 693 215 693 351 693 c 128,-1,21
166 167 m 128,-1,29
 230 91 230 91 350.5 91 c 128,-1,30
 471 91 471 91 535 167 c 128,-1,31
 599 243 599 243 599 364.5 c 128,-1,32
 599 486 599 486 535 562 c 128,-1,33
 471 638 471 638 350.5 638 c 128,-1,34
 230 638 230 638 166 562.5 c 128,-1,35
 102 487 102 487 102 365 c 128,-1,28
 102 243 102 243 166 167 c 128,-1,29
EndSplineSet
EndChar

StartChar: S
Encoding: 83 83 45
Width: 580
Flags: HMW
HStem: -14 122<230.5 322.5 230.5 398> 592 120<271.5 334.5>
VStem: 38 130<449.5 548.5 449.5 550> 408 143<158 261.5>
LayerCount: 2
Fore
SplineSet
408 188 m 0,0,1
 408 244 408 244 334 276 c 0,2,3
 302 290 302 290 262.5 303.5 c 128,-1,4
 223 317 223 317 183.5 333 c 128,-1,5
 144 349 144 349 111.5 369.5 c 128,-1,6
 79 390 79 390 58.5 424 c 128,-1,7
 38 458 38 458 38 499.5 c 128,-1,8
 38 541 38 541 51 576 c 128,-1,9
 64 611 64 611 92.5 642.5 c 128,-1,10
 121 674 121 674 173 693 c 128,-1,11
 225 712 225 712 291 712 c 128,-1,12
 357 712 357 712 420.5 696 c 128,-1,13
 484 680 484 680 514 660 c 1,14,-1
 501 529 l 1,15,16
 388 592 388 592 303 592 c 0,17,18
 168 592 168 592 168 519 c 0,19,20
 168 481 168 481 207.5 457.5 c 128,-1,21
 247 434 247 434 303.5 418 c 128,-1,22
 360 402 360 402 416 380.5 c 128,-1,23
 472 359 472 359 511.5 311 c 128,-1,24
 551 263 551 263 551 190 c 0,25,26
 551 130 551 130 528.5 92.5 c 128,-1,27
 506 55 506 55 477.5 34.5 c 128,-1,28
 449 14 449 14 398.5 0 c 128,-1,29
 348 -14 348 -14 276.5 -14 c 128,-1,30
 205 -14 205 -14 143 1 c 128,-1,31
 81 16 81 16 48 37 c 1,32,-1
 63 183 l 1,33,34
 95 152 95 152 152.5 130 c 128,-1,35
 210 108 210 108 284 108 c 0,36,37
 408 108 408 108 408 188 c 0,0,1
EndSplineSet
EndChar

StartChar: Scaron
Encoding: 352 352 46
Width: 580
Flags: HMW
HStem: -14 122<230.5 322.5 230.5 398> 592 120<271.5 334.5> 930 20G<143 143 437 437>
VStem: 38 130<449.5 548.5 449.5 550> 408 143<158 261.5>
LayerCount: 2
Fore
SplineSet
408 188 m 0,0,1
 408 244 408 244 334 276 c 0,2,3
 302 290 302 290 262.5 303.5 c 128,-1,4
 223 317 223 317 183.5 333 c 128,-1,5
 144 349 144 349 111.5 369.5 c 128,-1,6
 79 390 79 390 58.5 424 c 128,-1,7
 38 458 38 458 38 499.5 c 128,-1,8
 38 541 38 541 51 576 c 128,-1,9
 64 611 64 611 92.5 642.5 c 128,-1,10
 121 674 121 674 173 693 c 128,-1,11
 225 712 225 712 291 712 c 128,-1,12
 357 712 357 712 420.5 696 c 128,-1,13
 484 680 484 680 514 660 c 1,14,-1
 501 529 l 1,15,16
 388 592 388 592 303 592 c 0,17,18
 168 592 168 592 168 519 c 0,19,20
 168 481 168 481 207.5 457.5 c 128,-1,21
 247 434 247 434 303.5 418 c 128,-1,22
 360 402 360 402 416 380.5 c 128,-1,23
 472 359 472 359 511.5 311 c 128,-1,24
 551 263 551 263 551 190 c 0,25,26
 551 130 551 130 528.5 92.5 c 128,-1,27
 506 55 506 55 477.5 34.5 c 128,-1,28
 449 14 449 14 398.5 0 c 128,-1,29
 348 -14 348 -14 276.5 -14 c 128,-1,30
 205 -14 205 -14 143 1 c 128,-1,31
 81 16 81 16 48 37 c 1,32,-1
 63 183 l 1,33,34
 95 152 95 152 152.5 130 c 128,-1,35
 210 108 210 108 284 108 c 0,36,37
 408 108 408 108 408 188 c 0,0,1
290 879 m 1,38,-1
 437 950 l 1,39,-1
 437 876 l 1,40,-1
 290 785 l 1,41,-1
 143 876 l 1,42,-1
 143 950 l 1,43,-1
 290 879 l 1,38,-1
EndSplineSet
EndChar

StartChar: T
Encoding: 84 84 47
Width: 554
Flags: HMW
HStem: 0 21G<213 341 213 213> 576 124<15 213 15 539 341 539 341 341>
VStem: 213 128<0 576 0 576>
LayerCount: 2
Fore
SplineSet
15 700 m 1,0,-1
 539 700 l 1,1,-1
 539 576 l 1,2,-1
 341 576 l 1,3,-1
 341 0 l 1,4,-1
 213 0 l 1,5,-1
 213 576 l 1,6,-1
 15 576 l 1,7,-1
 15 700 l 1,0,-1
EndSplineSet
EndChar

StartChar: Thorn
Encoding: 222 222 48
Width: 564
Flags: HMW
HStem: 0 21G<77 77 77 205> 193 96<205 251 205 284> 471 98<205 251 251 284 205 251> 680 20G<77 205 205 205>
VStem: 77 128<0 193 0 289 289 471 569 700> 417 130<353.5 414>
LayerCount: 2
Fore
SplineSet
77 0 m 1,0,-1
 77 700 l 1,1,-1
 205 700 l 1,2,-1
 205 569 l 1,3,-1
 251 569 l 2,4,5
 373 569 373 569 424 554 c 0,6,7
 476 540 476 540 498 520 c 0,8,9
 548 477 548 477 547 389 c 0,10,11
 547 280 547 280 475.5 236.5 c 128,-1,12
 404 193 404 193 251 193 c 2,13,-1
 205 193 l 1,14,-1
 205 0 l 1,15,-1
 77 0 l 1,0,-1
284 471 m 2,16,-1
 205 471 l 1,17,-1
 205 289 l 1,18,-1
 284 289 l 2,19,20
 357 289 357 289 387 312.5 c 128,-1,21
 417 336 417 336 417 383.5 c 128,-1,22
 417 431 417 431 388 451 c 128,-1,23
 359 471 359 471 284 471 c 2,16,-1
EndSplineSet
EndChar

StartChar: U
Encoding: 85 85 49
Width: 718
Flags: HMW
HStem: -14 123<291.5 426.5 291.5 457.5> 680 20G<69 197 197 197 521 649 649 649>
VStem: 69 128<300 343 343 700> 521 128<343 700>
LayerCount: 2
Fore
SplineSet
521 700 m 1,0,-1
 649 700 l 1,1,-1
 649 300 l 2,2,3
 649 153 649 153 576 69.5 c 128,-1,4
 503 -14 503 -14 359 -14 c 128,-1,5
 215 -14 215 -14 142 69.5 c 128,-1,6
 69 153 69 153 69 300 c 2,7,-1
 69 700 l 1,8,-1
 197 700 l 1,9,-1
 197 343 l 2,10,11
 197 232 197 232 231.5 170.5 c 128,-1,12
 266 109 266 109 359 109 c 128,-1,13
 452 109 452 109 486.5 170.5 c 128,-1,14
 521 232 521 232 521 343 c 2,15,-1
 521 700 l 1,0,-1
EndSplineSet
EndChar

StartChar: Uacute
Encoding: 218 218 50
Width: 718
Flags: HMW
HStem: -14 123<291.5 426.5 291.5 457.5> 680 20G<69 197 197 197 521 649 649 649> 930 20G<452 452>
VStem: 69 128<300 343 343 700> 265 187<846 846 846 859 859 859> 521 128<343 700>
LayerCount: 2
Fore
SplineSet
521 700 m 1,0,-1
 649 700 l 1,1,-1
 649 300 l 2,2,3
 649 153 649 153 576 69.5 c 128,-1,4
 503 -14 503 -14 359 -14 c 128,-1,5
 215 -14 215 -14 142 69.5 c 128,-1,6
 69 153 69 153 69 300 c 2,7,-1
 69 700 l 1,8,-1
 197 700 l 1,9,-1
 197 343 l 2,10,11
 197 232 197 232 231.5 170.5 c 128,-1,12
 266 109 266 109 359 109 c 128,-1,13
 452 109 452 109 486.5 170.5 c 128,-1,14
 521 232 521 232 521 343 c 2,15,-1
 521 700 l 1,0,-1
452 846 m 1,16,-1
 265 785 l 1,17,-1
 265 859 l 1,18,-1
 452 950 l 1,19,-1
 452 846 l 1,16,-1
EndSplineSet
EndChar

StartChar: Ucircumflex
Encoding: 219 219 51
Width: 718
Flags: HMW
HStem: -14 123<291.5 426.5 291.5 457.5> 680 20G<69 197 197 197 521 649 649 649> 930 20G<359 359>
VStem: 69 128<300 343 343 700> 521 128<343 700>
LayerCount: 2
Fore
SplineSet
521 700 m 1,0,-1
 649 700 l 1,1,-1
 649 300 l 2,2,3
 649 153 649 153 576 69.5 c 128,-1,4
 503 -14 503 -14 359 -14 c 128,-1,5
 215 -14 215 -14 142 69.5 c 128,-1,6
 69 153 69 153 69 300 c 2,7,-1
 69 700 l 1,8,-1
 197 700 l 1,9,-1
 197 343 l 2,10,11
 197 232 197 232 231.5 170.5 c 128,-1,12
 266 109 266 109 359 109 c 128,-1,13
 452 109 452 109 486.5 170.5 c 128,-1,14
 521 232 521 232 521 343 c 2,15,-1
 521 700 l 1,0,-1
506 785 m 1,16,-1
 359 856 l 1,17,-1
 212 785 l 1,18,-1
 212 859 l 1,19,-1
 359 950 l 1,20,-1
 506 859 l 1,21,-1
 506 785 l 1,16,-1
EndSplineSet
EndChar

StartChar: Udieresis
Encoding: 220 220 52
Width: 718
Flags: HMW
HStem: -14 123<291.5 426.5 291.5 457.5> 680 20G<69 197 197 197 521 649 649 649> 776 106<235 332 235 332 235 386 386 483>
VStem: 69 128<300 343 343 700> 235 97<776 882> 386 97<776 882> 521 128<343 700>
LayerCount: 2
Fore
SplineSet
521 700 m 1,0,-1
 649 700 l 1,1,-1
 649 300 l 2,2,3
 649 153 649 153 576 69.5 c 128,-1,4
 503 -14 503 -14 359 -14 c 128,-1,5
 215 -14 215 -14 142 69.5 c 128,-1,6
 69 153 69 153 69 300 c 2,7,-1
 69 700 l 1,8,-1
 197 700 l 1,9,-1
 197 343 l 2,10,11
 197 232 197 232 231.5 170.5 c 128,-1,12
 266 109 266 109 359 109 c 128,-1,13
 452 109 452 109 486.5 170.5 c 128,-1,14
 521 232 521 232 521 343 c 2,15,-1
 521 700 l 1,0,-1
332 776 m 1,16,-1
 235 776 l 1,17,-1
 235 882 l 1,18,-1
 332 882 l 1,19,-1
 332 776 l 1,16,-1
483 776 m 1,20,-1
 386 776 l 1,21,-1
 386 882 l 1,22,-1
 483 882 l 1,23,-1
 483 776 l 1,20,-1
EndSplineSet
EndChar

StartChar: Ugrave
Encoding: 217 217 53
Width: 718
Flags: HMW
HStem: -14 123<291.5 426.5 291.5 457.5> 680 20G<69 197 197 197 521 649 649 649> 930 20G<265 265>
VStem: 69 128<300 343 343 700> 265 187<846 859 785 950 785 950> 521 128<343 700>
LayerCount: 2
Fore
SplineSet
521 700 m 1,0,-1
 649 700 l 1,1,-1
 649 300 l 2,2,3
 649 153 649 153 576 69.5 c 128,-1,4
 503 -14 503 -14 359 -14 c 128,-1,5
 215 -14 215 -14 142 69.5 c 128,-1,6
 69 153 69 153 69 300 c 2,7,-1
 69 700 l 1,8,-1
 197 700 l 1,9,-1
 197 343 l 2,10,11
 197 232 197 232 231.5 170.5 c 128,-1,12
 266 109 266 109 359 109 c 128,-1,13
 452 109 452 109 486.5 170.5 c 128,-1,14
 521 232 521 232 521 343 c 2,15,-1
 521 700 l 1,0,-1
452 785 m 1,16,-1
 265 846 l 1,17,-1
 265 950 l 1,18,-1
 452 859 l 1,19,-1
 452 785 l 1,16,-1
EndSplineSet
EndChar

StartChar: V
Encoding: 86 86 54
Width: 655
Flags: HMW
HStem: 0 21G<251 407 251 251> 680 20G<1 134 134 134 519 652 652 652>
LayerCount: 2
Fore
SplineSet
134 700 m 1,0,-1
 328 169 l 1,1,-1
 519 700 l 1,2,-1
 652 700 l 1,3,-1
 407 0 l 1,4,-1
 251 0 l 1,5,-1
 1 700 l 1,6,-1
 134 700 l 1,0,-1
EndSplineSet
EndChar

StartChar: W
Encoding: 87 87 55
Width: 956
Flags: HMW
HStem: 0 21G<206 327 206 206 633 746 633 633> 680 20G<11 144 144 144 435 525 525 525 816 949 949 949>
LayerCount: 2
Fore
SplineSet
949 700 m 1,0,-1
 746 0 l 1,1,-1
 633 0 l 1,2,-1
 480 440 l 1,3,-1
 327 0 l 1,4,-1
 206 0 l 1,5,-1
 11 700 l 1,6,-1
 144 700 l 1,7,-1
 282 223 l 1,8,-1
 435 700 l 1,9,-1
 525 700 l 1,10,-1
 684 236 l 1,11,-1
 816 700 l 1,12,-1
 949 700 l 1,0,-1
EndSplineSet
EndChar

StartChar: X
Encoding: 88 88 56
Width: 643
Flags: HMW
HStem: 0 21G<-3 143 -3 -3 499 647 499 499> 680 20G<8 156 156 156 486 632 632 632>
LayerCount: 2
Fore
SplineSet
8 700 m 1,0,-1
 156 700 l 1,1,-1
 328 454 l 1,2,-1
 486 700 l 1,3,-1
 632 700 l 1,4,-1
 392 363 l 1,5,-1
 647 0 l 1,6,-1
 499 0 l 1,7,-1
 318 257 l 1,8,-1
 143 0 l 1,9,-1
 -3 0 l 1,10,-1
 254 349 l 1,11,-1
 8 700 l 1,0,-1
EndSplineSet
EndChar

StartChar: Y
Encoding: 89 89 57
Width: 636
Flags: HMW
HStem: 0 21G<254 382 254 254> 680 20G<-8 125 125 125 511 644 644 644>
VStem: 254 128<0 310 0 310>
LayerCount: 2
Fore
SplineSet
125 700 m 1,0,-1
 318 424 l 1,1,-1
 511 700 l 1,2,-1
 644 700 l 1,3,-1
 382 310 l 1,4,-1
 382 0 l 1,5,-1
 254 0 l 1,6,-1
 254 310 l 1,7,-1
 -8 700 l 1,8,-1
 125 700 l 1,0,-1
EndSplineSet
EndChar

StartChar: Yacute
Encoding: 221 221 58
Width: 636
Flags: HMW
HStem: 0 21G<254 382 254 254> 680 20G<-8 125 125 125 511 644 644 644> 930 20G<411 411>
VStem: 224 187<846 846 846 859 859 859> 254 128<0 310 0 310>
LayerCount: 2
Fore
SplineSet
125 700 m 1,0,-1
 318 424 l 1,1,-1
 511 700 l 1,2,-1
 644 700 l 1,3,-1
 382 310 l 1,4,-1
 382 0 l 1,5,-1
 254 0 l 1,6,-1
 254 310 l 1,7,-1
 -8 700 l 1,8,-1
 125 700 l 1,0,-1
411 846 m 1,9,-1
 224 785 l 1,10,-1
 224 859 l 1,11,-1
 411 950 l 1,12,-1
 411 846 l 1,9,-1
EndSplineSet
EndChar

StartChar: Ydieresis
Encoding: 376 376 59
Width: 636
Flags: HMW
HStem: 0 21G<254 382 254 254> 680 20G<-8 125 125 125 511 644 644 644> 776 106<194 291 194 291 345 442 194 345>
VStem: 194 97<776 882> 254 128<0 310 0 310> 345 97<776 882>
LayerCount: 2
Fore
SplineSet
125 700 m 1,0,-1
 318 424 l 1,1,-1
 511 700 l 1,2,-1
 644 700 l 1,3,-1
 382 310 l 1,4,-1
 382 0 l 1,5,-1
 254 0 l 1,6,-1
 254 310 l 1,7,-1
 -8 700 l 1,8,-1
 125 700 l 1,0,-1
442 776 m 1,9,-1
 345 776 l 1,10,-1
 345 882 l 1,11,-1
 442 882 l 1,12,-1
 442 776 l 1,9,-1
291 776 m 1,13,-1
 194 776 l 1,14,-1
 194 882 l 1,15,-1
 291 882 l 1,16,-1
 291 776 l 1,13,-1
EndSplineSet
EndChar

StartChar: Z
Encoding: 90 90 60
Width: 560
Flags: HMW
HStem: 0 124<218 509 218 509> 576 124<53 343 53 554>
LayerCount: 2
Fore
SplineSet
554 700 m 1,0,-1
 218 124 l 1,1,-1
 509 124 l 1,2,-1
 509 0 l 1,3,-1
 8 0 l 1,4,-1
 343 576 l 1,5,-1
 53 576 l 1,6,-1
 53 700 l 1,7,-1
 554 700 l 1,0,-1
EndSplineSet
EndChar

StartChar: Zcaron
Encoding: 381 381 61
Width: 560
Flags: HMW
HStem: 0 124<218 509 218 509> 576 124<53 343 53 554> 930 20G<133 133 427 427>
LayerCount: 2
Fore
SplineSet
554 700 m 1,0,-1
 218 124 l 1,1,-1
 509 124 l 1,2,-1
 509 0 l 1,3,-1
 8 0 l 1,4,-1
 343 576 l 1,5,-1
 53 576 l 1,6,-1
 53 700 l 1,7,-1
 554 700 l 1,0,-1
280 879 m 1,8,-1
 427 950 l 1,9,-1
 427 876 l 1,10,-1
 280 785 l 1,11,-1
 133 876 l 1,12,-1
 133 950 l 1,13,-1
 280 879 l 1,8,-1
EndSplineSet
EndChar

StartChar: a
Encoding: 97 97 62
Width: 498
Flags: HMW
HStem: -15 95<193.5 195.5> -15 107 -10 21G<402.5 430 430 475> 230 84<302 302> 401 107<214 244>
VStem: 20 130<119.5 169.5 119.5 205.5> 302 124<134.5 172 172 230 230 230>
LayerCount: 2
Fore
SplineSet
74 363 m 1,0,-1
 63 464 l 1,1,2
 154 508 154 508 244 508 c 128,-1,3
 334 508 334 508 380 464.5 c 128,-1,4
 426 421 426 421 426 317 c 2,5,-1
 426 172 l 2,6,7
 426 118 426 118 434 105 c 128,-1,8
 442 92 442 92 470 92 c 2,9,-1
 486 92 l 1,10,-1
 475 -10 l 1,11,-1
 430 -10 l 2,12,13
 353 -10 353 -10 320 45 c 1,14,15
 296 17 296 17 254 1 c 128,-1,16
 212 -15 212 -15 157.5 -15 c 128,-1,17
 103 -15 103 -15 61.5 25.5 c 128,-1,18
 20 66 20 66 20 135 c 0,19,20
 20 185 20 185 50 221.5 c 128,-1,21
 80 258 80 258 127 276 c 0,22,23
 217 311 217 311 302 314 c 1,24,25
 300 361 300 361 280 381 c 128,-1,26
 260 401 260 401 205.5 401 c 128,-1,27
 151 401 151 401 74 363 c 1,0,-1
302 116 m 1,28,-1
 302 230 l 1,29,30
 242 227 242 227 196 204 c 128,-1,31
 150 181 150 181 150 140 c 0,32,33
 150 80 150 80 217 80 c 0,34,35
 265 80 265 80 302 116 c 1,28,-1
EndSplineSet
EndChar

StartChar: aacute
Encoding: 225 225 63
Width: 498
Flags: HMW
HStem: -15 95<193.5 195.5> -15 107 -10 21G<402.5 430 430 475> 230 84<302 302> 401 107<214 244> 730 20G<342 342>
VStem: 20 130<119.5 169.5 119.5 205.5> 155 187<646 646 646 659 659 659> 302 124<134.5 172 172 230 230 230>
LayerCount: 2
Fore
SplineSet
74 363 m 1,0,-1
 63 464 l 1,1,2
 154 508 154 508 244 508 c 128,-1,3
 334 508 334 508 380 464.5 c 128,-1,4
 426 421 426 421 426 317 c 2,5,-1
 426 172 l 2,6,7
 426 118 426 118 434 105 c 128,-1,8
 442 92 442 92 470 92 c 2,9,-1
 486 92 l 1,10,-1
 475 -10 l 1,11,-1
 430 -10 l 2,12,13
 353 -10 353 -10 320 45 c 1,14,15
 296 17 296 17 254 1 c 128,-1,16
 212 -15 212 -15 157.5 -15 c 128,-1,17
 103 -15 103 -15 61.5 25.5 c 128,-1,18
 20 66 20 66 20 135 c 0,19,20
 20 185 20 185 50 221.5 c 128,-1,21
 80 258 80 258 127 276 c 0,22,23
 217 311 217 311 302 314 c 1,24,25
 300 361 300 361 280 381 c 128,-1,26
 260 401 260 401 205.5 401 c 128,-1,27
 151 401 151 401 74 363 c 1,0,-1
302 116 m 1,28,-1
 302 230 l 1,29,30
 242 227 242 227 196 204 c 128,-1,31
 150 181 150 181 150 140 c 0,32,33
 150 80 150 80 217 80 c 0,34,35
 265 80 265 80 302 116 c 1,28,-1
342 646 m 1,36,-1
 155 585 l 1,37,-1
 155 659 l 1,38,-1
 342 750 l 1,39,-1
 342 646 l 1,36,-1
EndSplineSet
EndChar

StartChar: acircumflex
Encoding: 226 226 64
Width: 498
Flags: HMW
HStem: -15 95<193.5 195.5> -15 107 -10 21G<402.5 430 430 475> 230 84<302 302> 401 107<214 244> 730 20G<249 249>
VStem: 20 130<119.5 169.5 119.5 205.5> 302 124<134.5 172 172 230 230 230>
LayerCount: 2
Fore
SplineSet
74 363 m 1,0,-1
 63 464 l 1,1,2
 154 508 154 508 244 508 c 128,-1,3
 334 508 334 508 380 464.5 c 128,-1,4
 426 421 426 421 426 317 c 2,5,-1
 426 172 l 2,6,7
 426 118 426 118 434 105 c 128,-1,8
 442 92 442 92 470 92 c 2,9,-1
 486 92 l 1,10,-1
 475 -10 l 1,11,-1
 430 -10 l 2,12,13
 353 -10 353 -10 320 45 c 1,14,15
 296 17 296 17 254 1 c 128,-1,16
 212 -15 212 -15 157.5 -15 c 128,-1,17
 103 -15 103 -15 61.5 25.5 c 128,-1,18
 20 66 20 66 20 135 c 0,19,20
 20 185 20 185 50 221.5 c 128,-1,21
 80 258 80 258 127 276 c 0,22,23
 217 311 217 311 302 314 c 1,24,25
 300 361 300 361 280 381 c 128,-1,26
 260 401 260 401 205.5 401 c 128,-1,27
 151 401 151 401 74 363 c 1,0,-1
396 585 m 1,28,-1
 249 656 l 1,29,-1
 102 585 l 1,30,-1
 102 659 l 1,31,-1
 249 750 l 1,32,-1
 396 659 l 1,33,-1
 396 585 l 1,28,-1
302 116 m 1,34,-1
 302 230 l 1,35,36
 242 227 242 227 196 204 c 128,-1,37
 150 181 150 181 150 140 c 0,38,39
 150 80 150 80 217 80 c 0,40,41
 265 80 265 80 302 116 c 1,34,-1
EndSplineSet
EndChar

StartChar: acute
Encoding: 180 180 65
Width: 303
Flags: HMW
HStem: 585 21G<58 58> 730 20G<245 245>
VStem: 58 187<646 646 646 659 659 659>
LayerCount: 2
Fore
SplineSet
245 646 m 1,0,-1
 58 585 l 1,1,-1
 58 659 l 1,2,-1
 245 750 l 1,3,-1
 245 646 l 1,0,-1
EndSplineSet
EndChar

StartChar: adieresis
Encoding: 228 228 66
Width: 498
Flags: HMW
HStem: -15 95<193.5 195.5> -15 107 -10 21G<402.5 430 430 475> 230 84<302 302> 401 107<214 244> 576 106<125 222 125 222 125 276 276 373>
VStem: 20 130<119.5 169.5 119.5 205.5> 125 97<576 682> 276 97<576 682> 302 124<134.5 172 172 230 230 230>
LayerCount: 2
Fore
SplineSet
74 363 m 1,0,-1
 63 464 l 1,1,2
 154 508 154 508 244 508 c 128,-1,3
 334 508 334 508 380 464.5 c 128,-1,4
 426 421 426 421 426 317 c 2,5,-1
 426 172 l 2,6,7
 426 118 426 118 434 105 c 128,-1,8
 442 92 442 92 470 92 c 2,9,-1
 486 92 l 1,10,-1
 475 -10 l 1,11,-1
 430 -10 l 2,12,13
 353 -10 353 -10 320 45 c 1,14,15
 296 17 296 17 254 1 c 128,-1,16
 212 -15 212 -15 157.5 -15 c 128,-1,17
 103 -15 103 -15 61.5 25.5 c 128,-1,18
 20 66 20 66 20 135 c 0,19,20
 20 185 20 185 50 221.5 c 128,-1,21
 80 258 80 258 127 276 c 0,22,23
 217 311 217 311 302 314 c 1,24,25
 300 361 300 361 280 381 c 128,-1,26
 260 401 260 401 205.5 401 c 128,-1,27
 151 401 151 401 74 363 c 1,0,-1
302 116 m 1,28,-1
 302 230 l 1,29,30
 242 227 242 227 196 204 c 128,-1,31
 150 181 150 181 150 140 c 0,32,33
 150 80 150 80 217 80 c 0,34,35
 265 80 265 80 302 116 c 1,28,-1
222 576 m 1,36,-1
 125 576 l 1,37,-1
 125 682 l 1,38,-1
 222 682 l 1,39,-1
 222 576 l 1,36,-1
373 576 m 1,40,-1
 276 576 l 1,41,-1
 276 682 l 1,42,-1
 373 682 l 1,43,-1
 373 576 l 1,40,-1
EndSplineSet
EndChar

StartChar: ae
Encoding: 230 230 67
Width: 794
Flags: HMW
HStem: -15 107 -10 21G<527.5 613> 223 84<444 655 444 758 441 655> 401 107<214 244>
VStem: 20 130<120.5 171 120.5 204>
LayerCount: 2
Fore
SplineSet
568 508 m 0,0,1
 656 508 656 508 711 449 c 128,-1,2
 766 390 766 390 766 293 c 0,3,4
 766 261 766 261 758 223 c 1,5,-1
 441 223 l 1,6,7
 451 157 451 157 490.5 124.5 c 128,-1,8
 530 92 530 92 584 92 c 0,9,10
 618 92 618 92 662 104 c 128,-1,11
 706 116 706 116 738 133 c 1,12,-1
 744 28 l 1,13,14
 672 -10 672 -10 578 -10 c 0,15,16
 430 -10 430 -10 378 84 c 1,17,18
 300 -15 300 -15 184 -15 c 0,19,20
 106 -15 106 -15 63 23 c 128,-1,21
 20 61 20 61 20 127 c 0,22,23
 20 171 20 171 40.5 205 c 128,-1,24
 61 239 61 239 90.5 258 c 128,-1,25
 120 277 120 277 161 290 c 0,26,27
 222 309 222 309 302 314 c 1,28,29
 300 361 300 361 280 381 c 128,-1,30
 260 401 260 401 205.5 401 c 128,-1,31
 151 401 151 401 74 363 c 1,32,-1
 63 464 l 1,33,34
 154 508 154 508 244 508 c 0,35,36
 304 508 304 508 341 488 c 128,-1,37
 378 468 378 468 395 419 c 1,38,39
 408 453 408 453 457.5 480.5 c 128,-1,40
 507 508 507 508 568 508 c 0,0,1
150 138 m 0,41,42
 150 112 150 112 167.5 96.5 c 128,-1,43
 185 81 185 81 216.5 81 c 128,-1,44
 248 81 248 81 279.5 113.5 c 128,-1,45
 311 146 311 146 311 202 c 0,46,47
 311 219 311 219 310 230 c 1,48,49
 250 229 250 229 200 206 c 128,-1,50
 150 183 150 183 150 138 c 0,41,42
633 376.5 m 128,-1,52
 611 406 611 406 565 406 c 128,-1,53
 519 406 519 406 486 378.5 c 128,-1,54
 453 351 453 351 444 307 c 1,55,-1
 655 307 l 1,56,51
 655 347 655 347 633 376.5 c 128,-1,52
EndSplineSet
EndChar

StartChar: agrave
Encoding: 224 224 68
Width: 498
Flags: HMW
HStem: -15 95<193.5 195.5> -15 107 -10 21G<402.5 430 430 475> 230 84<302 302> 401 107<214 244> 730 20G<155 155>
VStem: 20 130<119.5 169.5 119.5 205.5> 155 187<646 659 585 750 585 750> 302 124<134.5 172 172 230 230 230>
LayerCount: 2
Fore
SplineSet
74 363 m 1,0,-1
 63 464 l 1,1,2
 154 508 154 508 244 508 c 128,-1,3
 334 508 334 508 380 464.5 c 128,-1,4
 426 421 426 421 426 317 c 2,5,-1
 426 172 l 2,6,7
 426 118 426 118 434 105 c 128,-1,8
 442 92 442 92 470 92 c 2,9,-1
 486 92 l 1,10,-1
 475 -10 l 1,11,-1
 430 -10 l 2,12,13
 353 -10 353 -10 320 45 c 1,14,15
 296 17 296 17 254 1 c 128,-1,16
 212 -15 212 -15 157.5 -15 c 128,-1,17
 103 -15 103 -15 61.5 25.5 c 128,-1,18
 20 66 20 66 20 135 c 0,19,20
 20 185 20 185 50 221.5 c 128,-1,21
 80 258 80 258 127 276 c 0,22,23
 217 311 217 311 302 314 c 1,24,25
 300 361 300 361 280 381 c 128,-1,26
 260 401 260 401 205.5 401 c 128,-1,27
 151 401 151 401 74 363 c 1,0,-1
302 116 m 1,28,-1
 302 230 l 1,29,30
 242 227 242 227 196 204 c 128,-1,31
 150 181 150 181 150 140 c 0,32,33
 150 80 150 80 217 80 c 0,34,35
 265 80 265 80 302 116 c 1,28,-1
342 585 m 1,36,-1
 155 646 l 1,37,-1
 155 750 l 1,38,-1
 342 659 l 1,39,-1
 342 585 l 1,36,-1
EndSplineSet
EndChar

StartChar: ampersand
Encoding: 38 38 69
Width: 627
Flags: HMW
HStem: -24 95<233.5 305.5 233.5 305.5> 0 21G<480 624 480 480> 604 99<254.5 293>
VStem: 32 129<153 204 153 214> 79 122<516.5 556.5 516.5 590> 332 109<523 567.5>
LayerCount: 2
Fore
SplineSet
624 0 m 1,0,-1
 480 0 l 1,1,-1
 449 34 l 1,2,3
 376 -24 376 -24 263 -24 c 128,-1,4
 150 -24 150 -24 91 31.5 c 128,-1,5
 32 87 32 87 32 168 c 0,6,7
 32 231 32 231 64.5 278 c 128,-1,8
 97 325 97 325 154 367 c 1,9,10
 79 461 79 461 79 537 c 128,-1,11
 79 613 79 613 139 658 c 128,-1,12
 199 703 199 703 278 703 c 128,-1,13
 357 703 357 703 399 664 c 128,-1,14
 441 625 441 625 441 560 c 0,15,16
 441 496 441 496 395 450 c 0,17,18
 360 415 360 415 299 371 c 1,19,-1
 439 211 l 1,20,21
 447 251 447 251 449 352 c 1,22,-1
 568 352 l 1,23,24
 568 213 568 213 519 120 c 1,25,-1
 624 0 l 1,0,-1
188.5 102 m 128,-1,27
 216 71 216 71 281.5 71 c 128,-1,28
 347 71 347 71 386 105 c 1,29,-1
 213 300 l 1,30,31
 161 245 161 245 161 179 c 0,32,26
 161 133 161 133 188.5 102 c 128,-1,27
222 585.5 m 128,-1,34
 201 567 201 567 201 528.5 c 128,-1,35
 201 490 201 490 247 432 c 1,36,37
 332 492 332 492 332 548 c 128,-1,38
 332 604 332 604 276 604 c 0,39,33
 243 604 243 604 222 585.5 c 128,-1,34
EndSplineSet
EndChar

StartChar: asciicircum
Encoding: 94 94 70
Width: 511
Flags: HMW
HStem: 400 21G<49 49 461 461> 739 20G<255 255>
LayerCount: 2
Fore
SplineSet
461 547 m 1,0,-1
 461 400 l 1,1,-1
 255 612 l 1,2,-1
 49 400 l 1,3,-1
 49 547 l 1,4,-1
 255 759 l 1,5,-1
 461 547 l 1,0,-1
EndSplineSet
EndChar

StartChar: asciitilde
Encoding: 126 126 71
Width: 461
Flags: HMW
HStem: 206 21G<126 126> 211 89<274 301.5 267 335> 253 47 253 89<159 193> 327 20G
LayerCount: 2
Fore
SplineSet
419 327 m 1,0,1
 412 284 412 284 380 247.5 c 128,-1,2
 348 211 348 211 301 211 c 0,3,4
 272 211 272 211 231.5 232 c 0,5,6
 190 253 190 253 172 253 c 128,-1,7
 154 253 154 253 142 238.5 c 128,-1,8
 130 224 130 224 126 206 c 1,9,-1
 43 226 l 1,10,11
 48 275 48 275 86.5 308.5 c 128,-1,12
 125 342 125 342 163 342 c 128,-1,13
 201 342 201 342 235.5 321 c 128,-1,14
 270 300 270 300 289 300 c 128,-1,15
 308 300 308 300 324 315 c 128,-1,16
 340 330 340 330 343 347 c 1,17,-1
 419 327 l 1,0,1
EndSplineSet
EndChar

StartChar: asterisk
Encoding: 42 42 72
Width: 450
Flags: HMW
HStem: 409 21G<141 141> 729 20G<178 272 272 272>
LayerCount: 2
Fore
SplineSet
311 412 m 1,0,-1
 227 549 l 1,1,-1
 141 409 l 1,2,-1
 74 474 l 1,3,-1
 195 565 l 1,4,-1
 33 617 l 1,5,-1
 80 699 l 1,6,-1
 213 592 l 1,7,-1
 178 749 l 1,8,-1
 272 749 l 1,9,-1
 236 592 l 1,10,-1
 370 699 l 1,11,-1
 417 617 l 1,12,-1
 258 567 l 1,13,-1
 378 477 l 1,14,-1
 311 412 l 1,0,-1
EndSplineSet
EndChar

StartChar: at
Encoding: 64 64 73
Width: 707
Flags: HMW
HStem: -87 129<213 504> 432 121<353 443.5>
VStem: 41 120<123 220.5 123 279> 241 188<107.5 226.5> 482 185<138 376.5>
LayerCount: 2
Fore
SplineSet
432 156 m 1,0,-1
 429 125 l 1,1,2
 429 93 429 93 442 67.5 c 128,-1,3
 455 42 455 42 484 42 c 128,-1,4
 513 42 513 42 552.5 61.5 c 128,-1,5
 592 81 592 81 617 106 c 1,6,7
 569 19 569 19 480.5 -34 c 128,-1,8
 392 -87 392 -87 283 -87 c 128,-1,9
 174 -87 174 -87 107.5 -19 c 128,-1,10
 41 49 41 49 41 170 c 0,11,12
 41 331 41 331 152.5 442 c 128,-1,13
 264 553 264 553 418 553 c 0,14,15
 535 553 535 553 601 484.5 c 128,-1,16
 667 416 667 416 667 299 c 0,17,18
 667 226 667 226 642 159 c 1,19,20
 623 129 623 129 585.5 111.5 c 128,-1,21
 548 94 548 94 519 94 c 0,22,23
 482 94 482 94 482 147 c 0,24,25
 482 181 482 181 504.5 260 c 128,-1,26
 527 339 527 339 537 379 c 1,27,28
 486 432 486 432 415 432 c 0,29,30
 322 432 322 432 241.5 343.5 c 128,-1,31
 161 255 161 255 161 151 c 0,32,33
 161 103 161 103 183.5 71.5 c 128,-1,34
 206 40 206 40 252.5 40 c 128,-1,35
 299 40 299 40 351 72 c 128,-1,36
 403 104 403 104 432 156 c 1,0,-1
301 310 m 128,-1,38
 361 371 361 371 411.5 371 c 128,-1,39
 462 371 462 371 470 349 c 1,40,41
 456 267 456 267 395.5 186.5 c 128,-1,42
 335 106 335 106 285 106 c 0,43,44
 263 106 263 106 252 124 c 128,-1,45
 241 142 241 142 241 170 c 0,46,37
 241 249 241 249 301 310 c 128,-1,38
EndSplineSet
EndChar

StartChar: atilde
Encoding: 227 227 74
Width: 498
Flags: HMW
HStem: -15 95<193.5 195.5> -15 107 -10 21G<402.5 430 430 475> 230 84<302 302> 401 107<214 244> 599 89<292 319.5 285 353> 641 47 641 89<177 211> 715 20G
VStem: 20 130<119.5 169.5 119.5 205.5> 302 124<134.5 172 172 230 230 230>
LayerCount: 2
Fore
SplineSet
74 363 m 1,0,-1
 63 464 l 1,1,2
 154 508 154 508 244 508 c 128,-1,3
 334 508 334 508 380 464.5 c 128,-1,4
 426 421 426 421 426 317 c 2,5,-1
 426 172 l 2,6,7
 426 118 426 118 434 105 c 128,-1,8
 442 92 442 92 470 92 c 2,9,-1
 486 92 l 1,10,-1
 475 -10 l 1,11,-1
 430 -10 l 2,12,13
 353 -10 353 -10 320 45 c 1,14,15
 296 17 296 17 254 1 c 128,-1,16
 212 -15 212 -15 157.5 -15 c 128,-1,17
 103 -15 103 -15 61.5 25.5 c 128,-1,18
 20 66 20 66 20 135 c 0,19,20
 20 185 20 185 50 221.5 c 128,-1,21
 80 258 80 258 127 276 c 0,22,23
 217 311 217 311 302 314 c 1,24,25
 300 361 300 361 280 381 c 128,-1,26
 260 401 260 401 205.5 401 c 128,-1,27
 151 401 151 401 74 363 c 1,0,-1
437 715 m 1,28,29
 430 672 430 672 398 635.5 c 128,-1,30
 366 599 366 599 319 599 c 0,31,32
 290 599 290 599 249.5 620 c 128,-1,33
 209 641 209 641 190.5 641 c 128,-1,34
 172 641 172 641 160 626.5 c 128,-1,35
 148 612 148 612 144 594 c 1,36,-1
 61 614 l 1,37,38
 66 663 66 663 104.5 696.5 c 128,-1,39
 143 730 143 730 181 730 c 128,-1,40
 219 730 219 730 253.5 709 c 128,-1,41
 288 688 288 688 307 688 c 128,-1,42
 326 688 326 688 342 703 c 128,-1,43
 358 718 358 718 361 735 c 1,44,-1
 437 715 l 1,28,29
302 116 m 1,45,-1
 302 230 l 1,46,47
 242 227 242 227 196 204 c 128,-1,48
 150 181 150 181 150 140 c 0,49,50
 150 80 150 80 217 80 c 0,51,52
 265 80 265 80 302 116 c 1,45,-1
EndSplineSet
EndChar

StartChar: b
Encoding: 98 98 75
Width: 572
Flags: HMW
HStem: -10 102<271.5 331 251 379> 0 21G<58 174 58 58> 406 102<273 331> 730 20G<58 182 182 182>
VStem: 58 124<475 750 475 750 475 750> 417 127<202.5 295.5>
LayerCount: 2
Fore
SplineSet
299 -10 m 0,0,1
 231 -10 231 -10 176 28 c 1,2,-1
 174 0 l 1,3,-1
 58 0 l 1,4,-1
 58 750 l 1,5,-1
 182 750 l 1,6,-1
 182 475 l 1,7,8
 232 508 232 508 299 508 c 0,9,10
 414 508 414 508 479 433.5 c 128,-1,11
 544 359 544 359 544 249 c 128,-1,12
 544 139 544 139 479 64.5 c 128,-1,13
 414 -10 414 -10 299 -10 c 0,0,1
204.5 134 m 128,-1,15
 233 92 233 92 291.5 92 c 128,-1,16
 350 92 350 92 383.5 135 c 128,-1,17
 417 178 417 178 417 249 c 128,-1,18
 417 320 417 320 383.5 363 c 128,-1,19
 350 406 350 406 291.5 406 c 128,-1,20
 233 406 233 406 204.5 364 c 128,-1,21
 176 322 176 322 176 249 c 128,-1,14
 176 176 176 176 204.5 134 c 128,-1,15
EndSplineSet
EndChar

StartChar: backslash
Encoding: 92 92 76
Width: 551
Flags: HMW
HStem: -85 21G<398 398 398 532> 680 20G<33 167 167 167>
LayerCount: 2
Fore
SplineSet
398 -85 m 1,0,-1
 33 700 l 1,1,-1
 167 700 l 1,2,-1
 532 -85 l 1,3,-1
 398 -85 l 1,0,-1
EndSplineSet
EndChar

StartChar: bar
Encoding: 124 124 77
Width: 222
Flags: HMW
HStem: -210 21G<67 155 67 67> 730 20G<67 155 155 155>
VStem: 67 88<-210 750 -210 750>
LayerCount: 2
Fore
SplineSet
155 750 m 1,0,-1
 155 -210 l 1,1,-1
 67 -210 l 1,2,-1
 67 750 l 1,3,-1
 155 750 l 1,0,-1
EndSplineSet
EndChar

StartChar: braceleft
Encoding: 123 123 78
Width: 318
Flags: HMW
HStem: -136 109<246.5 306 246.5 306> 641 109<246.5 306>
VStem: 95 91<52.5 201.5> 95 211<-136 201.5>
LayerCount: 2
Fore
SplineSet
88 29 m 1,0,-1
 95 166 l 1,1,2
 95 220 95 220 77.5 251.5 c 128,-1,3
 60 283 60 283 13 307 c 1,4,5
 59 331 59 331 77 361.5 c 128,-1,6
 95 392 95 392 95 449 c 1,7,-1
 88 585 l 1,8,9
 88 668 88 668 137.5 709 c 128,-1,10
 187 750 187 750 306 750 c 1,11,-1
 306 641 l 1,12,13
 274 641 274 641 255.5 640 c 128,-1,14
 237 639 237 639 222.5 631.5 c 128,-1,15
 208 624 208 624 201.5 617.5 c 128,-1,16
 195 611 195 611 191 591 c 0,17,18
 186 566 186 566 186 500 c 1,19,-1
 189 418 l 1,20,21
 189 339 189 339 138 307 c 1,22,23
 189 276 189 276 189 204 c 1,24,25
 186 115 l 1,26,27
 186 12 186 12 202 -4 c 0,28,29
 223 -25 223 -25 248.5 -26 c 128,-1,30
 274 -27 274 -27 306 -27 c 1,31,-1
 306 -136 l 1,32,33
 189 -136 189 -136 138.5 -96 c 128,-1,34
 88 -56 88 -56 88 29 c 1,0,-1
EndSplineSet
EndChar

StartChar: braceright
Encoding: 125 125 79
Width: 318
Flags: HMW
HStem: -136 109<12 71.5 12 91.5> 641 109<12 71.5>
VStem: 12 211<-136 201.5 -27 201.5> 132 91<52.5 201.5>
LayerCount: 2
Fore
SplineSet
230 585 m 1,0,-1
 223 449 l 1,1,2
 223 392 223 392 241 361.5 c 128,-1,3
 259 331 259 331 305 307 c 1,4,5
 258 283 258 283 240.5 251.5 c 128,-1,6
 223 220 223 220 223 166 c 1,7,-1
 230 29 l 1,8,9
 230 -56 230 -56 179.5 -96 c 128,-1,10
 129 -136 129 -136 12 -136 c 1,11,-1
 12 -27 l 1,12,13
 44 -27 44 -27 62.5 -26 c 128,-1,14
 81 -25 81 -25 95.5 -17.5 c 128,-1,15
 110 -10 110 -10 116.5 -3.5 c 0,16,17
 123 4 123 4 127 24 c 0,18,19
 132 50 132 50 132 115 c 1,20,-1
 129 204 l 1,21,22
 129 276 129 276 180 307 c 1,23,24
 129 339 129 339 129 418 c 1,25,-1
 132 500 l 1,26,27
 132 602 132 602 116 618 c 0,28,29
 95 639 95 639 69.5 640 c 128,-1,30
 44 641 44 641 12 641 c 1,31,-1
 12 750 l 1,32,33
 131 750 131 750 180.5 709 c 128,-1,34
 230 668 230 668 230 585 c 1,0,-1
EndSplineSet
EndChar

StartChar: bracketleft
Encoding: 91 91 80
Width: 335
Flags: HMW
HStem: -136 109<180 324 180 324> 641 109<180 324 180 180>
VStem: 67 113<-27 641 -27 750 -27 750>
LayerCount: 2
Fore
SplineSet
67 -136 m 1,0,-1
 67 750 l 1,1,-1
 324 750 l 1,2,-1
 324 641 l 1,3,-1
 180 641 l 1,4,-1
 180 -27 l 1,5,-1
 324 -27 l 1,6,-1
 324 -136 l 1,7,-1
 67 -136 l 1,0,-1
EndSplineSet
EndChar

StartChar: bracketright
Encoding: 93 93 81
Width: 340
Flags: HMW
HStem: -136 124<16 160 16 273 16 160> 626 124<16 160 16 273>
VStem: 160 113<-12 626 626 626>
LayerCount: 2
Fore
SplineSet
273 750 m 1,0,-1
 273 -136 l 1,1,-1
 16 -136 l 1,2,-1
 16 -12 l 1,3,-1
 160 -12 l 1,4,-1
 160 626 l 1,5,-1
 16 626 l 1,6,-1
 16 750 l 1,7,-1
 273 750 l 1,0,-1
EndSplineSet
EndChar

StartChar: brokenbar
Encoding: 166 166 82
Width: 224
Flags: HMW
HStem: -210 21G<68 156 68 68> 730 20G<68 156 156 156>
VStem: 68 88<-210 190 -210 190 284 750>
LayerCount: 2
Fore
SplineSet
68 190 m 1,0,-1
 156 190 l 1,1,-1
 156 -210 l 1,2,-1
 68 -210 l 1,3,-1
 68 190 l 1,0,-1
156 284 m 1,4,-1
 68 284 l 1,5,-1
 68 750 l 1,6,-1
 156 750 l 1,7,-1
 156 284 l 1,4,-1
EndSplineSet
EndChar

StartChar: bullet
Encoding: 8226 8226 83
Width: 298
Flags: HMW
HStem: 169 218<119 179>
VStem: 40 218<248 308>
LayerCount: 2
Fore
SplineSet
40 278 m 128,-1,1
 40 323 40 323 72 355 c 128,-1,2
 104 387 104 387 149 387 c 128,-1,3
 194 387 194 387 226 355 c 128,-1,4
 258 323 258 323 258 278 c 128,-1,5
 258 233 258 233 226 201 c 128,-1,6
 194 169 194 169 149 169 c 128,-1,7
 104 169 104 169 72 201 c 128,-1,0
 40 233 40 233 40 278 c 128,-1,1
EndSplineSet
EndChar

StartChar: c
Encoding: 99 99 84
Width: 448
Flags: HMW
HStem: -10 102<241 305 241 311> 406 102<241 305>
VStem: 28 127<202.5 295.5 202.5 319>
LayerCount: 2
Fore
SplineSet
155 249 m 128,-1,1
 155 178 155 178 188.5 135 c 128,-1,2
 222 92 222 92 285 92 c 0,3,4
 348 92 348 92 410 133 c 1,5,-1
 421 27 l 1,6,7
 362 -10 362 -10 271 -10 c 0,8,9
 156 -10 156 -10 92 64 c 128,-1,10
 28 138 28 138 28 249 c 128,-1,11
 28 360 28 360 92 434 c 128,-1,12
 156 508 156 508 271 508 c 0,13,14
 362 508 362 508 421 471 c 1,15,-1
 410 365 l 1,16,17
 348 406 348 406 285 406 c 0,18,19
 222 406 222 406 188.5 363 c 128,-1,0
 155 320 155 320 155 249 c 128,-1,1
EndSplineSet
EndChar

StartChar: caron
Encoding: 711 711 85
Width: 446
Flags: HMW
HStem: 585 21G<223 223> 730 20G<76 76 370 370>
LayerCount: 2
Fore
SplineSet
223 679 m 1,0,-1
 370 750 l 1,1,-1
 370 676 l 1,2,-1
 223 585 l 1,3,-1
 76 676 l 1,4,-1
 76 750 l 1,5,-1
 223 679 l 1,0,-1
EndSplineSet
EndChar

StartChar: cent
Encoding: 162 162 86
Width: 474
Flags: HMW
HStem: -32 223<247 311 247 319 223 311> 89 102<304 304> 505 101<302 302 302 311> 505 243<247 311>
VStem: 34 127<301.5 394.5 301.5 412.5>
LayerCount: 2
Fore
SplineSet
161 348 m 128,-1,1
 161 277 161 277 194.5 234 c 128,-1,2
 228 191 228 191 291 191 c 0,3,4
 354 191 354 191 416 232 c 1,5,-1
 427 126 l 1,6,7
 377 94 377 94 304 89 c 1,8,-1
 319 -32 l 1,9,-1
 223 -32 l 1,10,-1
 239 91 l 1,11,12
 141 104 141 104 87.5 175.5 c 128,-1,13
 34 247 34 247 34 348 c 128,-1,14
 34 449 34 449 88.5 521 c 128,-1,15
 143 593 143 593 241 605 c 1,16,-1
 223 748 l 1,17,-1
 319 748 l 1,18,-1
 302 606 l 1,19,20
 375 603 375 603 427 570 c 1,21,-1
 416 464 l 1,22,23
 354 505 354 505 291 505 c 0,24,25
 228 505 228 505 194.5 462 c 128,-1,0
 161 419 161 419 161 348 c 128,-1,1
EndSplineSet
EndChar

StartChar: circumflex
Encoding: 710 710 87
Width: 446
Flags: HMW
HStem: 585 21G<76 76 370 370> 730 20G<223 223>
LayerCount: 2
Fore
SplineSet
370 585 m 1,0,-1
 223 656 l 1,1,-1
 76 585 l 1,2,-1
 76 659 l 1,3,-1
 223 750 l 1,4,-1
 370 659 l 1,5,-1
 370 585 l 1,0,-1
EndSplineSet
EndChar

StartChar: colon
Encoding: 58 58 88
Width: 262
Flags: HMW
HStem: 0 130<69 193 69 193> 310 130<69 193 69 193>
VStem: 69 124<0 130 310 440>
LayerCount: 2
Fore
SplineSet
193 0 m 1,0,-1
 69 0 l 1,1,-1
 69 130 l 1,2,-1
 193 130 l 1,3,-1
 193 0 l 1,0,-1
193 310 m 1,4,-1
 69 310 l 1,5,-1
 69 440 l 1,6,-1
 193 440 l 1,7,-1
 193 310 l 1,4,-1
EndSplineSet
EndChar

StartChar: comma
Encoding: 44 44 89
Width: 236
Flags: HMW
HStem: -110 21G<82 82> 110 20G<56 180 180 180>
VStem: 56 124<-96 0 0 130>
LayerCount: 2
Fore
SplineSet
180 0 m 1,0,-1
 82 -110 l 1,1,-1
 56 -96 l 1,2,-1
 89 -10 l 1,3,-1
 56 0 l 1,4,-1
 56 130 l 1,5,-1
 180 130 l 1,6,-1
 180 0 l 1,0,-1
EndSplineSet
EndChar

StartChar: d
Encoding: 100 100 90
Width: 572
Flags: HMW
HStem: -10 102<241 300> 0 21G<397 514 397 397> 406 102<241 298.5 193 321> 730 20G<390 514 514 514>
VStem: 28 127<202.5 295.5 202.5 319> 390 124<475 750 0 750>
LayerCount: 2
Fore
SplineSet
273 508 m 0,0,1
 340 508 340 508 390 475 c 1,2,-1
 390 750 l 1,3,-1
 514 750 l 1,4,-1
 514 0 l 1,5,-1
 397 0 l 1,6,-1
 395 28 l 1,7,8
 340 -10 340 -10 273 -10 c 0,9,10
 158 -10 158 -10 93 64.5 c 128,-1,11
 28 139 28 139 28 249 c 128,-1,12
 28 359 28 359 93 433.5 c 128,-1,13
 158 508 158 508 273 508 c 0,0,1
188.5 135 m 128,-1,15
 222 92 222 92 280.5 92 c 128,-1,16
 339 92 339 92 367.5 134 c 128,-1,17
 396 176 396 176 396 249 c 128,-1,18
 396 322 396 322 367.5 364 c 128,-1,19
 339 406 339 406 280.5 406 c 128,-1,20
 222 406 222 406 188.5 363 c 128,-1,21
 155 320 155 320 155 249 c 128,-1,14
 155 178 155 178 188.5 135 c 128,-1,15
EndSplineSet
EndChar

StartChar: degree
Encoding: 176 176 91
Width: 325
Flags: HMW
HStem: 482 51<142 183 142 204> 704 51<142 183>
VStem: 30 68<592.5 643.5 592.5 655> 226 69<592.5 643.5>
LayerCount: 2
Fore
SplineSet
66 715.5 m 128,-1,1
 102 755 102 755 162.5 755 c 128,-1,2
 223 755 223 755 259 715.5 c 128,-1,3
 295 676 295 676 295 618 c 128,-1,4
 295 560 295 560 259 521 c 128,-1,5
 223 482 223 482 162.5 482 c 128,-1,6
 102 482 102 482 66 521 c 128,-1,7
 30 560 30 560 30 618 c 128,-1,0
 30 676 30 676 66 715.5 c 128,-1,1
115 556 m 128,-1,9
 132 533 132 533 162.5 533 c 128,-1,10
 193 533 193 533 209.5 556 c 128,-1,11
 226 579 226 579 226 618 c 128,-1,12
 226 657 226 657 209.5 680.5 c 128,-1,13
 193 704 193 704 162.5 704 c 128,-1,14
 132 704 132 704 115 680.5 c 128,-1,15
 98 657 98 657 98 618 c 128,-1,8
 98 579 98 579 115 556 c 128,-1,9
EndSplineSet
EndChar

StartChar: dieresis
Encoding: 168 168 92
Width: 422
Flags: HMW
HStem: 576 106<87 184 87 184 87 238 238 335>
VStem: 87 97<576 682> 238 97<576 682>
LayerCount: 2
Fore
SplineSet
184 576 m 1,0,-1
 87 576 l 1,1,-1
 87 682 l 1,2,-1
 184 682 l 1,3,-1
 184 576 l 1,0,-1
335 576 m 1,4,-1
 238 576 l 1,5,-1
 238 682 l 1,6,-1
 335 682 l 1,7,-1
 335 576 l 1,4,-1
EndSplineSet
EndChar

StartChar: dollar
Encoding: 36 36 93
Width: 483
Flags: HMW
HStem: -32 209<194 263.5 194 288 192 263.5> 80 97<207 207> 539 93<207 274 207 275.5> 539 209<228.5 275.5>
VStem: 40 110<435 507> 328 120<213 290>
LayerCount: 2
Fore
SplineSet
328 235 m 0,0,1
 328 288 328 288 226 319 c 0,2,3
 184 332 184 332 141.5 348 c 128,-1,4
 99 364 99 364 69.5 396 c 128,-1,5
 40 428 40 428 40 480 c 128,-1,6
 40 532 40 532 80 577.5 c 128,-1,7
 120 623 120 623 207 632 c 1,8,-1
 192 748 l 1,9,-1
 288 748 l 1,10,-1
 274 632 l 1,11,12
 317 629 317 629 358 618 c 128,-1,13
 399 607 399 607 419 594 c 1,14,-1
 409 489 l 1,15,16
 315 539 315 539 253 539 c 0,17,18
 150 539 150 539 150 486 c 0,19,20
 150 441 150 441 227 420 c 0,21,22
 308 398 308 398 371 366 c 0,23,24
 404 350 404 350 426 316.5 c 128,-1,25
 448 283 448 283 448 247.5 c 128,-1,26
 448 212 448 212 441 189.5 c 128,-1,27
 434 167 434 167 417 143 c 0,28,29
 380 91 380 91 274 81 c 1,30,-1
 288 -32 l 1,31,-1
 192 -32 l 1,32,-1
 207 80 l 1,33,34
 101 86 101 86 48 119 c 1,35,-1
 62 238 l 1,36,37
 123 177 123 177 234 177 c 0,38,39
 328 177 328 177 328 235 c 0,0,1
EndSplineSet
EndChar

StartChar: dotlessi
Encoding: 305 305 94
Width: 240
Flags: HMW
HStem: 0 21G<58 182 58 58> 480 20G<58 182 182 182>
VStem: 58 124<0 500 0 500>
LayerCount: 2
Fore
SplineSet
58 500 m 1,0,-1
 182 500 l 1,1,-1
 182 0 l 1,2,-1
 58 0 l 1,3,-1
 58 500 l 1,0,-1
EndSplineSet
EndChar

StartChar: dotlessj
Encoding: 567 567 95
Width: 240
Flags: HMW
HStem: -242 102<9 24.5 -2 54 9 9> 480 20G<58 182 182 182>
VStem: 58 124<-60 500>
LayerCount: 2
Fore
SplineSet
58 500 m 1,0,-1
 182 500 l 1,1,-1
 182 -111 l 2,2,3
 182 -169 182 -169 150 -205.5 c 128,-1,4
 118 -242 118 -242 54 -242 c 2,5,-1
 9 -242 l 1,6,-1
 -2 -140 l 1,7,8
 39 -140 39 -140 48.5 -128.5 c 128,-1,9
 58 -117 58 -117 58 -60 c 2,10,-1
 58 500 l 1,0,-1
EndSplineSet
EndChar

StartChar: e
Encoding: 101 101 96
Width: 515
Flags: HMW
HStem: -10 102<273 329.5 273 334.5> 223 84<160 362 160 480 157 362> 406 102<240 305.5>
LayerCount: 2
Fore
SplineSet
92.5 433 m 128,-1,1
 157 508 157 508 260.5 508 c 128,-1,2
 364 508 364 508 426 448.5 c 128,-1,3
 488 389 488 389 488 291 c 0,4,5
 488 261 488 261 480 223 c 1,6,-1
 157 223 l 1,7,8
 167 158 167 158 209.5 125 c 128,-1,9
 252 92 252 92 306 92 c 0,10,11
 340 92 340 92 384 104 c 128,-1,12
 428 116 428 116 460 133 c 1,13,-1
 466 28 l 1,14,15
 394 -10 394 -10 299 -10 c 0,16,17
 169 -10 169 -10 98.5 64 c 128,-1,18
 28 138 28 138 28 248 c 128,-1,0
 28 358 28 358 92.5 433 c 128,-1,1
272 406 m 128,-1,20
 226 406 226 406 198 379 c 128,-1,21
 170 352 170 352 160 307 c 1,22,-1
 362 307 l 1,23,24
 362 346 362 346 340 376 c 128,-1,19
 318 406 318 406 272 406 c 128,-1,20
EndSplineSet
EndChar

StartChar: eacute
Encoding: 233 233 97
Width: 515
Flags: HMW
HStem: -10 102<273 329.5 273 334.5> 223 84<160 362 160 480 157 362> 406 102<240 305.5> 730 20G<351 351>
VStem: 164 187<646 646 646 659 659 659>
LayerCount: 2
Fore
SplineSet
92.5 433 m 128,-1,1
 157 508 157 508 260.5 508 c 128,-1,2
 364 508 364 508 426 448.5 c 128,-1,3
 488 389 488 389 488 291 c 0,4,5
 488 261 488 261 480 223 c 1,6,-1
 157 223 l 1,7,8
 167 158 167 158 209.5 125 c 128,-1,9
 252 92 252 92 306 92 c 0,10,11
 340 92 340 92 384 104 c 128,-1,12
 428 116 428 116 460 133 c 1,13,-1
 466 28 l 1,14,15
 394 -10 394 -10 299 -10 c 0,16,17
 169 -10 169 -10 98.5 64 c 128,-1,18
 28 138 28 138 28 248 c 128,-1,0
 28 358 28 358 92.5 433 c 128,-1,1
351 646 m 1,19,-1
 164 585 l 1,20,-1
 164 659 l 1,21,-1
 351 750 l 1,22,-1
 351 646 l 1,19,-1
272 406 m 128,-1,24
 226 406 226 406 198 379 c 128,-1,25
 170 352 170 352 160 307 c 1,26,-1
 362 307 l 1,27,28
 362 346 362 346 340 376 c 128,-1,23
 318 406 318 406 272 406 c 128,-1,24
EndSplineSet
EndChar

StartChar: ecircumflex
Encoding: 234 234 98
Width: 515
Flags: HMW
HStem: -10 102<273 329.5 273 334.5> 223 84<160 362 160 480 157 362> 406 102<240 305.5> 730 20G<257 257>
LayerCount: 2
Fore
SplineSet
92.5 433 m 128,-1,1
 157 508 157 508 260.5 508 c 128,-1,2
 364 508 364 508 426 448.5 c 128,-1,3
 488 389 488 389 488 291 c 0,4,5
 488 261 488 261 480 223 c 1,6,-1
 157 223 l 1,7,8
 167 158 167 158 209.5 125 c 128,-1,9
 252 92 252 92 306 92 c 0,10,11
 340 92 340 92 384 104 c 128,-1,12
 428 116 428 116 460 133 c 1,13,-1
 466 28 l 1,14,15
 394 -10 394 -10 299 -10 c 0,16,17
 169 -10 169 -10 98.5 64 c 128,-1,18
 28 138 28 138 28 248 c 128,-1,0
 28 358 28 358 92.5 433 c 128,-1,1
404 585 m 1,19,-1
 257 656 l 1,20,-1
 110 585 l 1,21,-1
 110 659 l 1,22,-1
 257 750 l 1,23,-1
 404 659 l 1,24,-1
 404 585 l 1,19,-1
272 406 m 128,-1,26
 226 406 226 406 198 379 c 128,-1,27
 170 352 170 352 160 307 c 1,28,-1
 362 307 l 1,29,30
 362 346 362 346 340 376 c 128,-1,25
 318 406 318 406 272 406 c 128,-1,26
EndSplineSet
EndChar

StartChar: edieresis
Encoding: 235 235 99
Width: 515
Flags: HMW
HStem: -10 102<273 329.5 273 334.5> 223 84<160 362 160 480 157 362> 406 102<240 305.5> 576 106<133 230 133 230 133 284 284 381>
VStem: 133 97<576 682> 284 97<576 682> 284 204
LayerCount: 2
Fore
SplineSet
92.5 433 m 128,-1,1
 157 508 157 508 260.5 508 c 128,-1,2
 364 508 364 508 426 448.5 c 128,-1,3
 488 389 488 389 488 291 c 0,4,5
 488 261 488 261 480 223 c 1,6,-1
 157 223 l 1,7,8
 167 158 167 158 209.5 125 c 128,-1,9
 252 92 252 92 306 92 c 0,10,11
 340 92 340 92 384 104 c 128,-1,12
 428 116 428 116 460 133 c 1,13,-1
 466 28 l 1,14,15
 394 -10 394 -10 299 -10 c 0,16,17
 169 -10 169 -10 98.5 64 c 128,-1,18
 28 138 28 138 28 248 c 128,-1,0
 28 358 28 358 92.5 433 c 128,-1,1
272 406 m 128,-1,20
 226 406 226 406 198 379 c 128,-1,21
 170 352 170 352 160 307 c 1,22,-1
 362 307 l 1,23,24
 362 346 362 346 340 376 c 128,-1,19
 318 406 318 406 272 406 c 128,-1,20
230 576 m 1,25,-1
 133 576 l 1,26,-1
 133 682 l 1,27,-1
 230 682 l 1,28,-1
 230 576 l 1,25,-1
381 576 m 1,29,-1
 284 576 l 1,30,-1
 284 682 l 1,31,-1
 381 682 l 1,32,-1
 381 576 l 1,29,-1
EndSplineSet
EndChar

StartChar: egrave
Encoding: 232 232 100
Width: 515
Flags: HMW
HStem: -10 102<273 329.5 273 334.5> 223 84<160 362 160 480 157 362> 406 102<240 305.5> 730 20G<164 164>
VStem: 164 187<646 659 585 750 585 750>
LayerCount: 2
Fore
SplineSet
92.5 433 m 128,-1,1
 157 508 157 508 260.5 508 c 128,-1,2
 364 508 364 508 426 448.5 c 128,-1,3
 488 389 488 389 488 291 c 0,4,5
 488 261 488 261 480 223 c 1,6,-1
 157 223 l 1,7,8
 167 158 167 158 209.5 125 c 128,-1,9
 252 92 252 92 306 92 c 0,10,11
 340 92 340 92 384 104 c 128,-1,12
 428 116 428 116 460 133 c 1,13,-1
 466 28 l 1,14,15
 394 -10 394 -10 299 -10 c 0,16,17
 169 -10 169 -10 98.5 64 c 128,-1,18
 28 138 28 138 28 248 c 128,-1,0
 28 358 28 358 92.5 433 c 128,-1,1
351 585 m 1,19,-1
 164 646 l 1,20,-1
 164 750 l 1,21,-1
 351 659 l 1,22,-1
 351 585 l 1,19,-1
272 406 m 128,-1,24
 226 406 226 406 198 379 c 128,-1,25
 170 352 170 352 160 307 c 1,26,-1
 362 307 l 1,27,28
 362 346 362 346 340 376 c 128,-1,23
 318 406 318 406 272 406 c 128,-1,24
EndSplineSet
EndChar

StartChar: eight
Encoding: 56 56 101
Width: 596
Flags: HMW
HStem: -24 102<257 333 257 378> 622 90<262 331>
VStem: 53 127<157.5 222> 92 112<510 553 510 573> 382 123<511 555> 414 129<162.5 232>
LayerCount: 2
Fore
SplineSet
505 543 m 0,0,1
 505 454 505 454 419 382 c 1,2,3
 475 356 475 356 509 307.5 c 128,-1,4
 543 259 543 259 543 198 c 0,5,6
 542 118 542 118 482 50 c 0,7,8
 452 17 452 17 402.5 -3.5 c 128,-1,9
 353 -24 353 -24 291 -24 c 0,10,11
 174 -24 174 -24 113.5 40.5 c 128,-1,12
 53 105 53 105 53 190 c 0,13,14
 53 291 53 291 161 370 c 1,15,16
 92 425 92 425 92 528 c 0,17,18
 92 602 92 602 136 654 c 0,19,20
 186 712 186 712 297 712 c 128,-1,21
 408 712 408 712 456.5 663 c 128,-1,22
 505 614 505 614 505 543 c 0,0,1
382.5 111 m 128,-1,24
 414 144 414 144 414 196 c 128,-1,25
 414 248 414 248 383 281.5 c 128,-1,26
 352 315 352 315 301 327 c 1,27,28
 251 319 251 319 215.5 283.5 c 128,-1,29
 180 248 180 248 180 193.5 c 128,-1,30
 180 139 180 139 209.5 108.5 c 128,-1,31
 239 78 239 78 295 78 c 128,-1,23
 351 78 351 78 382.5 111 c 128,-1,24
382 533 m 0,32,33
 382 622 382 622 297 622 c 0,34,35
 248 622 248 622 226 595.5 c 128,-1,36
 204 569 204 569 204 538 c 128,-1,37
 204 507 204 507 210.5 486.5 c 128,-1,38
 217 466 217 466 237.5 445 c 128,-1,39
 258 424 258 424 292 415 c 1,40,41
 382 432 382 432 382 533 c 0,32,33
EndSplineSet
EndChar

StartChar: eightinferior
Encoding: 8328 8328 102
Width: 340
Flags: HMW
HStem: -12 67<153 184.5 153 212.5> 307 62<156 183>
VStem: 42 79<88.5 118> 61 72<262 279.5 262 293.5> 202 78<262.5 280.5> 218 80<90.5 120>
LayerCount: 2
Fore
SplineSet
254 342.5 m 128,-1,1
 280 316 280 316 280 274 c 128,-1,2
 280 232 280 232 244 199 c 1,3,4
 298 168 298 168 298 106 c 0,5,6
 298 61 298 61 264 24.5 c 128,-1,7
 230 -12 230 -12 167.5 -12 c 128,-1,8
 105 -12 105 -12 73.5 22 c 128,-1,9
 42 56 42 56 42 104.5 c 128,-1,10
 42 153 42 153 90 192 c 1,11,12
 61 221 61 221 61 266 c 128,-1,13
 61 311 61 311 87 340 c 128,-1,14
 113 369 113 369 170.5 369 c 128,-1,0
 228 369 228 369 254 342.5 c 128,-1,1
218 105 m 0,15,16
 218 149 218 149 171 161 c 1,17,18
 150 157 150 157 135.5 142 c 128,-1,19
 121 127 121 127 121 104 c 128,-1,20
 121 81 121 81 133.5 68 c 128,-1,21
 146 55 146 55 169 55 c 128,-1,22
 192 55 192 55 205 69 c 128,-1,23
 218 83 218 83 218 105 c 0,15,16
167 222 m 1,24,25
 202 230 202 230 202 268.5 c 128,-1,26
 202 307 202 307 170 307 c 0,27,28
 133 307 133 307 133 270 c 128,-1,29
 133 233 133 233 167 222 c 1,24,25
EndSplineSet
EndChar

StartChar: ellipsis
Encoding: 8230 8230 103
Width: 704
Flags: HMW
HStem: 0 130<56 180 56 180 56 290 290 414 524 648>
VStem: 56 124<0 130> 290 124<0 130> 524 124<0 130>
CounterMasks: 1 70
LayerCount: 2
Fore
SplineSet
180 0 m 1,0,-1
 56 0 l 1,1,-1
 56 130 l 1,2,-1
 180 130 l 1,3,-1
 180 0 l 1,0,-1
414 0 m 1,4,-1
 290 0 l 1,5,-1
 290 130 l 1,6,-1
 414 130 l 1,7,-1
 414 0 l 1,4,-1
648 0 m 1,8,-1
 524 0 l 1,9,-1
 524 130 l 1,10,-1
 648 130 l 1,11,-1
 648 0 l 1,8,-1
EndSplineSet
EndChar

StartChar: emdash
Encoding: 8212 8212 104
Width: 658
Flags: HMW
HStem: 230 94<49 609 49 609>
LayerCount: 2
Fore
SplineSet
49 324 m 1,0,-1
 609 324 l 1,1,-1
 609 230 l 1,2,-1
 49 230 l 1,3,-1
 49 324 l 1,0,-1
EndSplineSet
EndChar

StartChar: endash
Encoding: 8211 8211 105
Width: 558
Flags: HMW
HStem: 230 94<49 509 49 509>
LayerCount: 2
Fore
SplineSet
49 324 m 1,0,-1
 509 324 l 1,1,-1
 509 230 l 1,2,-1
 49 230 l 1,3,-1
 49 324 l 1,0,-1
EndSplineSet
EndChar

StartChar: equal
Encoding: 61 61 106
Width: 492
Flags: HMW
HStem: 150 94<61 431 61 431> 310 94<61 431 61 431>
LayerCount: 2
Fore
SplineSet
61 404 m 1,0,-1
 431 404 l 1,1,-1
 431 310 l 1,2,-1
 61 310 l 1,3,-1
 61 404 l 1,0,-1
61 244 m 1,4,-1
 431 244 l 1,5,-1
 431 150 l 1,6,-1
 61 150 l 1,7,-1
 61 244 l 1,4,-1
EndSplineSet
EndChar

StartChar: eth
Encoding: 240 240 107
Width: 512
Flags: HMW
HStem: -13 101<209.5 274.5 209.5 300> 329 97<197.5 238 151.5 274.5> 691 20G<348 348>
VStem: 19 118<186.5 246 186.5 256.5> 340 135 355 120<164 244.5>
LayerCount: 2
Fore
SplineSet
348 711 m 1,0,-1
 415 695 l 1,1,2
 376 634 376 634 346 601 c 1,3,4
 405 538 405 538 440 448.5 c 128,-1,5
 475 359 475 359 475 270.5 c 128,-1,6
 475 182 475 182 453.5 126.5 c 128,-1,7
 432 71 432 71 398 42 c 0,8,9
 333 -13 333 -13 257 -13 c 0,10,11
 147 -13 147 -13 83 48.5 c 128,-1,12
 19 110 19 110 19 201 c 128,-1,13
 19 292 19 292 71.5 359 c 128,-1,14
 124 426 124 426 217 426 c 128,-1,15
 310 426 310 426 340 387 c 1,16,17
 334 465 334 465 280 538 c 1,18,19
 214 488 214 488 143 481 c 1,20,-1
 104 554 l 1,21,22
 156 554 156 554 224 598 c 1,23,24
 166 647 166 647 106 648 c 1,25,-1
 147 701 l 1,26,27
 222 699 222 699 292 649 c 1,28,29
 329 683 329 683 348 711 c 1,0,-1
237 329 m 0,30,31
 183 329 183 329 160 297.5 c 128,-1,32
 137 266 137 266 137 215.5 c 128,-1,33
 137 165 137 165 165 126.5 c 128,-1,34
 193 88 193 88 242 88 c 128,-1,35
 291 88 291 88 323 118 c 128,-1,36
 355 148 355 148 355 202 c 0,37,38
 355 329 355 329 237 329 c 0,30,31
EndSplineSet
EndChar

StartChar: exclam
Encoding: 33 33 108
Width: 252
Flags: HMW
HStem: 0 124<64 188 64 188> 730 20G<64 188 188 188>
VStem: 74 104
LayerCount: 2
Fore
SplineSet
168 200 m 1,0,-1
 84 200 l 1,1,-1
 64 750 l 1,2,-1
 188 750 l 1,3,-1
 168 200 l 1,0,-1
64 124 m 1,4,-1
 188 124 l 1,5,-1
 188 0 l 1,6,-1
 64 0 l 1,7,-1
 64 124 l 1,4,-1
EndSplineSet
EndChar

StartChar: exclamdown
Encoding: 161 161 109
Width: 260
Flags: HMW
HStem: -250 21G<68 192 68 68> 376 124<68 192 68 192>
VStem: 78 104
LayerCount: 2
Fore
SplineSet
192 376 m 1,0,-1
 68 376 l 1,1,-1
 68 500 l 1,2,-1
 192 500 l 1,3,-1
 192 376 l 1,0,-1
88 300 m 1,4,-1
 172 300 l 1,5,-1
 192 -250 l 1,6,-1
 68 -250 l 1,7,-1
 88 300 l 1,4,-1
EndSplineSet
EndChar

StartChar: f
Encoding: 102 102 110
Width: 341
Flags: HMW
HStem: 0 21G<89 213 89 89> 398 102<29 89 29 89 18 89 213 323> 730 20G<168.5 242>
VStem: 89 124<0 398 500 568>
LayerCount: 2
Fore
SplineSet
213 0 m 1,0,-1
 89 0 l 1,1,-1
 89 398 l 1,2,-1
 18 398 l 1,3,-1
 29 500 l 1,4,-1
 89 500 l 1,5,-1
 89 619 l 2,6,7
 89 672 89 672 120.5 711 c 128,-1,8
 152 750 152 750 204 750 c 0,9,10
 256 750 256 750 322 744 c 1,11,-1
 311 641 l 1,12,13
 289 646 289 646 260 646 c 0,14,15
 231 646 231 646 222 630 c 128,-1,16
 213 614 213 614 213 568 c 2,17,-1
 213 500 l 1,18,-1
 323 500 l 1,19,-1
 323 398 l 1,20,-1
 213 398 l 1,21,-1
 213 0 l 1,0,-1
EndSplineSet
EndChar

StartChar: five
Encoding: 53 53 111
Width: 536
Flags: HMW
HStem: -13 120<197.5 262 197.5 296> 332 107<208 208 208 232> 576 124<225 437 225 225>
VStem: 363 124<180 251.5>
LayerCount: 2
Fore
SplineSet
49 43 m 1,0,-1
 79 159 l 1,1,2
 104 137 104 137 144.5 122 c 128,-1,3
 185 107 185 107 235 107 c 0,4,5
 285 107 285 107 324 135.5 c 128,-1,6
 363 164 363 164 363 217 c 0,7,8
 363 270 363 270 329.5 301 c 128,-1,9
 296 332 296 332 232 332 c 2,10,-1
 85 332 l 1,11,-1
 129 700 l 1,12,-1
 450 700 l 1,13,-1
 437 576 l 1,14,-1
 225 576 l 1,15,-1
 208 439 l 1,16,17
 347 437 347 437 417 381.5 c 128,-1,18
 487 326 487 326 487 220 c 0,19,20
 487 114 487 114 411 50.5 c 128,-1,21
 335 -13 335 -13 231 -13 c 0,22,23
 170 -13 170 -13 111 7.5 c 128,-1,24
 52 28 52 28 49 43 c 1,0,-1
EndSplineSet
EndChar

StartChar: fiveinferior
Encoding: 8325 8325 112
Width: 313
Flags: HMW
HStem: -7 76<121 149 121 170> 164 69<135 135 135 137> 285 78<141 245 141 141>
VStem: 192 78<100 130>
LayerCount: 2
Fore
SplineSet
253 363 m 1,0,-1
 245 285 l 1,1,-1
 141 285 l 1,2,-1
 135 233 l 1,3,4
 270 227 270 227 270 120 c 0,5,6
 270 61 270 61 230 27 c 128,-1,7
 190 -7 190 -7 136 -7 c 0,8,9
 104 -7 104 -7 72.5 6.5 c 128,-1,10
 41 20 41 20 39 29 c 1,11,-1
 57 102 l 1,12,13
 96 69 96 69 128 69 c 0,14,15
 192 69 192 69 192 117 c 0,16,17
 192 138 192 138 178 151 c 128,-1,18
 164 164 164 164 137 164 c 2,19,-1
 55 164 l 1,20,-1
 79 363 l 1,21,-1
 253 363 l 1,0,-1
EndSplineSet
EndChar

StartChar: florin
Encoding: 402 402 113
Width: 361
Flags: HMW
HStem: -242 21G<-9 22 -9 -9> 418 82<41 110 32 122 234 353> 615 99<296 325.5 267.5 332>
LayerCount: 2
Fore
SplineSet
353 418 m 1,0,-1
 221 418 l 1,1,-1
 143 -81 l 2,2,3
 130 -163 130 -163 93.5 -202.5 c 128,-1,4
 57 -242 57 -242 22 -242 c 2,5,-1
 -9 -242 l 1,6,-1
 -29 -140 l 1,7,8
 2 -140 2 -140 17.5 -124.5 c 128,-1,9
 33 -109 33 -109 40 -60 c 2,10,-1
 110 418 l 1,11,-1
 32 418 l 1,12,-1
 41 500 l 1,13,-1
 122 500 l 1,14,-1
 128 539 l 2,15,16
 140 619 140 619 191.5 666.5 c 128,-1,17
 243 714 243 714 314 714 c 0,18,19
 348 714 348 714 384 702 c 1,20,-1
 373 608 l 1,21,22
 342 615 342 615 325 615 c 0,23,24
 282 615 282 615 263.5 590.5 c 128,-1,25
 245 566 245 566 234 500 c 1,26,-1
 361 500 l 1,27,-1
 353 418 l 1,0,-1
EndSplineSet
EndChar

StartChar: four
Encoding: 52 52 114
Width: 581
Flags: HMW
HStem: 0 21G<311 439 311 311> 190 104<184 311 184 311 439 524> 680 20G<332 439 439 439>
VStem: 311 128<0 190 0 190 294 504 504 504>
LayerCount: 2
Fore
SplineSet
439 700 m 1,0,-1
 439 294 l 1,1,-1
 524 294 l 1,2,-1
 524 190 l 1,3,-1
 439 190 l 1,4,-1
 439 0 l 1,5,-1
 311 0 l 1,6,-1
 311 190 l 1,7,-1
 10 190 l 1,8,-1
 332 700 l 1,9,-1
 439 700 l 1,0,-1
184 294 m 1,10,-1
 311 294 l 1,11,-1
 311 504 l 1,12,-1
 184 294 l 1,10,-1
EndSplineSet
EndChar

StartChar: fourinferior
Encoding: 8324 8324 115
Width: 334
Flags: HMW
HStem: 0 162<167 173 119 247 167 167> 94 68<119 167 247 288> 343 20G<181 248 248 248>
VStem: 167 80<0 94 0 94>
LayerCount: 2
Fore
SplineSet
248 363 m 1,0,-1
 247 360 l 1,1,-1
 247 162 l 1,2,-1
 288 162 l 1,3,-1
 288 94 l 1,4,-1
 247 94 l 1,5,-1
 247 0 l 1,6,-1
 167 0 l 1,7,-1
 167 94 l 1,8,-1
 13 94 l 1,9,-1
 181 363 l 1,10,-1
 248 363 l 1,0,-1
119 162 m 1,11,-1
 173 162 l 1,12,-1
 173 255 l 1,13,-1
 119 162 l 1,11,-1
EndSplineSet
EndChar

StartChar: g
Encoding: 103 103 116
Width: 501
Flags: HMW
HStem: -250 88<213.5 292.5 213.5 337> 114 91<227.5 267 206.5 302.5> 417 91<206.5 259.5 171.5 267> 480 20G<458 490 490 490>
VStem: 34 93 34 111<279 343 279 364.5> 61 112<91 97.5> 328 111<279 331 257.5 343> 389 110<-115.5 -70>
LayerCount: 2
Fore
SplineSet
490 500 m 1,0,-1
 482 422 l 1,1,-1
 437 422 l 2,2,3
 420 422 420 422 409 421 c 1,4,5
 439 374 439 374 439 311 c 0,6,7
 439 227 439 227 385.5 170.5 c 128,-1,8
 332 114 332 114 237 114 c 0,9,10
 212 114 212 114 184 119 c 1,11,12
 173 114 173 114 173 103 c 0,13,14
 173 86 173 86 200.5 78 c 128,-1,15
 228 70 228 70 277 64 c 128,-1,16
 326 58 326 58 347 54.5 c 128,-1,17
 368 51 368 51 399 40 c 128,-1,18
 430 29 430 29 449.5 14 c 128,-1,19
 469 -1 469 -1 484 -27.5 c 128,-1,20
 499 -54 499 -54 499 -89 c 0,21,22
 499 -163 499 -163 436.5 -206.5 c 128,-1,23
 374 -250 374 -250 259 -250 c 128,-1,24
 144 -250 144 -250 84 -206.5 c 128,-1,25
 24 -163 24 -163 24 -98 c 128,-1,26
 24 -33 24 -33 106 10 c 1,27,28
 61 38 61 38 61 82 c 128,-1,29
 61 126 61 126 111 150 c 1,30,31
 34 205 34 205 34 311 c 0,32,33
 34 395 34 395 88 451.5 c 128,-1,34
 142 508 142 508 237 508 c 0,35,36
 304 508 304 508 351 478 c 1,37,38
 391 500 391 500 458 500 c 2,39,-1
 490 500 l 1,0,-1
168.5 233.5 m 128,-1,41
 192 205 192 205 236.5 205 c 128,-1,42
 281 205 281 205 304.5 233.5 c 128,-1,43
 328 262 328 262 328 311 c 128,-1,44
 328 360 328 360 304.5 388.5 c 128,-1,45
 281 417 281 417 236.5 417 c 128,-1,46
 192 417 192 417 168.5 388.5 c 128,-1,47
 145 360 145 360 145 311 c 128,-1,40
 145 262 145 262 168.5 233.5 c 128,-1,41
196 -21 m 1,48,49
 127 -44 127 -44 127 -90 c 0,50,51
 127 -123 127 -123 160.5 -142.5 c 128,-1,52
 194 -162 194 -162 253.5 -162 c 128,-1,53
 313 -162 313 -162 351 -144 c 128,-1,54
 389 -126 389 -126 389 -94 c 0,55,56
 388 -58 388 -58 344 -46 c 0,57,58
 303 -34 303 -34 266 -30.5 c 128,-1,59
 229 -27 229 -27 196 -21 c 1,48,49
EndSplineSet
EndChar

StartChar: grave
Encoding: 96 96 117
Width: 303
Flags: HMW
HStem: 585 21G<245 245> 730 20G<58 58>
VStem: 58 187<646 659 585 750 585 750>
LayerCount: 2
Fore
SplineSet
245 585 m 1,0,-1
 58 646 l 1,1,-1
 58 750 l 1,2,-1
 245 659 l 1,3,-1
 245 585 l 1,0,-1
EndSplineSet
EndChar

StartChar: greater
Encoding: 62 62 118
Width: 446
Flags: HMW
HStem: 78 21G<55 202 55 55> 470 20G<55 202 202 202>
LayerCount: 2
Fore
SplineSet
202 78 m 1,0,-1
 55 78 l 1,1,-1
 267 284 l 1,2,-1
 55 490 l 1,3,-1
 202 490 l 1,4,-1
 414 284 l 1,5,-1
 202 78 l 1,0,-1
EndSplineSet
EndChar

StartChar: guillemotleft
Encoding: 171 171 119
Width: 607
Flags: HMW
HStem: 78 21G<163 310 163 163 423 423 423 570> 470 20G<163 310 310 310 423 570 570 570>
LayerCount: 2
Fore
SplineSet
310 78 m 1,0,-1
 163 78 l 1,1,-1
 11 284 l 1,2,-1
 163 490 l 1,3,-1
 310 490 l 1,4,-1
 158 284 l 1,5,-1
 310 78 l 1,0,-1
570 78 m 1,6,-1
 423 78 l 1,7,-1
 271 284 l 1,8,-1
 423 490 l 1,9,-1
 570 490 l 1,10,-1
 418 284 l 1,11,-1
 570 78 l 1,6,-1
EndSplineSet
EndChar

StartChar: guillemotright
Encoding: 187 187 120
Width: 607
Flags: HMW
HStem: 78 21G<37 184 37 37 297 297 297 444> 470 20G<37 184 184 184 297 444 444 444>
LayerCount: 2
Fore
SplineSet
184 78 m 1,0,-1
 37 78 l 1,1,-1
 189 284 l 1,2,-1
 37 490 l 1,3,-1
 184 490 l 1,4,-1
 336 284 l 1,5,-1
 184 78 l 1,0,-1
444 78 m 1,6,-1
 297 78 l 1,7,-1
 449 284 l 1,8,-1
 297 490 l 1,9,-1
 444 490 l 1,10,-1
 596 284 l 1,11,-1
 444 78 l 1,6,-1
EndSplineSet
EndChar

StartChar: guilsinglleft
Encoding: 8249 8249 121
Width: 347
Flags: HMW
HStem: 78 21G<163 310 163 163> 470 20G<163 310 310 310>
LayerCount: 2
Fore
SplineSet
310 78 m 1,0,-1
 163 78 l 1,1,-1
 11 284 l 1,2,-1
 163 490 l 1,3,-1
 310 490 l 1,4,-1
 158 284 l 1,5,-1
 310 78 l 1,0,-1
EndSplineSet
EndChar

StartChar: guilsinglright
Encoding: 8250 8250 122
Width: 347
Flags: HMW
HStem: 78 21G<37 184 37 37> 470 20G<37 184 184 184>
LayerCount: 2
Fore
SplineSet
184 78 m 1,0,-1
 37 78 l 1,1,-1
 189 284 l 1,2,-1
 37 490 l 1,3,-1
 184 490 l 1,4,-1
 336 284 l 1,5,-1
 184 78 l 1,0,-1
EndSplineSet
EndChar

StartChar: h
Encoding: 104 104 123
Width: 552
Flags: HMW
HStem: 0 21G<58 182 58 58 375 499 375 375> 406 102<267.5 311> 730 20G<58 182 182 182>
VStem: 58 124<0 363 474 750> 375 124<0 269 0 315.5>
LayerCount: 2
Fore
SplineSet
182 750 m 1,0,-1
 182 474 l 1,1,2
 234 508 234 508 286 508 c 0,3,4
 499 508 499 508 499 269 c 2,5,-1
 499 0 l 1,6,-1
 375 0 l 1,7,-1
 375 269 l 2,8,9
 375 339 375 339 351.5 372.5 c 128,-1,10
 328 406 328 406 274 406 c 0,11,12
 220 406 220 406 182 363 c 1,13,-1
 182 0 l 1,14,-1
 58 0 l 1,15,-1
 58 750 l 1,16,-1
 182 750 l 1,0,-1
EndSplineSet
EndChar

StartChar: hyphen
Encoding: 45 45 124
Width: 408
Flags: HMW
HStem: 230 94<49 359 49 359>
LayerCount: 2
Fore
SplineSet
49 324 m 1,0,-1
 359 324 l 1,1,-1
 359 230 l 1,2,-1
 49 230 l 1,3,-1
 49 324 l 1,0,-1
EndSplineSet
EndChar

StartChar: i
Encoding: 105 105 125
Width: 240
Flags: HMW
HStem: 0 21G<58 182 58 58> 480 20G<58 182 182 182> 576 124<58 182 58 182>
VStem: 58 124<0 500 0 500 576 700>
LayerCount: 2
Fore
SplineSet
58 500 m 1,0,-1
 182 500 l 1,1,-1
 182 0 l 1,2,-1
 58 0 l 1,3,-1
 58 500 l 1,0,-1
182 576 m 1,4,-1
 58 576 l 1,5,-1
 58 700 l 1,6,-1
 182 700 l 1,7,-1
 182 576 l 1,4,-1
EndSplineSet
EndChar

StartChar: iacute
Encoding: 237 237 126
Width: 240
Flags: HMW
HStem: 0 21G<58 182 58 58> 480 20G<58 182 182 182> 730 20G<240 240>
VStem: 58 124<0 500 0 500> 58 182<0 646 500 646>
LayerCount: 2
Fore
SplineSet
58 500 m 1,0,-1
 182 500 l 1,1,-1
 182 0 l 1,2,-1
 58 0 l 1,3,-1
 58 500 l 1,0,-1
240 646 m 1,4,-1
 53 585 l 1,5,-1
 53 659 l 1,6,-1
 240 750 l 1,7,-1
 240 646 l 1,4,-1
EndSplineSet
EndChar

StartChar: icircumflex
Encoding: 238 238 127
Width: 240
Flags: HMW
HStem: 0 21G<58 182 58 58> 480 20G<58 182 182 182> 730 20G<120 120>
VStem: 58 124<0 500 0 500>
LayerCount: 2
Fore
SplineSet
58 500 m 1,0,-1
 182 500 l 1,1,-1
 182 0 l 1,2,-1
 58 0 l 1,3,-1
 58 500 l 1,0,-1
267 585 m 1,4,-1
 120 656 l 1,5,-1
 -27 585 l 1,6,-1
 -27 659 l 1,7,-1
 120 750 l 1,8,-1
 267 659 l 1,9,-1
 267 585 l 1,4,-1
EndSplineSet
EndChar

StartChar: idieresis
Encoding: 239 239 128
Width: 240
Flags: HMW
HStem: 0 21G<58 182 58 58> 480 20G<58 182 182 182> 576 106<-4 93 -4 93 -4 147 147 244>
VStem: -4 97<576 682> 58 124<0 500 0 500> 147 97<576 682>
LayerCount: 2
Fore
SplineSet
58 500 m 1,0,-1
 182 500 l 1,1,-1
 182 0 l 1,2,-1
 58 0 l 1,3,-1
 58 500 l 1,0,-1
93 576 m 1,4,-1
 -4 576 l 1,5,-1
 -4 682 l 1,6,-1
 93 682 l 1,7,-1
 93 576 l 1,4,-1
244 576 m 1,8,-1
 147 576 l 1,9,-1
 147 682 l 1,10,-1
 244 682 l 1,11,-1
 244 576 l 1,8,-1
EndSplineSet
EndChar

StartChar: igrave
Encoding: 236 236 129
Width: 240
Flags: HMW
HStem: 0 21G<58 182 58 58> 480 20G<58 182 182 182> 730 20G<0 0>
VStem: 0 182<0 750> 58 124<0 500 0 500>
LayerCount: 2
Fore
SplineSet
58 500 m 1,0,-1
 182 500 l 1,1,-1
 182 0 l 1,2,-1
 58 0 l 1,3,-1
 58 500 l 1,0,-1
187 585 m 1,4,-1
 0 646 l 1,5,-1
 0 750 l 1,6,-1
 187 659 l 1,7,-1
 187 585 l 1,4,-1
EndSplineSet
EndChar

StartChar: j
Encoding: 106 106 130
Width: 240
Flags: HMW
HStem: -242 102<9 24.5 -2 54 9 9> 480 20G<58 182 182 182> 576 124<58 182 58 182>
VStem: 58 124<-60 500 576 700>
LayerCount: 2
Fore
SplineSet
58 500 m 1,0,-1
 182 500 l 1,1,-1
 182 -111 l 2,2,3
 182 -169 182 -169 150 -205.5 c 128,-1,4
 118 -242 118 -242 54 -242 c 2,5,-1
 9 -242 l 1,6,-1
 -2 -140 l 1,7,8
 39 -140 39 -140 48.5 -128.5 c 128,-1,9
 58 -117 58 -117 58 -60 c 2,10,-1
 58 500 l 1,0,-1
182 576 m 1,11,-1
 58 576 l 1,12,-1
 58 700 l 1,13,-1
 182 700 l 1,14,-1
 182 576 l 1,11,-1
EndSplineSet
EndChar

StartChar: k
Encoding: 107 107 131
Width: 486
Flags: HMW
HStem: 0 21G<58 182 58 58 341 481 341 341> 480 20G<341 481 481 481> 730 20G<58 182 182 182>
VStem: 58 124<0 222 0 295 295 750>
LayerCount: 2
Fore
SplineSet
481 0 m 1,0,-1
 341 0 l 1,1,-1
 182 222 l 1,2,-1
 182 0 l 1,3,-1
 58 0 l 1,4,-1
 58 750 l 1,5,-1
 182 750 l 1,6,-1
 182 295 l 1,7,-1
 341 500 l 1,8,-1
 481 500 l 1,9,-1
 298 260 l 1,10,-1
 481 0 l 1,0,-1
EndSplineSet
EndChar

StartChar: l
Encoding: 108 108 132
Width: 265
Flags: HMW
HStem: -10 102<141.5 242 217.5 231> 730 20G<58 182 182 182>
VStem: 58 124<132 172 172 750>
LayerCount: 2
Fore
SplineSet
58 750 m 1,0,-1
 182 750 l 1,1,-1
 182 172 l 2,2,3
 182 115 182 115 192 103.5 c 128,-1,4
 202 92 202 92 242 92 c 1,5,-1
 231 -10 l 1,6,-1
 186 -10 l 2,7,8
 122 -10 122 -10 90 26.5 c 128,-1,9
 58 63 58 63 58 121 c 2,10,-1
 58 750 l 1,0,-1
EndSplineSet
EndChar

StartChar: less
Encoding: 60 60 133
Width: 446
Flags: HMW
HStem: 78 21G<244 391 244 244> 470 20G<244 391 391 391>
LayerCount: 2
Fore
SplineSet
391 78 m 1,0,-1
 244 78 l 1,1,-1
 32 284 l 1,2,-1
 244 490 l 1,3,-1
 391 490 l 1,4,-1
 179 284 l 1,5,-1
 391 78 l 1,0,-1
EndSplineSet
EndChar

StartChar: m
Encoding: 109 109 134
Width: 866
Flags: HMW
HStem: 0 21G<58 182 58 58 374 497 374 374 689 813 689 689> 406 102<268.5 309 569 630.5> 480 20G<58 160 160 160>
VStem: 58 124<0 365 0 500> 374 123<0 269 269 309 0 323> 689 124<0 269>
CounterMasks: 1 1c
LayerCount: 2
Fore
SplineSet
813 0 m 1,0,-1
 689 0 l 1,1,-1
 689 269 l 2,2,3
 689 340 689 340 668 373 c 0,4,5
 648 406 648 406 594 406 c 128,-1,6
 540 406 540 406 518.5 380 c 128,-1,7
 497 354 497 354 497 309 c 2,8,-1
 497 0 l 1,9,-1
 374 0 l 1,10,-1
 374 269 l 2,11,12
 374 348 374 348 351 377 c 128,-1,13
 328 406 328 406 272 406 c 128,-1,14
 216 406 216 406 182 365 c 1,15,-1
 182 0 l 1,16,-1
 58 0 l 1,17,-1
 58 500 l 1,18,-1
 160 500 l 1,19,-1
 167 461 l 1,20,21
 224 508 224 508 295 508 c 0,22,23
 341 508 341 508 382 488.5 c 128,-1,24
 423 469 423 469 448 432 c 1,25,26
 463 460 463 460 507.5 484 c 128,-1,27
 552 508 552 508 614 508 c 0,28,29
 712 508 712 508 762.5 443 c 128,-1,30
 813 378 813 378 813 269 c 2,31,-1
 813 0 l 1,0,-1
EndSplineSet
EndChar

StartChar: mu
Encoding: 181 181 135
Width: 608
Flags: HMW
HStem: -242 21G<67 191 67 67> -10 21G<485.5 512 512 557> -8 102<262.5 303> 480 20G<67 191 191 191 384 508 508 508>
VStem: 67 124<-242 6 184.5 231 231 500> 384 124<136 172 172 500>
LayerCount: 2
Fore
SplineSet
508 500 m 1,0,-1
 508 172 l 2,1,2
 508 118 508 118 516 105 c 128,-1,3
 524 92 524 92 552 92 c 2,4,-1
 568 92 l 1,5,-1
 557 -10 l 1,6,-1
 512 -10 l 2,7,8
 436 -10 436 -10 404 42 c 1,9,10
 382 21 382 21 347.5 6.5 c 0,11,12
 314 -8 314 -8 272 -8 c 128,-1,13
 230 -8 230 -8 191 6 c 1,14,-1
 191 -242 l 1,15,-1
 67 -242 l 1,16,-1
 67 500 l 1,17,-1
 191 500 l 1,18,-1
 191 231 l 2,19,20
 191 161 191 161 214.5 127.5 c 128,-1,21
 238 94 238 94 293 94 c 128,-1,22
 348 94 348 94 384 136 c 1,23,-1
 384 500 l 1,24,-1
 508 500 l 1,0,-1
EndSplineSet
EndChar

StartChar: n
Encoding: 110 110 136
Width: 552
Flags: HMW
HStem: 0 21G<58 182 58 58 375 499 375 375> 406 102<266.5 311> 480 20G<58 174 174 174>
VStem: 58 124<0 363 0 500> 375 124<0 269>
LayerCount: 2
Fore
SplineSet
499 0 m 1,0,-1
 375 0 l 1,1,-1
 375 269 l 2,2,3
 375 339 375 339 351.5 372.5 c 128,-1,4
 328 406 328 406 274 406 c 0,5,6
 220 406 220 406 182 363 c 1,7,-1
 182 0 l 1,8,-1
 58 0 l 1,9,-1
 58 500 l 1,10,-1
 174 500 l 1,11,-1
 176 470 l 1,12,13
 228 508 228 508 286 508 c 0,14,15
 499 508 499 508 499 269 c 2,16,-1
 499 0 l 1,0,-1
EndSplineSet
EndChar

StartChar: nine
Encoding: 57 57 137
Width: 562
Flags: HMW
HStem: -18 21G<204 204> 257 97<223.5 264> 595 101<238.5 303.5>
VStem: 42 121<437 496.5 437 521> 379 125<438 519>
LayerCount: 2
Fore
SplineSet
263 354 m 0,0,1
 379 354 379 354 379 481 c 0,2,3
 379 535 379 535 349.5 565 c 128,-1,4
 320 595 320 595 271 595 c 128,-1,5
 222 595 222 595 192.5 556.5 c 128,-1,6
 163 518 163 518 163 468 c 0,7,8
 163 354 163 354 263 354 c 0,0,1
109.5 626 m 128,-1,10
 177 696 177 696 280.5 696 c 128,-1,11
 384 696 384 696 444 629.5 c 128,-1,12
 504 563 504 563 504 425 c 0,13,14
 504 337 504 337 473 253 c 128,-1,15
 442 169 442 169 396 111 c 128,-1,16
 350 53 350 53 298 17.5 c 128,-1,17
 246 -18 246 -18 204 -18 c 1,18,-1
 112 35 l 1,19,20
 144 36 144 36 201.5 74.5 c 128,-1,21
 259 113 259 113 310.5 176 c 128,-1,22
 362 239 362 239 369 296 c 1,23,24
 339 257 339 257 243.5 257 c 128,-1,25
 148 257 148 257 95 316 c 128,-1,26
 42 375 42 375 42 465.5 c 128,-1,9
 42 556 42 556 109.5 626 c 128,-1,10
EndSplineSet
EndChar

StartChar: nineinferior
Encoding: 8329 8329 138
Width: 326
Flags: HMW
HStem: -9 200<140.5 154> 127 64<140.5 154.5> 294 67<147 174>
VStem: 40 76<226 251.5 226 268> 204 79<227.5 262>
LayerCount: 2
Fore
SplineSet
156 191 m 0,0,1
 204 191 204 191 204 246 c 0,2,3
 204 269 204 269 192 281.5 c 128,-1,4
 180 294 180 294 160 294 c 128,-1,5
 140 294 140 294 128 277.5 c 128,-1,6
 116 261 116 261 116 236 c 0,7,8
 116 191 116 191 156 191 c 0,0,1
75.5 324 m 128,-1,10
 111 361 111 361 165.5 361 c 128,-1,11
 220 361 220 361 251.5 326 c 128,-1,12
 283 291 283 291 283 210.5 c 128,-1,13
 283 130 283 130 228.5 60.5 c 128,-1,14
 174 -9 174 -9 125 -9 c 1,15,-1
 52 33 l 1,16,17
 82 34 82 34 130 66 c 128,-1,18
 178 98 178 98 193 133 c 1,19,20
 178 127 178 127 149 127 c 0,21,22
 96 127 96 127 68 158.5 c 128,-1,23
 40 190 40 190 40 238.5 c 128,-1,9
 40 287 40 287 75.5 324 c 128,-1,10
EndSplineSet
EndChar

StartChar: ntilde
Encoding: 241 241 139
Width: 552
Flags: HMW
HStem: 0 21G<58 182 58 58 375 499 375 375> 406 102<266.5 311> 480 20G<58 174 174 174> 599 89<319 346.5 312 380> 641 47 641 89<204 238> 715 20G
VStem: 58 124<0 363 0 500> 375 124<0 269>
LayerCount: 2
Fore
SplineSet
499 0 m 1,0,-1
 375 0 l 1,1,-1
 375 269 l 2,2,3
 375 339 375 339 351.5 372.5 c 128,-1,4
 328 406 328 406 274 406 c 0,5,6
 220 406 220 406 182 363 c 1,7,-1
 182 0 l 1,8,-1
 58 0 l 1,9,-1
 58 500 l 1,10,-1
 174 500 l 1,11,-1
 176 470 l 1,12,13
 228 508 228 508 286 508 c 0,14,15
 499 508 499 508 499 269 c 2,16,-1
 499 0 l 1,0,-1
464 715 m 1,17,18
 457 672 457 672 425 635.5 c 128,-1,19
 393 599 393 599 346 599 c 0,20,21
 317 599 317 599 276.5 620 c 128,-1,22
 236 641 236 641 218 641 c 0,23,24
 200 641 200 641 187.5 626.5 c 128,-1,25
 175 612 175 612 171 594 c 1,26,-1
 88 614 l 1,27,28
 93 663 93 663 131.5 696.5 c 128,-1,29
 170 730 170 730 208 730 c 0,30,31
 246 730 246 730 280.5 709 c 128,-1,32
 315 688 315 688 334 688 c 0,33,34
 353 688 353 688 369 703 c 128,-1,35
 385 718 385 718 388 735 c 1,36,-1
 464 715 l 1,17,18
EndSplineSet
EndChar

StartChar: numbersign
Encoding: 35 35 140
Width: 704
Flags: HMW
HStem: -11 21G<66 150 66 66 278 362 278 278> 215 94<74 152 32 188 272 364 74 236 484 569> 420 88<136 231 106 264 348 443 136 315 560 643> 680 20G<338 422 422 422 550 634 634 634>
LayerCount: 2
Fore
SplineSet
136 508 m 1,0,-1
 264 508 l 1,1,-1
 338 700 l 1,2,-1
 422 700 l 1,3,-1
 348 508 l 1,4,-1
 476 508 l 1,5,-1
 550 700 l 1,6,-1
 634 700 l 1,7,-1
 560 508 l 1,8,-1
 673 508 l 1,9,-1
 643 420 l 1,10,-1
 527 420 l 1,11,-1
 484 309 l 1,12,-1
 611 309 l 1,13,-1
 569 215 l 1,14,-1
 448 215 l 1,15,-1
 362 -11 l 1,16,-1
 278 -11 l 1,17,-1
 364 215 l 1,18,-1
 236 215 l 1,19,-1
 150 -11 l 1,20,-1
 66 -11 l 1,21,-1
 152 215 l 1,22,-1
 32 215 l 1,23,-1
 74 309 l 1,24,-1
 188 309 l 1,25,-1
 231 420 l 1,26,-1
 106 420 l 1,27,-1
 136 508 l 1,0,-1
315 420 m 1,28,-1
 272 309 l 1,29,-1
 400 309 l 1,30,-1
 443 420 l 1,31,-1
 315 420 l 1,28,-1
EndSplineSet
EndChar

StartChar: o
Encoding: 111 111 141
Width: 562
Flags: HMW
HStem: -10 102<241 321 241 361> 406 102<241 321>
VStem: 28 127<202.5 295.5 202.5 319> 407 127<202.5 295.5>
LayerCount: 2
Fore
SplineSet
281 508 m 128,-1,1
 397 508 397 508 465.5 433 c 128,-1,2
 534 358 534 358 534 249 c 128,-1,3
 534 140 534 140 465.5 65 c 128,-1,4
 397 -10 397 -10 281 -10 c 128,-1,5
 165 -10 165 -10 96.5 65 c 128,-1,6
 28 140 28 140 28 249 c 128,-1,7
 28 358 28 358 96.5 433 c 128,-1,0
 165 508 165 508 281 508 c 128,-1,1
281 92 m 128,-1,9
 340 92 340 92 373.5 135 c 128,-1,10
 407 178 407 178 407 249 c 128,-1,11
 407 320 407 320 373.5 363 c 128,-1,12
 340 406 340 406 281 406 c 128,-1,13
 222 406 222 406 188.5 363 c 128,-1,14
 155 320 155 320 155 249 c 128,-1,15
 155 178 155 178 188.5 135 c 128,-1,8
 222 92 222 92 281 92 c 128,-1,9
EndSplineSet
EndChar

StartChar: oacute
Encoding: 243 243 142
Width: 562
Flags: HMW
HStem: -10 102<241 321 241 361> 406 102<241 321> 730 20G<374 374>
VStem: 28 127<202.5 295.5 202.5 319> 187 187<646 646 646 659 659 659> 407 127<202.5 295.5>
LayerCount: 2
Fore
SplineSet
281 508 m 128,-1,1
 397 508 397 508 465.5 433 c 128,-1,2
 534 358 534 358 534 249 c 128,-1,3
 534 140 534 140 465.5 65 c 128,-1,4
 397 -10 397 -10 281 -10 c 128,-1,5
 165 -10 165 -10 96.5 65 c 128,-1,6
 28 140 28 140 28 249 c 128,-1,7
 28 358 28 358 96.5 433 c 128,-1,0
 165 508 165 508 281 508 c 128,-1,1
281 92 m 128,-1,9
 340 92 340 92 373.5 135 c 128,-1,10
 407 178 407 178 407 249 c 128,-1,11
 407 320 407 320 373.5 363 c 128,-1,12
 340 406 340 406 281 406 c 128,-1,13
 222 406 222 406 188.5 363 c 128,-1,14
 155 320 155 320 155 249 c 128,-1,15
 155 178 155 178 188.5 135 c 128,-1,8
 222 92 222 92 281 92 c 128,-1,9
374 646 m 1,16,-1
 187 585 l 1,17,-1
 187 659 l 1,18,-1
 374 750 l 1,19,-1
 374 646 l 1,16,-1
EndSplineSet
EndChar

StartChar: ocircumflex
Encoding: 244 244 143
Width: 562
Flags: HMW
HStem: -10 102<241 321 241 361> 406 102<241 321> 730 20G<281 281>
VStem: 28 127<202.5 295.5 202.5 319> 407 127<202.5 295.5>
LayerCount: 2
Fore
SplineSet
281 508 m 128,-1,1
 397 508 397 508 465.5 433 c 128,-1,2
 534 358 534 358 534 249 c 128,-1,3
 534 140 534 140 465.5 65 c 128,-1,4
 397 -10 397 -10 281 -10 c 128,-1,5
 165 -10 165 -10 96.5 65 c 128,-1,6
 28 140 28 140 28 249 c 128,-1,7
 28 358 28 358 96.5 433 c 128,-1,0
 165 508 165 508 281 508 c 128,-1,1
281 92 m 128,-1,9
 340 92 340 92 373.5 135 c 128,-1,10
 407 178 407 178 407 249 c 128,-1,11
 407 320 407 320 373.5 363 c 128,-1,12
 340 406 340 406 281 406 c 128,-1,13
 222 406 222 406 188.5 363 c 128,-1,14
 155 320 155 320 155 249 c 128,-1,15
 155 178 155 178 188.5 135 c 128,-1,8
 222 92 222 92 281 92 c 128,-1,9
428 585 m 1,16,-1
 281 656 l 1,17,-1
 134 585 l 1,18,-1
 134 659 l 1,19,-1
 281 750 l 1,20,-1
 428 659 l 1,21,-1
 428 585 l 1,16,-1
EndSplineSet
EndChar

StartChar: odieresis
Encoding: 246 246 144
Width: 562
Flags: HMW
HStem: -10 102<241 321 241 361> 406 102<241 321> 576 106<157 254 157 254 157 308 308 405>
VStem: 28 127<202.5 295.5 202.5 319> 157 97<576 682> 308 97<576 682> 407 127<202.5 295.5>
LayerCount: 2
Fore
SplineSet
281 508 m 128,-1,1
 397 508 397 508 465.5 433 c 128,-1,2
 534 358 534 358 534 249 c 128,-1,3
 534 140 534 140 465.5 65 c 128,-1,4
 397 -10 397 -10 281 -10 c 128,-1,5
 165 -10 165 -10 96.5 65 c 128,-1,6
 28 140 28 140 28 249 c 128,-1,7
 28 358 28 358 96.5 433 c 128,-1,0
 165 508 165 508 281 508 c 128,-1,1
281 92 m 128,-1,9
 340 92 340 92 373.5 135 c 128,-1,10
 407 178 407 178 407 249 c 128,-1,11
 407 320 407 320 373.5 363 c 128,-1,12
 340 406 340 406 281 406 c 128,-1,13
 222 406 222 406 188.5 363 c 128,-1,14
 155 320 155 320 155 249 c 128,-1,15
 155 178 155 178 188.5 135 c 128,-1,8
 222 92 222 92 281 92 c 128,-1,9
254 576 m 1,16,-1
 157 576 l 1,17,-1
 157 682 l 1,18,-1
 254 682 l 1,19,-1
 254 576 l 1,16,-1
405 576 m 1,20,-1
 308 576 l 1,21,-1
 308 682 l 1,22,-1
 405 682 l 1,23,-1
 405 576 l 1,20,-1
EndSplineSet
EndChar

StartChar: oe
Encoding: 339 339 145
Width: 895
Flags: HMW
HStem: -10 102<241 321 241 322 653 709.5> 223 84<540 742 540 860 537 742> 406 102<241 321 620 685.5>
VStem: 28 127<202.5 295.5 202.5 319>
LayerCount: 2
Fore
SplineSet
469 429 m 1,0,1
 536 508 536 508 640 508 c 128,-1,2
 744 508 744 508 806 448.5 c 128,-1,3
 868 389 868 389 868 291 c 0,4,5
 868 261 868 261 860 223 c 1,6,-1
 537 223 l 1,7,8
 547 158 547 158 589.5 125 c 128,-1,9
 632 92 632 92 686 92 c 0,10,11
 720 92 720 92 764 104 c 128,-1,12
 808 116 808 116 840 133 c 1,13,-1
 846 28 l 1,14,15
 774 -10 774 -10 679 -10 c 0,16,17
 544 -10 544 -10 471 71 c 1,18,19
 401 -10 401 -10 283 -10 c 128,-1,20
 165 -10 165 -10 96.5 65 c 128,-1,21
 28 140 28 140 28 249 c 128,-1,22
 28 358 28 358 96.5 433 c 128,-1,23
 165 508 165 508 281.5 508 c 128,-1,24
 398 508 398 508 469 429 c 1,0,1
281 92 m 128,-1,26
 340 92 340 92 373.5 135 c 128,-1,27
 407 178 407 178 407 249 c 128,-1,28
 407 320 407 320 373.5 363 c 128,-1,29
 340 406 340 406 281 406 c 128,-1,30
 222 406 222 406 188.5 363 c 128,-1,31
 155 320 155 320 155 249 c 128,-1,32
 155 178 155 178 188.5 135 c 128,-1,25
 222 92 222 92 281 92 c 128,-1,26
652 406 m 128,-1,34
 606 406 606 406 578 379 c 128,-1,35
 550 352 550 352 540 307 c 1,36,-1
 742 307 l 1,37,38
 742 346 742 346 720 376 c 128,-1,33
 698 406 698 406 652 406 c 128,-1,34
EndSplineSet
EndChar

StartChar: ograve
Encoding: 242 242 146
Width: 562
Flags: HMW
HStem: -10 102<241 321 241 361> 406 102<241 321> 730 20G<187 187>
VStem: 28 127<202.5 295.5 202.5 319> 187 187<646 659 585 750 585 750> 407 127<202.5 295.5>
LayerCount: 2
Fore
SplineSet
281 508 m 128,-1,1
 397 508 397 508 465.5 433 c 128,-1,2
 534 358 534 358 534 249 c 128,-1,3
 534 140 534 140 465.5 65 c 128,-1,4
 397 -10 397 -10 281 -10 c 128,-1,5
 165 -10 165 -10 96.5 65 c 128,-1,6
 28 140 28 140 28 249 c 128,-1,7
 28 358 28 358 96.5 433 c 128,-1,0
 165 508 165 508 281 508 c 128,-1,1
281 92 m 128,-1,9
 340 92 340 92 373.5 135 c 128,-1,10
 407 178 407 178 407 249 c 128,-1,11
 407 320 407 320 373.5 363 c 128,-1,12
 340 406 340 406 281 406 c 128,-1,13
 222 406 222 406 188.5 363 c 128,-1,14
 155 320 155 320 155 249 c 128,-1,15
 155 178 155 178 188.5 135 c 128,-1,8
 222 92 222 92 281 92 c 128,-1,9
374 585 m 1,16,-1
 187 646 l 1,17,-1
 187 750 l 1,18,-1
 374 659 l 1,19,-1
 374 585 l 1,16,-1
EndSplineSet
EndChar

StartChar: one
Encoding: 49 49 147
Width: 367
Flags: HMW
HStem: 0 21G<142 270 142 142> 680 20G<172 270 270 270>
VStem: 142 128<0 519 519 519>
LayerCount: 2
Fore
SplineSet
172 700 m 1,0,-1
 270 700 l 1,1,-1
 270 0 l 1,2,-1
 142 0 l 1,3,-1
 142 519 l 1,4,5
 100 491 100 491 54 483 c 1,6,-1
 43 591 l 1,7,8
 76 598 76 598 117 631.5 c 128,-1,9
 158 665 158 665 172 700 c 1,0,-1
EndSplineSet
EndChar

StartChar: onehalf
Encoding: 189 189 148
Width: 738
Flags: HMW
HStem: -11 21G<72 176 72 72> 0 78<611 703 611 703> 300 70<557.5 588.5> 680 20G<100 163 163 163 493 597 597 597>
VStem: 83 80<337 589 589 589> 614 77<247 272>
LayerCount: 2
Fore
SplineSet
597 700 m 1,0,-1
 176 -11 l 1,1,-1
 72 -11 l 1,2,-1
 493 700 l 1,3,-1
 597 700 l 1,0,-1
515 349.5 m 128,-1,5
 546 370 546 370 594 370 c 128,-1,6
 642 370 642 370 666.5 337.5 c 128,-1,7
 691 305 691 305 691 266.5 c 128,-1,8
 691 228 691 228 673 186.5 c 128,-1,9
 655 145 655 145 611 78 c 1,10,-1
 703 78 l 1,11,-1
 703 0 l 1,12,-1
 473 0 l 1,13,14
 588 172 588 172 607 224 c 0,15,16
 614 244 614 244 614 259 c 0,17,18
 614 300 614 300 575 300 c 0,19,20
 547 300 547 300 528.5 282.5 c 128,-1,21
 510 265 510 265 510 254 c 1,22,-1
 484 312 l 1,23,4
 484 329 484 329 515 349.5 c 128,-1,5
100 700 m 1,24,-1
 163 700 l 1,25,-1
 163 337 l 1,26,-1
 83 337 l 1,27,-1
 83 589 l 1,28,29
 63 579 63 579 41 574 c 1,30,-1
 34 644 l 1,31,32
 52 648 52 648 73 665 c 128,-1,33
 94 682 94 682 100 700 c 1,24,-1
EndSplineSet
EndChar

StartChar: onequarter
Encoding: 188 188 149
Width: 700
Flags: HMW
HStem: -11 173 0 21G<544 624 544 544> 94 68<496 544 624 665> 680 20G<100 163 163 163 493 597 597 597>
VStem: 83 80<337 589 589 589> 544 80<0 94 0 94>
LayerCount: 2
Fore
SplineSet
597 700 m 1,0,-1
 176 -11 l 1,1,-1
 72 -11 l 1,2,-1
 493 700 l 1,3,-1
 597 700 l 1,0,-1
625 363 m 1,4,-1
 624 360 l 1,5,-1
 624 162 l 1,6,-1
 665 162 l 1,7,-1
 665 94 l 1,8,-1
 624 94 l 1,9,-1
 624 0 l 1,10,-1
 544 0 l 1,11,-1
 544 94 l 1,12,-1
 390 94 l 1,13,-1
 558 363 l 1,14,-1
 625 363 l 1,4,-1
100 700 m 1,15,-1
 163 700 l 1,16,-1
 163 337 l 1,17,-1
 83 337 l 1,18,-1
 83 589 l 1,19,20
 63 579 63 579 41 574 c 1,21,-1
 34 644 l 1,22,23
 52 648 52 648 73 665 c 128,-1,24
 94 682 94 682 100 700 c 1,15,-1
496 162 m 1,25,-1
 550 162 l 1,26,-1
 550 255 l 1,27,-1
 496 162 l 1,25,-1
EndSplineSet
EndChar

StartChar: onesuperior
Encoding: 185 185 150
Width: 205
Flags: HMW
HStem: 387 21G<74 154 74 74> 730 20G<91 154 154 154>
VStem: 74 80<387 639 639 639>
LayerCount: 2
Fore
SplineSet
91 750 m 1,0,-1
 154 750 l 1,1,-1
 154 387 l 1,2,-1
 74 387 l 1,3,-1
 74 639 l 1,4,5
 54 629 54 629 32 624 c 1,6,-1
 25 694 l 1,7,8
 43 698 43 698 64 715 c 128,-1,9
 85 732 85 732 91 750 c 1,0,-1
EndSplineSet
EndChar

StartChar: ordfeminine
Encoding: 170 170 151
Width: 309
Flags: HMW
HStem: 479 21G<88 123.5> 685 70<133 143.5>
VStem: 30 75<555.5 577.5 555.5 596> 30 216<565.5 580 580 596>
LayerCount: 2
Fore
SplineSet
58 662 m 1,0,-1
 51 729 l 1,1,2
 103 755 103 755 150 755 c 128,-1,3
 197 755 197 755 221.5 731.5 c 128,-1,4
 246 708 246 708 246 652 c 2,5,-1
 246 580 l 2,6,7
 246 559 246 559 248 554 c 128,-1,8
 250 549 250 549 259 549 c 2,9,-1
 276 549 l 1,10,-1
 269 482 l 1,11,-1
 239 482 l 2,12,13
 201 482 201 482 184 504 c 1,14,15
 154 479 154 479 115 479 c 128,-1,16
 76 479 76 479 53 501.5 c 128,-1,17
 30 524 30 524 30 559 c 128,-1,18
 30 594 30 594 54 616 c 0,19,20
 93 651 93 651 167 658 c 1,21,22
 163 685 163 685 133.5 685 c 128,-1,23
 104 685 104 685 58 662 c 1,0,-1
113.5 544.5 m 128,-1,25
 122 537 122 537 135.5 537 c 128,-1,26
 149 537 149 537 168 556 c 1,27,-1
 168 602 l 1,28,29
 147 598 147 598 137.5 596 c 128,-1,30
 128 594 128 594 116.5 585 c 128,-1,31
 105 576 105 576 105 564 c 128,-1,24
 105 552 105 552 113.5 544.5 c 128,-1,25
EndSplineSet
EndChar

StartChar: ordmasculine
Encoding: 186 186 152
Width: 368
Flags: HMW
HStem: 381 74<163 204.5 163 228.5> 678 72<167.5 204.5>
VStem: 32 80<523.5 603 523.5 619.5> 258 79<528.5 608>
LayerCount: 2
Fore
SplineSet
76 698.5 m 128,-1,1
 120 750 120 750 186.5 750 c 128,-1,2
 253 750 253 750 295 701 c 128,-1,3
 337 652 337 652 337 568 c 128,-1,4
 337 484 337 484 294.5 432.5 c 128,-1,5
 252 381 252 381 183 381 c 128,-1,6
 114 381 114 381 73 430.5 c 128,-1,7
 32 480 32 480 32 563.5 c 128,-1,0
 32 647 32 647 76 698.5 c 128,-1,1
183 455 m 0,8,9
 258 455 258 455 258 570 c 0,10,11
 258 624 258 624 237 651 c 128,-1,12
 216 678 216 678 185.5 678 c 128,-1,13
 155 678 155 678 133.5 649 c 128,-1,14
 112 620 112 620 112 563.5 c 128,-1,15
 112 507 112 507 131.5 481 c 128,-1,16
 151 455 151 455 183 455 c 0,8,9
EndSplineSet
EndChar

StartChar: oslash
Encoding: 248 248 153
Width: 562
Flags: HMW
HStem: -36 21G<89 195 89 89> -10 102<277 321 277 361> 406 102<241 284.5> 514 20G<364 473 473 473>
VStem: 28 127<229.5 295.5 229.5 319> 407 127<202.5 268.5>
LayerCount: 2
Fore
SplineSet
281 508 m 0,0,1
 314 508 314 508 348 500 c 1,2,-1
 364 534 l 1,3,-1
 473 534 l 1,4,-1
 436 459 l 1,5,6
 534 384 534 384 534 249 c 0,7,8
 534 140 534 140 465.5 65 c 128,-1,9
 397 -10 397 -10 281 -10 c 0,10,11
 246 -10 246 -10 211 -2 c 1,12,-1
 195 -36 l 1,13,-1
 89 -36 l 1,14,-1
 125 39 l 1,15,16
 78 74 78 74 53 129 c 128,-1,17
 28 184 28 184 28 249 c 0,18,19
 28 358 28 358 96.5 433 c 128,-1,20
 165 508 165 508 281 508 c 0,0,1
281 92 m 0,21,22
 340 92 340 92 373.5 135 c 128,-1,23
 407 178 407 178 407 242 c 128,-1,24
 407 306 407 306 383 349 c 1,25,-1
 258 94 l 1,26,27
 272 92 272 92 281 92 c 0,21,22
188.5 363 m 128,-1,29
 155 320 155 320 155 255 c 128,-1,30
 155 190 155 190 178 149 c 1,31,-1
 301 404 l 1,32,33
 289 406 289 406 281 406 c 0,34,28
 222 406 222 406 188.5 363 c 128,-1,29
EndSplineSet
EndChar

StartChar: otilde
Encoding: 245 245 154
Width: 562
Flags: HMW
HStem: -10 102<241 321 241 361> 406 102<241 321> 599 89<324 351.5 317 385> 641 47 641 89<209 243> 715 20G
VStem: 28 127<202.5 295.5 202.5 319> 407 127<202.5 295.5>
LayerCount: 2
Fore
SplineSet
281 508 m 128,-1,1
 397 508 397 508 465.5 433 c 128,-1,2
 534 358 534 358 534 249 c 128,-1,3
 534 140 534 140 465.5 65 c 128,-1,4
 397 -10 397 -10 281 -10 c 128,-1,5
 165 -10 165 -10 96.5 65 c 128,-1,6
 28 140 28 140 28 249 c 128,-1,7
 28 358 28 358 96.5 433 c 128,-1,0
 165 508 165 508 281 508 c 128,-1,1
281 92 m 128,-1,9
 340 92 340 92 373.5 135 c 128,-1,10
 407 178 407 178 407 249 c 128,-1,11
 407 320 407 320 373.5 363 c 128,-1,12
 340 406 340 406 281 406 c 128,-1,13
 222 406 222 406 188.5 363 c 128,-1,14
 155 320 155 320 155 249 c 128,-1,15
 155 178 155 178 188.5 135 c 128,-1,8
 222 92 222 92 281 92 c 128,-1,9
469 715 m 1,16,17
 462 672 462 672 430 635.5 c 128,-1,18
 398 599 398 599 351 599 c 0,19,20
 322 599 322 599 281.5 620 c 0,21,22
 240 641 240 641 222 641 c 128,-1,23
 204 641 204 641 192 626.5 c 128,-1,24
 180 612 180 612 176 594 c 1,25,-1
 93 614 l 1,26,27
 98 663 98 663 136.5 696.5 c 128,-1,28
 175 730 175 730 213 730 c 128,-1,29
 251 730 251 730 285.5 709 c 128,-1,30
 320 688 320 688 339 688 c 128,-1,31
 358 688 358 688 374 703 c 128,-1,32
 390 718 390 718 393 735 c 1,33,-1
 469 715 l 1,16,17
EndSplineSet
EndChar

StartChar: p
Encoding: 112 112 155
Width: 572
Flags: HMW
HStem: -242 21G<58 182 58 58> -10 102<273 331 251 379> 406 102<271.5 331> 480 20G<58 174 174 174>
VStem: 58 124<-242 24 -242 500> 417 127<202.5 295.5>
LayerCount: 2
Fore
SplineSet
299 -10 m 0,0,1
 233 -10 233 -10 182 24 c 1,2,-1
 182 -242 l 1,3,-1
 58 -242 l 1,4,-1
 58 500 l 1,5,-1
 174 500 l 1,6,-1
 176 471 l 1,7,8
 231 508 231 508 299 508 c 0,9,10
 414 508 414 508 479 433.5 c 128,-1,11
 544 359 544 359 544 249 c 128,-1,12
 544 139 544 139 479 64.5 c 128,-1,13
 414 -10 414 -10 299 -10 c 0,0,1
204.5 134 m 128,-1,15
 233 92 233 92 291.5 92 c 128,-1,16
 350 92 350 92 383.5 135 c 128,-1,17
 417 178 417 178 417 249 c 128,-1,18
 417 320 417 320 383.5 363 c 128,-1,19
 350 406 350 406 291.5 406 c 128,-1,20
 233 406 233 406 204.5 364 c 128,-1,21
 176 322 176 322 176 249 c 128,-1,14
 176 176 176 176 204.5 134 c 128,-1,15
EndSplineSet
EndChar

StartChar: parenleft
Encoding: 40 40 156
Width: 284
Flags: HMW
HStem: -136 21G<146 259 146 146> 730 20G<146 259 259 259>
VStem: 45 101<209 405>
LayerCount: 2
Fore
SplineSet
45 307 m 128,-1,1
 45 457 45 457 70.5 559.5 c 128,-1,2
 96 662 96 662 146 750 c 1,3,-1
 259 750 l 1,4,5
 146 551 146 551 146 307 c 128,-1,6
 146 63 146 63 259 -136 c 1,7,-1
 146 -136 l 1,8,9
 96 -48 96 -48 70.5 54.5 c 128,-1,0
 45 157 45 157 45 307 c 128,-1,1
EndSplineSet
EndChar

StartChar: parenright
Encoding: 41 41 157
Width: 284
Flags: HMW
HStem: -136 21G<25 138 25 25> 730 20G<25 138 138 138>
VStem: 138 101<209 405>
LayerCount: 2
Fore
SplineSet
239 307 m 128,-1,1
 239 157 239 157 213.5 54.5 c 128,-1,2
 188 -48 188 -48 138 -136 c 1,3,-1
 25 -136 l 1,4,5
 138 63 138 63 138 307 c 128,-1,6
 138 551 138 551 25 750 c 1,7,-1
 138 750 l 1,8,9
 188 662 188 662 213.5 559.5 c 128,-1,0
 239 457 239 457 239 307 c 128,-1,1
EndSplineSet
EndChar

StartChar: percent
Encoding: 37 37 158
Width: 842
Flags: HMW
HStem: -11 21G<148 252 148 148> -9 74<635 676.5 635 700.5> 288 72<639.5 676.5> 335 74<165 206.5 165 230.5> 632 72<169.5 206.5> 680 20G<569 673 673 673>
VStem: 34 80<477.5 557 477.5 573.5> 260 79<482.5 562> 504 80<133.5 213 133.5 229.5> 730 79<138.5 218>
LayerCount: 2
Fore
SplineSet
673 700 m 1,0,-1
 252 -11 l 1,1,-1
 148 -11 l 1,2,-1
 569 700 l 1,3,-1
 673 700 l 1,0,-1
548 308.5 m 128,-1,5
 592 360 592 360 658.5 360 c 128,-1,6
 725 360 725 360 767 311 c 128,-1,7
 809 262 809 262 809 178 c 128,-1,8
 809 94 809 94 766.5 42.5 c 128,-1,9
 724 -9 724 -9 655 -9 c 128,-1,10
 586 -9 586 -9 545 40.5 c 128,-1,11
 504 90 504 90 504 173.5 c 128,-1,4
 504 257 504 257 548 308.5 c 128,-1,5
655 65 m 0,12,13
 730 65 730 65 730 180 c 0,14,15
 730 234 730 234 709 261 c 128,-1,16
 688 288 688 288 657.5 288 c 128,-1,17
 627 288 627 288 605.5 259 c 128,-1,18
 584 230 584 230 584 173.5 c 128,-1,19
 584 117 584 117 603.5 91 c 128,-1,20
 623 65 623 65 655 65 c 0,12,13
78 652.5 m 128,-1,22
 122 704 122 704 188.5 704 c 128,-1,23
 255 704 255 704 297 655 c 128,-1,24
 339 606 339 606 339 522 c 128,-1,25
 339 438 339 438 296.5 386.5 c 128,-1,26
 254 335 254 335 185 335 c 128,-1,27
 116 335 116 335 75 384.5 c 128,-1,28
 34 434 34 434 34 517.5 c 128,-1,21
 34 601 34 601 78 652.5 c 128,-1,22
185 409 m 0,29,30
 260 409 260 409 260 524 c 0,31,32
 260 578 260 578 239 605 c 128,-1,33
 218 632 218 632 187.5 632 c 128,-1,34
 157 632 157 632 135.5 603 c 128,-1,35
 114 574 114 574 114 517.5 c 128,-1,36
 114 461 114 461 133.5 435 c 128,-1,37
 153 409 153 409 185 409 c 0,29,30
EndSplineSet
EndChar

StartChar: period
Encoding: 46 46 159
Width: 236
Flags: HMW
HStem: 0 130<56 180 56 180>
VStem: 56 124<0 130>
LayerCount: 2
Fore
SplineSet
180 0 m 1,0,-1
 56 0 l 1,1,-1
 56 130 l 1,2,-1
 180 130 l 1,3,-1
 180 0 l 1,0,-1
EndSplineSet
EndChar

StartChar: periodcentered
Encoding: 183 183 160
Width: 252
Flags: HMW
HStem: 213 130<64 188 64 188>
VStem: 64 124<213 343>
LayerCount: 2
Fore
SplineSet
188 213 m 1,0,-1
 64 213 l 1,1,-1
 64 343 l 1,2,-1
 188 343 l 1,3,-1
 188 213 l 1,0,-1
EndSplineSet
EndChar

StartChar: perthousand
Encoding: 8240 8240 161
Width: 1213
Flags: HMW
HStem: -11 21G<149 253 149 149> -9 74<636 677.5 636 701.5 1006 1047.5> 288 72<640.5 677.5 1010.5 1047.5> 335 74<166 207.5 166 231.5> 632 72<170.5 207.5> 680 20G<570 674 674 674>
VStem: 35 80<477.5 557 477.5 573.5> 261 79<482.5 562> 505 80<133.5 213 133.5 229.5> 731 79<138.5 218> 875 80<133.5 213 133.5 229.5> 1101 79<138.5 218>
LayerCount: 2
Fore
SplineSet
674 700 m 1,0,-1
 253 -11 l 1,1,-1
 149 -11 l 1,2,-1
 570 700 l 1,3,-1
 674 700 l 1,0,-1
549 308.5 m 128,-1,5
 593 360 593 360 659.5 360 c 128,-1,6
 726 360 726 360 768 311 c 128,-1,7
 810 262 810 262 810 178 c 128,-1,8
 810 94 810 94 767.5 42.5 c 128,-1,9
 725 -9 725 -9 656 -9 c 128,-1,10
 587 -9 587 -9 546 40.5 c 128,-1,11
 505 90 505 90 505 173.5 c 128,-1,4
 505 257 505 257 549 308.5 c 128,-1,5
656 65 m 0,12,13
 731 65 731 65 731 180 c 0,14,15
 731 234 731 234 710 261 c 128,-1,16
 689 288 689 288 658.5 288 c 128,-1,17
 628 288 628 288 606.5 259 c 128,-1,18
 585 230 585 230 585 173.5 c 128,-1,19
 585 117 585 117 604.5 91 c 128,-1,20
 624 65 624 65 656 65 c 0,12,13
79 652.5 m 128,-1,22
 123 704 123 704 189.5 704 c 128,-1,23
 256 704 256 704 298 655 c 128,-1,24
 340 606 340 606 340 522 c 128,-1,25
 340 438 340 438 297.5 386.5 c 128,-1,26
 255 335 255 335 186 335 c 128,-1,27
 117 335 117 335 76 384.5 c 128,-1,28
 35 434 35 434 35 517.5 c 128,-1,21
 35 601 35 601 79 652.5 c 128,-1,22
186 409 m 0,29,30
 261 409 261 409 261 524 c 0,31,32
 261 578 261 578 240 605 c 128,-1,33
 219 632 219 632 188.5 632 c 128,-1,34
 158 632 158 632 136.5 603 c 128,-1,35
 115 574 115 574 115 517.5 c 128,-1,36
 115 461 115 461 134.5 435 c 128,-1,37
 154 409 154 409 186 409 c 0,29,30
919 308.5 m 128,-1,39
 963 360 963 360 1029.5 360 c 128,-1,40
 1096 360 1096 360 1138 311 c 128,-1,41
 1180 262 1180 262 1180 178 c 128,-1,42
 1180 94 1180 94 1137.5 42.5 c 128,-1,43
 1095 -9 1095 -9 1026 -9 c 128,-1,44
 957 -9 957 -9 916 40.5 c 128,-1,45
 875 90 875 90 875 173.5 c 128,-1,38
 875 257 875 257 919 308.5 c 128,-1,39
1026 65 m 0,46,47
 1101 65 1101 65 1101 180 c 0,48,49
 1101 234 1101 234 1080 261 c 128,-1,50
 1059 288 1059 288 1028.5 288 c 128,-1,51
 998 288 998 288 976.5 259 c 128,-1,52
 955 230 955 230 955 173.5 c 128,-1,53
 955 117 955 117 974.5 91 c 128,-1,54
 994 65 994 65 1026 65 c 0,46,47
EndSplineSet
EndChar

StartChar: plus
Encoding: 43 43 162
Width: 452
Flags: HMW
HStem: 102 21G<179 179 179 273> 230 94<41 179 41 179 273 411> 432 20G<179 273 273 273>
VStem: 179 94<102 230 102 230 324 452>
LayerCount: 2
Fore
SplineSet
179 102 m 1,0,-1
 179 230 l 1,1,-1
 41 230 l 1,2,-1
 41 324 l 1,3,-1
 179 324 l 1,4,-1
 179 452 l 1,5,-1
 273 452 l 1,6,-1
 273 324 l 1,7,-1
 411 324 l 1,8,-1
 411 230 l 1,9,-1
 273 230 l 1,10,-1
 273 102 l 1,11,-1
 179 102 l 1,0,-1
EndSplineSet
EndChar

StartChar: q
Encoding: 113 113 163
Width: 572
Flags: HMW
HStem: -242 21G<390 514 390 390> -10 102<241 298.5> 406 102<241 302 193 321> 480 20G<407 514 514 514>
VStem: 28 127<202.5 295.5 202.5 319> 390 124<-242 24 24 24>
LayerCount: 2
Fore
SplineSet
273 508 m 0,0,1
 342 508 342 508 402 466 c 1,2,-1
 407 500 l 1,3,-1
 514 500 l 1,4,-1
 514 -242 l 1,5,-1
 390 -242 l 1,6,-1
 390 24 l 1,7,8
 339 -10 339 -10 273 -10 c 0,9,10
 158 -10 158 -10 93 64.5 c 128,-1,11
 28 139 28 139 28 249 c 128,-1,12
 28 359 28 359 93 433.5 c 128,-1,13
 158 508 158 508 273 508 c 0,0,1
188.5 135 m 128,-1,15
 222 92 222 92 280.5 92 c 128,-1,16
 339 92 339 92 367.5 134 c 128,-1,17
 396 176 396 176 396 249 c 128,-1,18
 396 322 396 322 367.5 364 c 128,-1,19
 339 406 339 406 280.5 406 c 128,-1,20
 222 406 222 406 188.5 363 c 128,-1,21
 155 320 155 320 155 249 c 128,-1,14
 155 178 155 178 188.5 135 c 128,-1,15
EndSplineSet
EndChar

StartChar: quotedbl
Encoding: 34 34 164
Width: 396
Flags: HMW
HStem: 450 21G<56 140 56 56 256 256 256 340> 730 20G<36 160 160 160 236 360 360 360>
VStem: 46 104 246 104
LayerCount: 2
Fore
SplineSet
140 450 m 1,0,-1
 56 450 l 1,1,-1
 36 750 l 1,2,-1
 160 750 l 1,3,-1
 140 450 l 1,0,-1
340 450 m 1,4,-1
 256 450 l 1,5,-1
 236 750 l 1,6,-1
 360 750 l 1,7,-1
 340 450 l 1,4,-1
EndSplineSet
EndChar

StartChar: quotedblbase
Encoding: 8222 8222 165
Width: 430
Flags: HMW
HStem: -110 21G<82 82 276 276> 110 20G<56 180 180 180 250 374 374 374>
VStem: 56 124<-96 0 0 130> 250 124<-96 0 0 130>
LayerCount: 2
Fore
SplineSet
180 0 m 1,0,-1
 82 -110 l 1,1,-1
 56 -96 l 1,2,-1
 89 -10 l 1,3,-1
 56 0 l 1,4,-1
 56 130 l 1,5,-1
 180 130 l 1,6,-1
 180 0 l 1,0,-1
374 0 m 1,7,-1
 276 -110 l 1,8,-1
 250 -96 l 1,9,-1
 283 -10 l 1,10,-1
 250 0 l 1,11,-1
 250 130 l 1,12,-1
 374 130 l 1,13,-1
 374 0 l 1,7,-1
EndSplineSet
EndChar

StartChar: quotedblleft
Encoding: 8220 8220 166
Width: 444
Flags: HMW
HStem: 510 21G<43 167 43 43 277 277 277 401> 730 20G<141 141 375 375>
VStem: 43 124<510 640 510 640> 277 124<510 640 510 640>
LayerCount: 2
Fore
SplineSet
43 640 m 1,0,-1
 141 750 l 1,1,-1
 167 736 l 1,2,-1
 134 650 l 1,3,-1
 167 640 l 1,4,-1
 167 510 l 1,5,-1
 43 510 l 1,6,-1
 43 640 l 1,0,-1
277 640 m 1,7,-1
 375 750 l 1,8,-1
 401 736 l 1,9,-1
 368 650 l 1,10,-1
 401 640 l 1,11,-1
 401 510 l 1,12,-1
 277 510 l 1,13,-1
 277 640 l 1,7,-1
EndSplineSet
EndChar

StartChar: quotedblright
Encoding: 8221 8221 167
Width: 426
Flags: HMW
HStem: 510 21G<67 67 301 301> 730 20G<41 165 165 165 275 399 399 399>
VStem: 41 124<524 620 620 750> 275 124<524 620 620 750>
LayerCount: 2
Fore
SplineSet
165 620 m 1,0,-1
 67 510 l 1,1,-1
 41 524 l 1,2,-1
 74 610 l 1,3,-1
 41 620 l 1,4,-1
 41 750 l 1,5,-1
 165 750 l 1,6,-1
 165 620 l 1,0,-1
399 620 m 1,7,-1
 301 510 l 1,8,-1
 275 524 l 1,9,-1
 308 610 l 1,10,-1
 275 620 l 1,11,-1
 275 750 l 1,12,-1
 399 750 l 1,13,-1
 399 620 l 1,7,-1
EndSplineSet
EndChar

StartChar: quoteleft
Encoding: 8216 8216 168
Width: 210
Flags: HMW
HStem: 510 21G<43 167 43 43> 730 20G<141 141>
VStem: 43 124<510 640 510 640>
LayerCount: 2
Fore
SplineSet
43 640 m 1,0,-1
 141 750 l 1,1,-1
 167 736 l 1,2,-1
 134 650 l 1,3,-1
 167 640 l 1,4,-1
 167 510 l 1,5,-1
 43 510 l 1,6,-1
 43 640 l 1,0,-1
EndSplineSet
EndChar

StartChar: quoteright
Encoding: 8217 8217 169
Width: 192
Flags: HMW
HStem: 510 21G<67 67> 730 20G<41 165 165 165>
VStem: 41 124<524 620 620 750>
LayerCount: 2
Fore
SplineSet
165 620 m 1,0,-1
 67 510 l 1,1,-1
 41 524 l 1,2,-1
 74 610 l 1,3,-1
 41 620 l 1,4,-1
 41 750 l 1,5,-1
 165 750 l 1,6,-1
 165 620 l 1,0,-1
EndSplineSet
EndChar

StartChar: quotesinglbase
Encoding: 8218 8218 170
Width: 236
Flags: HMW
HStem: -110 21G<82 82> 0 21G<56 89 56 56 180 180> 110 20G<56 180 180 180>
VStem: 56 124<-96 0 0 130>
LayerCount: 2
Fore
SplineSet
180 0 m 1,0,-1
 82 -110 l 1,1,-1
 56 -96 l 1,2,-1
 89 0 l 1,3,-1
 56 0 l 1,4,-1
 56 130 l 1,5,-1
 180 130 l 1,6,-1
 180 0 l 1,0,-1
EndSplineSet
EndChar

StartChar: quotesingle
Encoding: 39 39 171
Width: 196
Flags: HMW
HStem: 450 21G<56 140 56 56> 730 20G<36 160 160 160>
VStem: 46 104
LayerCount: 2
Fore
SplineSet
140 450 m 1,0,-1
 56 450 l 1,1,-1
 36 750 l 1,2,-1
 160 750 l 1,3,-1
 140 450 l 1,0,-1
EndSplineSet
EndChar

StartChar: r
Encoding: 114 114 172
Width: 342
Flags: HMW
HStem: 0 21G<58 182 58 58> 391 109<58 273 58 319> 488 20G<310 343 343 343>
VStem: 58 124<0 341 0 500>
LayerCount: 2
Fore
SplineSet
343 508 m 1,0,-1
 319 391 l 1,1,-1
 273 391 l 2,2,3
 243 391 243 391 218 377 c 128,-1,4
 193 363 193 363 182 341 c 1,5,-1
 182 0 l 1,6,-1
 58 0 l 1,7,-1
 58 500 l 1,8,-1
 174 500 l 1,9,-1
 177 447 l 1,10,11
 236 508 236 508 310 508 c 2,12,-1
 343 508 l 1,0,-1
EndSplineSet
EndChar

StartChar: s
Encoding: 115 115 173
Width: 425
Flags: HMW
HStem: -10 93<173 231 173 290.5> 419 89<201.5 246.5 143.5 250>
VStem: 31 109<314 384 314 384> 277 124<125.5 188.5>
LayerCount: 2
Fore
SplineSet
259.5 99 m 128,-1,1
 277 115 277 115 277 140 c 128,-1,2
 277 165 277 165 251.5 182 c 128,-1,3
 226 199 226 199 190 208.5 c 128,-1,4
 154 218 154 218 118 231 c 128,-1,5
 82 244 82 244 56.5 273.5 c 128,-1,6
 31 303 31 303 31 357.5 c 128,-1,7
 31 412 31 412 74.5 460 c 128,-1,8
 118 508 118 508 214 508 c 0,9,10
 260 508 260 508 304.5 497 c 128,-1,11
 349 486 349 486 371 471 c 1,12,-1
 360 365 l 1,13,14
 332 382 332 382 316 392 c 0,15,16
 270 418 270 418 228 419 c 0,17,18
 140 419 140 419 140 364 c 0,19,20
 140 337 140 337 167 322 c 128,-1,21
 194 307 194 307 232 297.5 c 128,-1,22
 270 288 270 288 308.5 274.5 c 128,-1,23
 347 261 347 261 374 226.5 c 128,-1,24
 401 192 401 192 401 137 c 0,25,26
 401 -10 401 -10 205 -10 c 0,27,28
 92 -10 92 -10 36 27 c 1,29,-1
 47 133 l 1,30,31
 72 114 72 114 116.5 98.5 c 128,-1,32
 161 83 161 83 201.5 83 c 128,-1,0
 242 83 242 83 259.5 99 c 128,-1,1
EndSplineSet
EndChar

StartChar: scaron
Encoding: 353 353 174
Width: 425
Flags: HMW
HStem: -10 93<173 231 173 290.5> 419 89<201.5 246.5 143.5 250> 730 20G<65 65 359 359>
VStem: 31 109<314 384 314 384> 277 124<125.5 188.5>
LayerCount: 2
Fore
SplineSet
259.5 99 m 128,-1,1
 277 115 277 115 277 140 c 128,-1,2
 277 165 277 165 251.5 182 c 128,-1,3
 226 199 226 199 190 208.5 c 128,-1,4
 154 218 154 218 118 231 c 128,-1,5
 82 244 82 244 56.5 273.5 c 128,-1,6
 31 303 31 303 31 357.5 c 128,-1,7
 31 412 31 412 74.5 460 c 128,-1,8
 118 508 118 508 214 508 c 0,9,10
 260 508 260 508 304.5 497 c 128,-1,11
 349 486 349 486 371 471 c 1,12,-1
 360 365 l 1,13,14
 332 382 332 382 316 392 c 0,15,16
 270 418 270 418 228 419 c 0,17,18
 140 419 140 419 140 364 c 0,19,20
 140 337 140 337 167 322 c 128,-1,21
 194 307 194 307 232 297.5 c 128,-1,22
 270 288 270 288 308.5 274.5 c 128,-1,23
 347 261 347 261 374 226.5 c 128,-1,24
 401 192 401 192 401 137 c 0,25,26
 401 -10 401 -10 205 -10 c 0,27,28
 92 -10 92 -10 36 27 c 1,29,-1
 47 133 l 1,30,31
 72 114 72 114 116.5 98.5 c 128,-1,32
 161 83 161 83 201.5 83 c 128,-1,0
 242 83 242 83 259.5 99 c 128,-1,1
212 679 m 1,33,-1
 359 750 l 1,34,-1
 359 676 l 1,35,-1
 212 585 l 1,36,-1
 65 676 l 1,37,-1
 65 750 l 1,38,-1
 212 679 l 1,33,-1
EndSplineSet
EndChar

StartChar: semicolon
Encoding: 59 59 175
Width: 262
Flags: HMW
HStem: -110 21G<95 95> 0 21G<69 102 69 69 193 193> 130 180<69 193 69 193> 310 130<69 193 69 193>
VStem: 69 124<-96 0 0 130 310 440>
LayerCount: 2
Fore
SplineSet
193 310 m 1,0,-1
 69 310 l 1,1,-1
 69 440 l 1,2,-1
 193 440 l 1,3,-1
 193 310 l 1,0,-1
193 0 m 1,4,-1
 95 -110 l 1,5,-1
 69 -96 l 1,6,-1
 102 0 l 1,7,-1
 69 0 l 1,8,-1
 69 130 l 1,9,-1
 193 130 l 1,10,-1
 193 0 l 1,4,-1
EndSplineSet
EndChar

StartChar: seven
Encoding: 55 55 176
Width: 510
Flags: HMW
HStem: 0 21G<77 211 77 77> 576 124<43 317 43 503>
LayerCount: 2
Fore
SplineSet
43 700 m 1,0,-1
 503 700 l 1,1,-1
 211 0 l 1,2,-1
 77 0 l 1,3,-1
 317 576 l 1,4,-1
 43 576 l 1,5,-1
 43 700 l 1,0,-1
EndSplineSet
EndChar

StartChar: seveninferior
Encoding: 8327 8327 177
Width: 309
Flags: HMW
HStem: 0 21G<54 138 54 54> 285 78<42 172 42 288>
LayerCount: 2
Fore
SplineSet
42 363 m 1,0,-1
 288 363 l 1,1,-1
 138 0 l 1,2,-1
 54 0 l 1,3,-1
 172 285 l 1,4,-1
 42 285 l 1,5,-1
 42 363 l 1,0,-1
EndSplineSet
EndChar

StartChar: six
Encoding: 54 54 178
Width: 562
Flags: HMW
HStem: -18 101<258.5 323.5 258.5 351> 324 97<298 338.5> 676 20G<358 358>
VStem: 58 125<159 240 159 376> 399 121<181.5 241>
LayerCount: 2
Fore
SplineSet
299 324 m 0,0,1
 183 324 183 324 183 197 c 0,2,3
 183 143 183 143 212.5 113 c 128,-1,4
 242 83 242 83 291 83 c 128,-1,5
 340 83 340 83 369.5 121.5 c 128,-1,6
 399 160 399 160 399 210 c 0,7,8
 399 324 399 324 299 324 c 0,0,1
452.5 52 m 128,-1,10
 385 -18 385 -18 281.5 -18 c 128,-1,11
 178 -18 178 -18 118 48.5 c 128,-1,12
 58 115 58 115 58 253 c 0,13,14
 58 341 58 341 89 425 c 128,-1,15
 120 509 120 509 166 567 c 128,-1,16
 212 625 212 625 264 660.5 c 128,-1,17
 316 696 316 696 358 696 c 1,18,-1
 450 643 l 1,19,20
 418 642 418 642 360.5 603.5 c 128,-1,21
 303 565 303 565 251.5 502 c 128,-1,22
 200 439 200 439 193 382 c 1,23,24
 223 421 223 421 318.5 421 c 128,-1,25
 414 421 414 421 467 362 c 128,-1,26
 520 303 520 303 520 212.5 c 128,-1,9
 520 122 520 122 452.5 52 c 128,-1,10
EndSplineSet
EndChar

StartChar: sixinferior
Encoding: 8326 8326 179
Width: 326
Flags: HMW
HStem: -9 66<151.5 178 151.5 197> 160 65<170.5 185> 160 201<153.5 200>
VStem: 43 78<89 123.5 89 196> 209 77<100 125>
LayerCount: 2
Fore
SplineSet
169 160 m 0,0,1
 121 160 121 160 121 105 c 0,2,3
 121 82 121 82 133 69.5 c 128,-1,4
 145 57 145 57 165 57 c 128,-1,5
 185 57 185 57 197 74 c 128,-1,6
 209 91 209 91 209 115 c 0,7,8
 209 160 209 160 169 160 c 0,0,1
250.5 28 m 128,-1,10
 215 -9 215 -9 160.5 -9 c 128,-1,11
 106 -9 106 -9 74.5 25.5 c 128,-1,12
 43 60 43 60 43 140.5 c 128,-1,13
 43 221 43 221 97 290.5 c 128,-1,14
 151 360 151 360 200 361 c 1,15,-1
 273 318 l 1,16,17
 244 318 244 318 195.5 286 c 128,-1,18
 147 254 147 254 132 218 c 1,19,20
 148 225 148 225 176 225 c 0,21,22
 229 225 229 225 257.5 193 c 128,-1,23
 286 161 286 161 286 113 c 128,-1,9
 286 65 286 65 250.5 28 c 128,-1,10
EndSplineSet
EndChar

StartChar: slash
Encoding: 47 47 180
Width: 551
Flags: HMW
HStem: -85 21G<19 153 19 19> 680 20G<384 518 518 518>
LayerCount: 2
Fore
SplineSet
518 700 m 1,0,-1
 153 -85 l 1,1,-1
 19 -85 l 1,2,-1
 384 700 l 1,3,-1
 518 700 l 1,0,-1
EndSplineSet
EndChar

StartChar: t
Encoding: 116 116 182
Width: 347
Flags: HMW
HStem: -10 102<177 324 290 313> 398 102<30 90 30 90 19 90 214 324> 603 20G<214 214>
VStem: 90 124<134 172 172 398 500 610 610 610>
LayerCount: 2
Fore
SplineSet
324 398 m 1,0,-1
 214 398 l 1,1,-1
 214 172 l 2,2,3
 214 116 214 116 225.5 104 c 128,-1,4
 237 92 237 92 290 92 c 2,5,-1
 324 92 l 1,6,-1
 313 -10 l 1,7,-1
 224 -10 l 2,8,9
 158 -10 158 -10 124 28.5 c 128,-1,10
 90 67 90 67 90 121 c 2,11,-1
 90 398 l 1,12,-1
 19 398 l 1,13,-1
 30 500 l 1,14,-1
 90 500 l 1,15,-1
 90 610 l 1,16,-1
 214 623 l 1,17,-1
 214 500 l 1,18,-1
 324 500 l 1,19,-1
 324 398 l 1,0,-1
EndSplineSet
EndChar

StartChar: thorn
Encoding: 254 254 183
Width: 572
Flags: HMW
HStem: -242 21G<58 182 58 58> -10 102<273 331 251 379> 406 102<273 331> 730 20G<58 182 182 182>
VStem: 58 124<-242 24 475 750> 417 127<202.5 295.5>
LayerCount: 2
Fore
SplineSet
299 -10 m 0,0,1
 233 -10 233 -10 182 24 c 1,2,-1
 182 -242 l 1,3,-1
 58 -242 l 1,4,-1
 58 750 l 1,5,-1
 182 750 l 1,6,-1
 182 475 l 1,7,8
 232 508 232 508 299 508 c 0,9,10
 414 508 414 508 479 433.5 c 128,-1,11
 544 359 544 359 544 249 c 128,-1,12
 544 139 544 139 479 64.5 c 128,-1,13
 414 -10 414 -10 299 -10 c 0,0,1
204.5 134 m 128,-1,15
 233 92 233 92 291.5 92 c 128,-1,16
 350 92 350 92 383.5 135 c 128,-1,17
 417 178 417 178 417 249 c 128,-1,18
 417 320 417 320 383.5 363 c 128,-1,19
 350 406 350 406 291.5 406 c 128,-1,20
 233 406 233 406 204.5 364 c 128,-1,21
 176 322 176 322 176 249 c 128,-1,14
 176 176 176 176 204.5 134 c 128,-1,15
EndSplineSet
EndChar

StartChar: three
Encoding: 51 51 184
Width: 539
Flags: HMW
HStem: -13 120<191.5 256 191.5 290> 332 97<148 193 193 226 137 193> 607 107<199 260.5>
VStem: 329 127<498 548.5> 357 124<171 242.5>
LayerCount: 2
Fore
SplineSet
98 559 m 1,0,-1
 81 665 l 1,1,2
 91 687 91 687 135 700.5 c 128,-1,3
 179 714 179 714 235 714 c 128,-1,4
 291 714 291 714 330.5 701.5 c 128,-1,5
 370 689 370 689 393.5 670.5 c 0,6,7
 418 652 418 652 432 626 c 0,8,9
 456 582 456 582 456 528 c 0,10,11
 456 438 456 438 387 388 c 1,12,13
 481 334 481 334 481 220.5 c 128,-1,14
 481 107 481 107 406 47 c 128,-1,15
 331 -13 331 -13 225 -13 c 0,16,17
 164 -13 164 -13 102.5 7.5 c 128,-1,18
 41 28 41 28 38 43 c 1,19,-1
 68 159 l 1,20,21
 93 137 93 137 135.5 122 c 128,-1,22
 178 107 178 107 229.5 107 c 128,-1,23
 281 107 281 107 319 131 c 128,-1,24
 357 155 357 155 357 208.5 c 128,-1,25
 357 262 357 262 323 297 c 128,-1,26
 289 332 289 332 226 332 c 2,27,-1
 137 332 l 1,28,-1
 148 429 l 1,29,-1
 193 429 l 2,30,31
 329 429 329 429 329 523 c 0,32,33
 329 607 329 607 224 607 c 0,34,35
 170 607 170 607 136.5 593 c 128,-1,36
 103 579 103 579 98 559 c 1,0,-1
EndSplineSet
EndChar

StartChar: threequarters
Encoding: 190 190 185
Width: 719
Flags: HMW
HStem: -11 173 0 21G<563 643 563 563> 94 68<515 563 643 684> 330 76<119.5 147.5 119.5 169> 501 65<89 119 119 135 82 119> 637 70<120.5 149> 680 20G<512 616 616 616>
VStem: 177 79<593.5 614> 191 77<432.5 462.5> 563 80<0 94 0 94>
LayerCount: 2
Fore
SplineSet
616 700 m 1,0,-1
 195 -11 l 1,1,-1
 91 -11 l 1,2,-1
 512 700 l 1,3,-1
 616 700 l 1,0,-1
80 616 m 1,4,-1
 55 675 l 1,5,6
 62 689 62 689 86 698 c 128,-1,7
 110 707 110 707 142 707 c 0,8,9
 206 707 206 707 231 676.5 c 128,-1,10
 256 646 256 646 256 605 c 0,11,12
 256 564 256 564 229 538 c 1,13,14
 268 508 268 508 268 451 c 0,15,16
 268 394 268 394 229 362 c 128,-1,17
 190 330 190 330 135 330 c 0,18,19
 102 330 102 330 69.5 343.5 c 128,-1,20
 37 357 37 357 35 366 c 1,21,-1
 53 439 l 1,22,23
 92 406 92 406 133 406 c 0,24,25
 191 406 191 406 191 449 c 0,26,27
 191 471 191 471 176.5 486 c 128,-1,28
 162 501 162 501 135 501 c 2,29,-1
 82 501 l 1,30,-1
 89 566 l 1,31,-1
 119 566 l 2,32,33
 177 566 177 566 177 604 c 0,34,35
 178 637 178 637 132 637 c 0,36,37
 86 637 86 637 80 616 c 1,4,-1
644 363 m 1,38,-1
 643 360 l 1,39,-1
 643 162 l 1,40,-1
 684 162 l 1,41,-1
 684 94 l 1,42,-1
 643 94 l 1,43,-1
 643 0 l 1,44,-1
 563 0 l 1,45,-1
 563 94 l 1,46,-1
 409 94 l 1,47,-1
 577 363 l 1,48,-1
 644 363 l 1,38,-1
515 162 m 1,49,-1
 569 162 l 1,50,-1
 569 255 l 1,51,-1
 515 162 l 1,49,-1
EndSplineSet
EndChar

StartChar: threesuperior
Encoding: 179 179 186
Width: 296
Flags: HMW
HStem: 380 76<113.5 141.5 113.5 163> 551 65<83 113 113 129 76 113> 687 70<114.5 143>
VStem: 171 79<643.5 664> 185 77<482.5 512.5>
LayerCount: 2
Fore
SplineSet
74 666 m 1,0,-1
 49 725 l 1,1,2
 56 739 56 739 80 748 c 128,-1,3
 104 757 104 757 136 757 c 0,4,5
 200 757 200 757 225 726.5 c 128,-1,6
 250 696 250 696 250 655 c 0,7,8
 250 614 250 614 223 588 c 1,9,10
 262 558 262 558 262 501 c 0,11,12
 262 444 262 444 223 412 c 128,-1,13
 184 380 184 380 129 380 c 0,14,15
 96 380 96 380 63.5 393.5 c 128,-1,16
 31 407 31 407 29 416 c 1,17,-1
 47 489 l 1,18,19
 86 456 86 456 127 456 c 0,20,21
 185 456 185 456 185 499 c 0,22,23
 185 521 185 521 170.5 536 c 128,-1,24
 156 551 156 551 129 551 c 2,25,-1
 76 551 l 1,26,-1
 83 616 l 1,27,-1
 113 616 l 2,28,29
 171 616 171 616 171 654 c 0,30,31
 172 687 172 687 126 687 c 0,32,33
 80 687 80 687 74 666 c 1,0,-1
EndSplineSet
EndChar

StartChar: tilde
Encoding: 732 732 187
Width: 528
Flags: HMW
HStem: 594 21G<159 159> 599 89<307 334.5 300 368> 641 47 641 89<192 226> 715 20G
LayerCount: 2
Fore
SplineSet
452 715 m 1,0,1
 445 672 445 672 413 635.5 c 128,-1,2
 381 599 381 599 334 599 c 0,3,4
 305 599 305 599 264.5 620 c 128,-1,5
 224 641 224 641 206 641 c 0,6,7
 188 641 188 641 175.5 626.5 c 128,-1,8
 163 612 163 612 159 594 c 1,9,-1
 76 614 l 1,10,11
 81 663 81 663 119.5 696.5 c 128,-1,12
 158 730 158 730 196 730 c 0,13,14
 234 730 234 730 268.5 709 c 128,-1,15
 303 688 303 688 322 688 c 0,16,17
 341 688 341 688 357 703 c 128,-1,18
 373 718 373 718 376 735 c 1,19,-1
 452 715 l 1,0,1
EndSplineSet
EndChar

StartChar: two
Encoding: 50 50 188
Width: 521
Flags: HMW
HStem: 0 124<263 465 263 465> 607 107<191 254.5>
VStem: 319 121<481.5 538.5>
LayerCount: 2
Fore
SplineSet
111.5 679 m 128,-1,1
 170 714 170 714 235.5 714 c 128,-1,2
 301 714 301 714 340.5 695.5 c 128,-1,3
 380 677 380 677 400 647 c 0,4,5
 440 589 440 589 440 516.5 c 128,-1,6
 440 444 440 444 400.5 357.5 c 128,-1,7
 361 271 361 271 263 124 c 1,8,-1
 465 124 l 1,9,-1
 465 0 l 1,10,-1
 44 0 l 1,11,12
 163 176 163 176 227 286.5 c 128,-1,13
 291 397 291 397 305 436.5 c 128,-1,14
 319 476 319 476 319 507 c 0,15,16
 319 607 319 607 221 607 c 0,17,18
 155 607 155 607 112.5 566 c 128,-1,19
 70 525 70 525 70 499 c 1,20,-1
 53 615 l 1,21,0
 53 644 53 644 111.5 679 c 128,-1,1
EndSplineSet
EndChar

StartChar: twosuperior
Encoding: 178 178 189
Width: 302
Flags: HMW
HStem: 387 78<168 260 168 260> 687 70<114.5 145.5>
VStem: 171 77<634 659>
LayerCount: 2
Fore
SplineSet
72 736.5 m 128,-1,1
 103 757 103 757 151 757 c 128,-1,2
 199 757 199 757 223.5 724.5 c 128,-1,3
 248 692 248 692 248 653.5 c 128,-1,4
 248 615 248 615 230 573.5 c 128,-1,5
 212 532 212 532 168 465 c 1,6,-1
 260 465 l 1,7,-1
 260 387 l 1,8,-1
 30 387 l 1,9,10
 171 598 171 598 171 642.5 c 128,-1,11
 171 687 171 687 132 687 c 0,12,13
 104 687 104 687 85.5 669.5 c 128,-1,14
 67 652 67 652 67 641 c 1,15,-1
 41 699 l 1,16,0
 41 716 41 716 72 736.5 c 128,-1,1
EndSplineSet
EndChar

StartChar: u
Encoding: 117 117 190
Width: 552
Flags: HMW
HStem: -8 102<241 285.5> 0 21G<378 494 378 378> 480 20G<53 177 177 177 370 494 494 494>
VStem: 53 124<231 500> 370 124<136 500 0 500>
LayerCount: 2
Fore
SplineSet
53 500 m 1,0,-1
 177 500 l 1,1,-1
 177 231 l 2,2,3
 177 161 177 161 200.5 127.5 c 128,-1,4
 224 94 224 94 279 94 c 0,5,6
 334 94 334 94 370 136 c 1,7,-1
 370 500 l 1,8,-1
 494 500 l 1,9,-1
 494 0 l 1,10,-1
 378 0 l 1,11,-1
 376 30 l 1,12,13
 326 -8 326 -8 266 -8 c 0,14,15
 53 -8 53 -8 53 231 c 2,16,-1
 53 500 l 1,0,-1
EndSplineSet
EndChar

StartChar: uacute
Encoding: 250 250 191
Width: 552
Flags: HMW
HStem: -8 102<241 285.5> 0 21G<378 494 378 378> 480 20G<53 177 177 177 370 494 494 494> 730 20G<370 370>
VStem: 53 124<231 500> 183 187<646 659 659 659> 370 124<136 500 0 500>
LayerCount: 2
Fore
SplineSet
53 500 m 1,0,-1
 177 500 l 1,1,-1
 177 231 l 2,2,3
 177 161 177 161 200.5 127.5 c 128,-1,4
 224 94 224 94 279 94 c 0,5,6
 334 94 334 94 370 136 c 1,7,-1
 370 500 l 1,8,-1
 494 500 l 1,9,-1
 494 0 l 1,10,-1
 378 0 l 1,11,-1
 376 30 l 1,12,13
 326 -8 326 -8 266 -8 c 0,14,15
 53 -8 53 -8 53 231 c 2,16,-1
 53 500 l 1,0,-1
370 646 m 1,17,-1
 183 585 l 1,18,-1
 183 659 l 1,19,-1
 370 750 l 1,20,-1
 370 646 l 1,17,-1
EndSplineSet
EndChar

StartChar: ucircumflex
Encoding: 251 251 192
Width: 552
Flags: HMW
HStem: -8 102<241 285.5> 0 21G<378 494 378 378> 480 20G<53 177 177 177 370 494 494 494> 730 20G<276 276>
VStem: 53 124<231 500> 370 124<136 500 0 500>
LayerCount: 2
Fore
SplineSet
53 500 m 1,0,-1
 177 500 l 1,1,-1
 177 231 l 2,2,3
 177 161 177 161 200.5 127.5 c 128,-1,4
 224 94 224 94 279 94 c 0,5,6
 334 94 334 94 370 136 c 1,7,-1
 370 500 l 1,8,-1
 494 500 l 1,9,-1
 494 0 l 1,10,-1
 378 0 l 1,11,-1
 376 30 l 1,12,13
 326 -8 326 -8 266 -8 c 0,14,15
 53 -8 53 -8 53 231 c 2,16,-1
 53 500 l 1,0,-1
423 585 m 1,17,-1
 276 656 l 1,18,-1
 129 585 l 1,19,-1
 129 659 l 1,20,-1
 276 750 l 1,21,-1
 423 659 l 1,22,-1
 423 585 l 1,17,-1
EndSplineSet
EndChar

StartChar: udieresis
Encoding: 252 252 193
Width: 552
Flags: HMW
HStem: -8 102<241 285.5> 0 21G<378 494 378 378> 480 20G<53 177 177 177 370 494 494 494> 576 106<152 249 152 249 303 400 152 303>
VStem: 53 124<231 500> 152 97<576 682> 303 97<576 682> 370 124<136 500 0 500>
LayerCount: 2
Fore
SplineSet
53 500 m 1,0,-1
 177 500 l 1,1,-1
 177 231 l 2,2,3
 177 161 177 161 200.5 127.5 c 128,-1,4
 224 94 224 94 279 94 c 0,5,6
 334 94 334 94 370 136 c 1,7,-1
 370 500 l 1,8,-1
 494 500 l 1,9,-1
 494 0 l 1,10,-1
 378 0 l 1,11,-1
 376 30 l 1,12,13
 326 -8 326 -8 266 -8 c 0,14,15
 53 -8 53 -8 53 231 c 2,16,-1
 53 500 l 1,0,-1
400 576 m 1,17,-1
 303 576 l 1,18,-1
 303 682 l 1,19,-1
 400 682 l 1,20,-1
 400 576 l 1,17,-1
249 576 m 1,21,-1
 152 576 l 1,22,-1
 152 682 l 1,23,-1
 249 682 l 1,24,-1
 249 576 l 1,21,-1
EndSplineSet
EndChar

StartChar: ugrave
Encoding: 249 249 194
Width: 552
Flags: HMW
HStem: -8 102<241 285.5> 0 21G<378 494 378 378> 480 20G<53 177 177 177 370 494 494 494> 730 20G<183 183>
VStem: 53 124<231 500> 183 187<646 659 136 750> 370 124<136 500 0 500 0 659 0 585>
LayerCount: 2
Fore
SplineSet
53 500 m 1,0,-1
 177 500 l 1,1,-1
 177 231 l 2,2,3
 177 161 177 161 200.5 127.5 c 128,-1,4
 224 94 224 94 279 94 c 0,5,6
 334 94 334 94 370 136 c 1,7,-1
 370 500 l 1,8,-1
 494 500 l 1,9,-1
 494 0 l 1,10,-1
 378 0 l 1,11,-1
 376 30 l 1,12,13
 326 -8 326 -8 266 -8 c 0,14,15
 53 -8 53 -8 53 231 c 2,16,-1
 53 500 l 1,0,-1
370 585 m 1,17,-1
 183 646 l 1,18,-1
 183 750 l 1,19,-1
 370 659 l 1,20,-1
 370 585 l 1,17,-1
EndSplineSet
EndChar

StartChar: underscore
Encoding: 95 95 195
Width: 558
Flags: HMW
HStem: -130 94<-1 559 -1 559>
LayerCount: 2
Fore
SplineSet
-1 -36 m 1,0,-1
 559 -36 l 1,1,-1
 559 -130 l 1,2,-1
 -1 -130 l 1,3,-1
 -1 -36 l 1,0,-1
EndSplineSet
EndChar

StartChar: uni00AD
Encoding: 173 173 196
Width: 444
Flags: HMW
HStem: 230 94<67 377 67 377>
LayerCount: 2
Fore
SplineSet
67 324 m 1,0,-1
 377 324 l 1,1,-1
 377 230 l 1,2,-1
 67 230 l 1,3,-1
 67 324 l 1,0,-1
EndSplineSet
EndChar

StartChar: v
Encoding: 118 118 197
Width: 484
Flags: HMW
HStem: 0 21G<190 294 190 190> 480 20G<4 125 125 125 359 480 480 480>
LayerCount: 2
Fore
SplineSet
359 500 m 1,0,-1
 480 500 l 1,1,-1
 294 0 l 1,2,-1
 190 0 l 1,3,-1
 4 500 l 1,4,-1
 125 500 l 1,5,-1
 242 154 l 1,6,-1
 359 500 l 1,0,-1
EndSplineSet
EndChar

StartChar: w
Encoding: 119 119 198
Width: 726
Flags: HMW
HStem: 0 21G<156 260 156 156 466 570 466 466> 480 20G<10 131 131 131 308 418 418 418 595 716 716 716>
LayerCount: 2
Fore
SplineSet
595 500 m 1,0,-1
 716 500 l 1,1,-1
 570 0 l 1,2,-1
 466 0 l 1,3,-1
 363 326 l 1,4,-1
 260 0 l 1,5,-1
 156 0 l 1,6,-1
 10 500 l 1,7,-1
 131 500 l 1,8,-1
 217 151 l 1,9,-1
 308 500 l 1,10,-1
 418 500 l 1,11,-1
 508 151 l 1,12,-1
 595 500 l 1,0,-1
EndSplineSet
EndChar

StartChar: x
Encoding: 120 120 199
Width: 491
Flags: HMW
HStem: 0 21G<10 158 10 10 333 481 333 333> 480 20G<10 158 158 158 333 481 481 481>
LayerCount: 2
Fore
SplineSet
10 500 m 1,0,-1
 158 500 l 1,1,-1
 249 359 l 1,2,-1
 333 500 l 1,3,-1
 481 500 l 1,4,-1
 319 250 l 1,5,-1
 481 0 l 1,6,-1
 333 0 l 1,7,-1
 242 141 l 1,8,-1
 158 0 l 1,9,-1
 10 0 l 1,10,-1
 171 250 l 1,11,-1
 10 500 l 1,0,-1
EndSplineSet
EndChar

StartChar: y
Encoding: 121 121 200
Width: 537
Flags: HMW
HStem: -242 21G<98 222 98 98> 480 20G<1 139 139 139 397 535 535 535>
LayerCount: 2
Fore
SplineSet
1 500 m 1,0,-1
 139 500 l 1,1,-1
 267 178 l 1,2,-1
 397 500 l 1,3,-1
 535 500 l 1,4,-1
 222 -242 l 1,5,-1
 98 -242 l 1,6,-1
 209 33 l 1,7,-1
 1 500 l 1,0,-1
EndSplineSet
EndChar

StartChar: yacute
Encoding: 253 253 201
Width: 537
Flags: HMW
HStem: -242 21G<98 222 98 98> 480 20G<1 139 139 139 397 535 535 535> 730 20G<361 361>
VStem: 174 187<646 646 646 659 659 659>
LayerCount: 2
Fore
SplineSet
1 500 m 1,0,-1
 139 500 l 1,1,-1
 267 178 l 1,2,-1
 397 500 l 1,3,-1
 535 500 l 1,4,-1
 222 -242 l 1,5,-1
 98 -242 l 1,6,-1
 209 33 l 1,7,-1
 1 500 l 1,0,-1
361 646 m 1,8,-1
 174 585 l 1,9,-1
 174 659 l 1,10,-1
 361 750 l 1,11,-1
 361 646 l 1,8,-1
EndSplineSet
EndChar

StartChar: ydieresis
Encoding: 255 255 202
Width: 537
Flags: HMW
HStem: -242 21G<98 222 98 98> 480 20G<1 139 139 139 397 535 535 535> 576 106<144 241 144 241 295 392 144 295>
VStem: 144 97<576 682> 295 97<576 682>
LayerCount: 2
Fore
SplineSet
1 500 m 1,0,-1
 139 500 l 1,1,-1
 267 178 l 1,2,-1
 397 500 l 1,3,-1
 535 500 l 1,4,-1
 222 -242 l 1,5,-1
 98 -242 l 1,6,-1
 209 33 l 1,7,-1
 1 500 l 1,0,-1
392 576 m 1,8,-1
 295 576 l 1,9,-1
 295 682 l 1,10,-1
 392 682 l 1,11,-1
 392 576 l 1,8,-1
241 576 m 1,12,-1
 144 576 l 1,13,-1
 144 682 l 1,14,-1
 241 682 l 1,15,-1
 241 576 l 1,12,-1
EndSplineSet
EndChar

StartChar: yen
Encoding: 165 165 203
Width: 706
Flags: HMW
HStem: 0 21G<289 417 289 289> 138 69<148 289 148 289 124 289 417 555> 268 69<148 271 148 289 124 271 435 555> 680 20G<27 160 160 160 546 679 679 679>
VStem: 289 128<0 138 0 138 207 268>
LayerCount: 2
Fore
SplineSet
148 337 m 1,0,-1
 271 337 l 1,1,-1
 27 700 l 1,2,-1
 160 700 l 1,3,-1
 353 424 l 1,4,-1
 546 700 l 1,5,-1
 679 700 l 1,6,-1
 435 337 l 1,7,-1
 581 337 l 1,8,-1
 555 268 l 1,9,-1
 417 268 l 1,10,-1
 417 207 l 1,11,-1
 581 207 l 1,12,-1
 555 138 l 1,13,-1
 417 138 l 1,14,-1
 417 0 l 1,15,-1
 289 0 l 1,16,-1
 289 138 l 1,17,-1
 124 138 l 1,18,-1
 148 207 l 1,19,-1
 289 207 l 1,20,-1
 289 268 l 1,21,-1
 124 268 l 1,22,-1
 148 337 l 1,0,-1
EndSplineSet
EndChar

StartChar: z
Encoding: 122 122 204
Width: 472
Flags: HMW
HStem: 0 110<231 441 231 441> 390 110<31 452 31 242>
LayerCount: 2
Fore
SplineSet
31 390 m 1,0,-1
 31 500 l 1,1,-1
 452 500 l 1,2,-1
 231 110 l 1,3,-1
 441 110 l 1,4,-1
 441 0 l 1,5,-1
 21 0 l 1,6,-1
 242 390 l 1,7,-1
 31 390 l 1,0,-1
EndSplineSet
EndChar

StartChar: zcaron
Encoding: 382 382 205
Width: 472
Flags: HMW
HStem: 0 110<231 441 231 441> 390 110<31 452 31 242> 730 20G<89 89 383 383>
LayerCount: 2
Fore
SplineSet
31 390 m 1,0,-1
 31 500 l 1,1,-1
 452 500 l 1,2,-1
 231 110 l 1,3,-1
 441 110 l 1,4,-1
 441 0 l 1,5,-1
 21 0 l 1,6,-1
 242 390 l 1,7,-1
 31 390 l 1,0,-1
236 679 m 1,8,-1
 383 750 l 1,9,-1
 383 676 l 1,10,-1
 236 585 l 1,11,-1
 89 676 l 1,12,-1
 89 750 l 1,13,-1
 236 679 l 1,8,-1
EndSplineSet
EndChar

StartChar: zero
Encoding: 48 48 206
Width: 704
Flags: HMW
HStem: -9 115<302 397 302 436.5> 590 113<313.5 398.5>
VStem: 58 128<255.5 428.5 255.5 450> 520 126<265.5 439>
LayerCount: 2
Fore
SplineSet
143.5 603 m 128,-1,1
 229 703 229 703 356.5 703 c 128,-1,2
 484 703 484 703 565 607.5 c 128,-1,3
 646 512 646 512 646 351 c 128,-1,4
 646 190 646 190 564 90.5 c 128,-1,5
 482 -9 482 -9 349 -9 c 128,-1,6
 216 -9 216 -9 137 86 c 128,-1,7
 58 181 58 181 58 342 c 128,-1,0
 58 503 58 503 143.5 603 c 128,-1,1
230 163 m 128,-1,9
 274 106 274 106 350.5 106 c 128,-1,10
 427 106 427 106 473.5 166.5 c 128,-1,11
 520 227 520 227 520 350 c 128,-1,12
 520 473 520 473 473 531.5 c 128,-1,13
 426 590 426 590 355.5 590 c 128,-1,14
 285 590 285 590 235.5 527 c 128,-1,15
 186 464 186 464 186 342 c 128,-1,8
 186 220 186 220 230 163 c 128,-1,9
EndSplineSet
EndChar

StartChar: trademark
Encoding: 8482 8482 207
Width: 739
Flags: HMW
HStem: 337 21G<131 211 131 131 308 308 308 390 605 605 605 688> 622 78<34 131 34 315 211 305 211 211>
VStem: 131 80<337 622 337 622>
LayerCount: 2
Fore
SplineSet
34 700 m 1,0,-1
 315 700 l 1,1,-1
 305 622 l 1,2,-1
 211 622 l 1,3,-1
 211 337 l 1,4,-1
 131 337 l 1,5,-1
 131 622 l 1,6,-1
 34 622 l 1,7,-1
 34 700 l 1,0,-1
407 700 m 1,8,-1
 498 552 l 1,9,-1
 588 700 l 1,10,-1
 639 700 l 1,11,-1
 688 337 l 1,12,-1
 605 337 l 1,13,-1
 579 549 l 1,14,-1
 503 425 l 1,15,-1
 492 425 l 1,16,-1
 417 549 l 1,17,-1
 390 337 l 1,18,-1
 308 337 l 1,19,-1
 357 700 l 1,20,-1
 407 700 l 1,8,-1
EndSplineSet
EndChar

StartChar: plusminus
Encoding: 177 177 208
Width: 466
Flags: HMW
HStem: 30 94<48 418 48 418> 310 94<48 186 48 186 280 418> 512 20G<186 280 280 280>
VStem: 186 94<182 310 182 310 404 532>
LayerCount: 2
Fore
SplineSet
186 182 m 1,0,-1
 186 310 l 1,1,-1
 48 310 l 1,2,-1
 48 404 l 1,3,-1
 186 404 l 1,4,-1
 186 532 l 1,5,-1
 280 532 l 1,6,-1
 280 404 l 1,7,-1
 418 404 l 1,8,-1
 418 310 l 1,9,-1
 280 310 l 1,10,-1
 280 182 l 1,11,-1
 186 182 l 1,0,-1
48 124 m 1,12,-1
 418 124 l 1,13,-1
 418 30 l 1,14,-1
 48 30 l 1,15,-1
 48 124 l 1,12,-1
EndSplineSet
EndChar

StartChar: ring
Encoding: 730 730 209
Width: 292
Flags: HMW
HStem: 576 48<133.5 158.5 133.5 178.5> 706 49<133.5 158.5>
VStem: 42 60<652.5 677 652.5 689.5> 190 60<652.5 677>
LayerCount: 2
Fore
SplineSet
146 755 m 128,-1,1
 193 755 193 755 221.5 729 c 128,-1,2
 250 703 250 703 250 665 c 128,-1,3
 250 627 250 627 221.5 601.5 c 128,-1,4
 193 576 193 576 146 576 c 128,-1,5
 99 576 99 576 70.5 601.5 c 128,-1,6
 42 627 42 627 42 665 c 128,-1,7
 42 703 42 703 70.5 729 c 128,-1,0
 99 755 99 755 146 755 c 128,-1,1
146 624 m 128,-1,9
 165 624 165 624 177.5 635.5 c 128,-1,10
 190 647 190 647 190 665 c 128,-1,11
 190 683 190 683 177.5 694.5 c 128,-1,12
 165 706 165 706 146 706 c 128,-1,13
 127 706 127 706 114.5 694.5 c 128,-1,14
 102 683 102 683 102 665 c 128,-1,15
 102 647 102 647 114.5 635.5 c 128,-1,8
 127 624 127 624 146 624 c 128,-1,9
EndSplineSet
EndChar

StartChar: Aring
Encoding: 197 197 210
Width: 625
Flags: HMW
HStem: 0 21G<3 136 3 3 489 622 489 489> 169 124<240 385 240 429 196 385> 680 20G<252 373 373 373> 776 48<299.5 324.5 299.5 344.5> 906 49<299.5 324.5>
VStem: 208 60<852.5 877 852.5 889.5> 356 60<852.5 877>
LayerCount: 2
Fore
SplineSet
489 0 m 1,0,-1
 429 169 l 1,1,-1
 196 169 l 1,2,-1
 136 0 l 1,3,-1
 3 0 l 1,4,-1
 252 700 l 1,5,-1
 373 700 l 1,6,-1
 622 0 l 1,7,-1
 489 0 l 1,0,-1
312 955 m 128,-1,9
 359 955 359 955 387.5 929 c 128,-1,10
 416 903 416 903 416 865 c 128,-1,11
 416 827 416 827 387.5 801.5 c 128,-1,12
 359 776 359 776 312 776 c 128,-1,13
 265 776 265 776 236.5 801.5 c 128,-1,14
 208 827 208 827 208 865 c 128,-1,15
 208 903 208 903 236.5 929 c 128,-1,8
 265 955 265 955 312 955 c 128,-1,9
312 498 m 1,16,-1
 240 293 l 1,17,-1
 385 293 l 1,18,-1
 312 498 l 1,16,-1
312 824 m 128,-1,20
 331 824 331 824 343.5 835.5 c 128,-1,21
 356 847 356 847 356 865 c 128,-1,22
 356 883 356 883 343.5 894.5 c 128,-1,23
 331 906 331 906 312 906 c 128,-1,24
 293 906 293 906 280.5 894.5 c 128,-1,25
 268 883 268 883 268 865 c 128,-1,26
 268 847 268 847 280.5 835.5 c 128,-1,19
 293 824 293 824 312 824 c 128,-1,20
EndSplineSet
EndChar

StartChar: aring
Encoding: 229 229 211
Width: 498
Flags: HMW
HStem: -15 95<193.5 195.5> -15 107 -10 21G<402.5 430 430 475> 230 84<302 302> 401 107<214 244> 576 48<236.5 261.5 236.5 281.5> 706 49<236.5 261.5>
VStem: 20 130<119.5 169.5 119.5 205.5> 145 60<652.5 677 652.5 689.5> 302 51 302 124<134.5 172 172 230 230 230>
LayerCount: 2
Fore
SplineSet
74 363 m 1,0,-1
 63 464 l 1,1,2
 154 508 154 508 244 508 c 128,-1,3
 334 508 334 508 380 464.5 c 128,-1,4
 426 421 426 421 426 317 c 2,5,-1
 426 172 l 2,6,7
 426 118 426 118 434 105 c 128,-1,8
 442 92 442 92 470 92 c 2,9,-1
 486 92 l 1,10,-1
 475 -10 l 1,11,-1
 430 -10 l 2,12,13
 353 -10 353 -10 320 45 c 1,14,15
 296 17 296 17 254 1 c 128,-1,16
 212 -15 212 -15 157.5 -15 c 128,-1,17
 103 -15 103 -15 61.5 25.5 c 128,-1,18
 20 66 20 66 20 135 c 0,19,20
 20 185 20 185 50 221.5 c 128,-1,21
 80 258 80 258 127 276 c 0,22,23
 217 311 217 311 302 314 c 1,24,25
 300 361 300 361 280 381 c 128,-1,26
 260 401 260 401 205.5 401 c 128,-1,27
 151 401 151 401 74 363 c 1,0,-1
249 755 m 128,-1,29
 296 755 296 755 324.5 729 c 128,-1,30
 353 703 353 703 353 665 c 128,-1,31
 353 627 353 627 324.5 601.5 c 128,-1,32
 296 576 296 576 249 576 c 128,-1,33
 202 576 202 576 173.5 601.5 c 128,-1,34
 145 627 145 627 145 665 c 128,-1,35
 145 703 145 703 173.5 729 c 128,-1,28
 202 755 202 755 249 755 c 128,-1,29
302 116 m 1,36,-1
 302 230 l 1,37,38
 242 227 242 227 196 204 c 128,-1,39
 150 181 150 181 150 140 c 0,40,41
 150 80 150 80 217 80 c 0,42,43
 265 80 265 80 302 116 c 1,36,-1
249 624 m 128,-1,45
 268 624 268 624 280.5 635.5 c 128,-1,46
 293 647 293 647 293 665 c 128,-1,47
 293 683 293 683 280.5 694.5 c 128,-1,48
 268 706 268 706 249 706 c 128,-1,49
 230 706 230 706 217.5 694.5 c 128,-1,50
 205 683 205 683 205 665 c 128,-1,51
 205 647 205 647 217.5 635.5 c 128,-1,44
 230 624 230 624 249 624 c 128,-1,45
EndSplineSet
EndChar

StartChar: currency
Encoding: 164 164 212
Width: 609
Flags: HMW
HStem: 19 21G<105 105 504 504> 89 102<280 328> 505 102<280 328 280 344> 657 20G<105 105 504 504>
VStem: 51 127<313 383> 430 127<313 382.5 313 394.5>
LayerCount: 2
Fore
SplineSet
179 578 m 1,0,1
 235 607 235 607 304.5 607 c 128,-1,2
 374 607 374 607 429 577 c 1,3,-1
 504 677 l 1,4,-1
 564 627 l 1,5,-1
 491 529 l 1,6,7
 557 457 557 457 557 348 c 128,-1,8
 557 239 557 239 490 166 c 1,9,-1
 564 69 l 1,10,-1
 504 19 l 1,11,-1
 429 118 l 1,12,13
 376 89 376 89 304 89 c 128,-1,14
 232 89 232 89 179 118 c 1,15,-1
 105 19 l 1,16,-1
 45 69 l 1,17,-1
 117 166 l 1,18,19
 51 238 51 238 51 348 c 128,-1,20
 51 458 51 458 118 530 c 1,21,-1
 45 627 l 1,22,-1
 105 677 l 1,23,-1
 179 578 l 1,0,1
304 191 m 128,-1,25
 363 191 363 191 396.5 234 c 128,-1,26
 430 277 430 277 430 348 c 128,-1,27
 430 419 430 419 396.5 462 c 128,-1,28
 363 505 363 505 304 505 c 128,-1,29
 245 505 245 505 211.5 462 c 128,-1,30
 178 419 178 419 178 348 c 128,-1,31
 178 277 178 277 211.5 234 c 128,-1,24
 245 191 245 191 304 191 c 128,-1,25
EndSplineSet
EndChar

StartChar: sterling
Encoding: 163 163 213
Width: 523
Flags: HMW
HStem: 0 104<219 462 219 462> 312 84<80 149 60 156 271 434> 624 82<309.5 367 247.5 369.5>
VStem: 156 111<312 500>
LayerCount: 2
Fore
SplineSet
80 396 m 1,0,-1
 156 396 l 1,1,-1
 156 500 l 2,2,3
 156 616 156 616 198 662 c 0,4,5
 239 706 239 706 323 706 c 0,6,7
 446 706 446 706 471 604 c 1,8,-1
 423 543 l 1,9,10
 404 605 404 605 376 618 c 0,11,12
 362 624 362 624 340.5 624 c 128,-1,13
 319 624 319 624 303.5 613.5 c 0,14,15
 288 602 288 602 282 580 c 0,16,17
 272 544 272 544 271 480 c 2,18,-1
 271 396 l 1,19,-1
 454 396 l 1,20,-1
 434 312 l 1,21,-1
 267 312 l 1,22,23
 259 196 259 196 219 104 c 1,24,-1
 462 104 l 1,25,-1
 462 0 l 1,26,-1
 31 0 l 1,27,28
 130 118 130 118 149 312 c 1,29,-1
 60 312 l 1,30,-1
 80 396 l 1,0,-1
EndSplineSet
EndChar

StartChar: divide
Encoding: 247 247 214
Width: 548
Flags: HMW
HStem: 20 130<208 332 208 332> 230 94<44 504 44 504> 404 130<208 332 208 332>
VStem: 208 124<20 150 404 534>
CounterMasks: 1 e0
LayerCount: 2
Fore
SplineSet
44 324 m 1,0,-1
 504 324 l 1,1,-1
 504 230 l 1,2,-1
 44 230 l 1,3,-1
 44 324 l 1,0,-1
332 20 m 1,4,-1
 208 20 l 1,5,-1
 208 150 l 1,6,-1
 332 150 l 1,7,-1
 332 20 l 1,4,-1
332 404 m 1,8,-1
 208 404 l 1,9,-1
 208 534 l 1,10,-1
 332 534 l 1,11,-1
 332 404 l 1,8,-1
EndSplineSet
EndChar

StartChar: multiply
Encoding: 215 215 215
Width: 430
Flags: HMW
HStem: 109 21G<108 108 322 322> 425 20G<108 108 322 322>
LayerCount: 2
Fore
SplineSet
47 170 m 1,0,-1
 154 277 l 1,1,-1
 47 384 l 1,2,-1
 108 445 l 1,3,-1
 215 338 l 1,4,-1
 322 445 l 1,5,-1
 383 384 l 1,6,-1
 276 277 l 1,7,-1
 383 170 l 1,8,-1
 322 109 l 1,9,-1
 215 216 l 1,10,-1
 108 109 l 1,11,-1
 47 170 l 1,0,-1
EndSplineSet
EndChar

StartChar: logicalnot
Encoding: 172 172 216
Width: 568
Flags: HMW
HStem: 151 21G<415 415 415 509> 312 94<49 415 49 509>
VStem: 415 94<151 312 312 312>
LayerCount: 2
Fore
SplineSet
415 151 m 1,0,-1
 415 312 l 1,1,-1
 49 312 l 1,2,-1
 49 406 l 1,3,-1
 509 406 l 1,4,-1
 509 151 l 1,5,-1
 415 151 l 1,0,-1
EndSplineSet
EndChar

StartChar: dagger
Encoding: 8224 8224 217
Width: 426
Flags: HMW
HStem: 0 21G<168 258 168 168> 587 20G<138 288 288 288>
LayerCount: 2
Fore
SplineSet
258 0 m 1,0,-1
 168 0 l 1,1,-1
 138 257 l 1,2,-1
 167 375 l 1,3,-1
 36 349 l 1,4,-1
 36 481 l 1,5,-1
 167 454 l 1,6,-1
 138 607 l 1,7,-1
 288 607 l 1,8,-1
 259 454 l 1,9,-1
 390 481 l 1,10,-1
 390 349 l 1,11,-1
 259 375 l 1,12,-1
 288 257 l 1,13,-1
 258 0 l 1,0,-1
EndSplineSet
EndChar

StartChar: daggerdbl
Encoding: 8225 8225 218
Width: 450
Flags: HMW
HStem: -59 21G<150 300 150 150> 587 20G<150 300 300 300>
LayerCount: 2
Fore
SplineSet
150 274 m 1,0,-1
 179 375 l 1,1,-1
 48 349 l 1,2,-1
 48 481 l 1,3,-1
 179 454 l 1,4,-1
 150 607 l 1,5,-1
 300 607 l 1,6,-1
 271 454 l 1,7,-1
 402 481 l 1,8,-1
 402 349 l 1,9,-1
 271 375 l 1,10,-1
 300 274 l 1,11,-1
 271 173 l 1,12,-1
 402 199 l 1,13,-1
 402 67 l 1,14,-1
 271 94 l 1,15,-1
 300 -59 l 1,16,-1
 150 -59 l 1,17,-1
 179 94 l 1,18,-1
 48 67 l 1,19,-1
 48 199 l 1,20,-1
 179 173 l 1,21,-1
 150 274 l 1,0,-1
EndSplineSet
EndChar

StartChar: questiondown
Encoding: 191 191 219
Width: 441
Flags: HMW
HStem: -251 98<235.5 288.5> 376 124<181 305 181 305>
VStem: 46 117<-92 -6 -92 13.5> 181 124<376 500> 201 87<184.5 300 184.5 300>
LayerCount: 2
Fore
SplineSet
305 376 m 1,0,-1
 181 376 l 1,1,-1
 181 500 l 1,2,-1
 305 500 l 1,3,-1
 305 376 l 1,0,-1
201 300 m 1,4,-1
 285 300 l 1,5,6
 288 255 288 255 288 247 c 0,7,8
 288 205 288 205 268.5 161.5 c 0,9,10
 250 118 250 118 226 87 c 0,11,12
 164 5 164 5 163 -60 c 0,13,14
 163 -106 163 -106 191 -129.5 c 128,-1,15
 219 -153 219 -153 264 -153 c 0,16,17
 342 -153 342 -153 388 -88 c 1,18,-1
 416 -180 l 1,19,20
 368 -251 368 -251 263 -251 c 128,-1,21
 158 -251 158 -251 102 -188 c 128,-1,22
 46 -125 46 -125 46 -51 c 0,23,24
 46 14 46 14 101 84 c 1,25,-1
 146 144 l 1,26,27
 200 218 200 218 201 287 c 2,28,-1
 201 300 l 1,4,-1
EndSplineSet
EndChar

StartChar: question
Encoding: 63 63 220
Width: 443
Flags: HMW
HStem: 0 124<140 264 140 264> 652 98<156.5 209.5>
VStem: 140 124<0 124 0 124> 157 87<200 315.5> 282 117<505 591>
LayerCount: 2
Fore
SplineSet
140 124 m 1,0,-1
 264 124 l 1,1,-1
 264 0 l 1,2,-1
 140 0 l 1,3,-1
 140 124 l 1,0,-1
244 200 m 1,4,-1
 160 200 l 1,5,6
 157 245 157 245 157 253 c 0,7,8
 157 295 157 295 176.5 338.5 c 128,-1,9
 196 382 196 382 219.5 412.5 c 128,-1,10
 243 443 243 443 262.5 483 c 128,-1,11
 282 523 282 523 282 564 c 128,-1,12
 282 605 282 605 254 628.5 c 128,-1,13
 226 652 226 652 181 652 c 0,14,15
 103 652 103 652 57 587 c 1,16,-1
 29 679 l 1,17,18
 77 750 77 750 182 750 c 128,-1,19
 287 750 287 750 343 687 c 128,-1,20
 399 624 399 624 399 550 c 0,21,22
 398 486 398 486 344 414 c 2,23,-1
 299 355 l 2,24,25
 244 283 244 283 244 213 c 2,26,-1
 244 200 l 1,4,-1
EndSplineSet
EndChar

StartChar: cedilla
Encoding: 184 184 221
Width: 303
Flags: HMW
HStem: -194 21G<129 129> -72 20G<303 303>
LayerCount: 2
Fore
SplineSet
129 -194 m 1,0,-1
 199 -61 l 1,1,-1
 303 -52 l 1,2,-1
 203 -185 l 1,3,-1
 129 -194 l 1,0,-1
EndSplineSet
EndChar

StartChar: ccedilla
Encoding: 231 231 222
Width: 449
Flags: HMW
HStem: -194 21G<184 184> -10 102<241 305 241 311> 406 102<241 305>
VStem: 28 127<202.5 295.5 202.5 319>
LayerCount: 2
Fore
SplineSet
155 249 m 128,-1,1
 155 178 155 178 188.5 135 c 128,-1,2
 222 92 222 92 285 92 c 0,3,4
 348 92 348 92 410 133 c 1,5,-1
 421 27 l 1,6,7
 362 -10 362 -10 271 -10 c 0,8,9
 156 -10 156 -10 92 64 c 128,-1,10
 28 138 28 138 28 249 c 128,-1,11
 28 360 28 360 92 434 c 128,-1,12
 156 508 156 508 271 508 c 0,13,14
 362 508 362 508 421 471 c 1,15,-1
 410 365 l 1,16,17
 348 406 348 406 285 406 c 0,18,19
 222 406 222 406 188.5 363 c 128,-1,0
 155 320 155 320 155 249 c 128,-1,1
184 -194 m 1,20,-1
 254 -61 l 1,21,-1
 358 -52 l 1,22,-1
 258 -185 l 1,23,-1
 184 -194 l 1,20,-1
EndSplineSet
EndChar

StartChar: Ccedilla
Encoding: 199 199 223
Width: 610
Flags: HMW
HStem: -194 21G<265 265> -14 123<312 416.5 312 416.5> 591 123<312 416.5>
VStem: 35 140<280 420 280 460>
LayerCount: 2
Fore
SplineSet
175 350 m 128,-1,1
 175 241 175 241 228 175 c 0,2,3
 280 109 280 109 372 109 c 128,-1,4
 464 109 464 109 565 149 c 1,5,-1
 579 27 l 1,6,7
 495 -14 495 -14 380 -14 c 0,8,9
 228 -14 228 -14 131.5 86.5 c 128,-1,10
 35 187 35 187 35 350 c 128,-1,11
 35 513 35 513 131.5 613.5 c 128,-1,12
 228 714 228 714 380 714 c 0,13,14
 495 714 495 714 579 673 c 1,15,-1
 565 551 l 1,16,17
 464 591 464 591 372 591 c 128,-1,18
 280 591 280 591 227.5 525 c 128,-1,0
 175 459 175 459 175 350 c 128,-1,1
265 -194 m 1,19,-1
 335 -61 l 1,20,-1
 439 -52 l 1,21,-1
 339 -185 l 1,22,-1
 265 -194 l 1,19,-1
EndSplineSet
EndChar

StartChar: section
Encoding: 167 167 224
Width: 456
Flags: HMW
HStem: -85 96<180.5 222.5 180.5 272> 654 96<233.5 275.5>
VStem: 37 95<321.5 356> 79 87<558.5 619.5 540.5 620.5> 290 86<45.5 106 44.5 124.5> 326 93<308.5 343.5>
LayerCount: 2
Fore
SplineSet
195 408 m 1,0,1
 176 408 176 408 154 391.5 c 128,-1,2
 132 375 132 375 132 354 c 0,3,4
 132 280 132 280 263 247 c 1,5,6
 281 247 281 247 303.5 268.5 c 128,-1,7
 326 290 326 290 326 310 c 128,-1,8
 326 330 326 330 316.5 345 c 128,-1,9
 307 360 307 360 295.5 369 c 128,-1,10
 284 378 284 378 262.5 387 c 0,11,12
 242 396 242 396 230 399 c 2,13,-1
 195 408 l 1,0,1
419 333 m 0,14,15
 419 221 419 221 333 186 c 1,16,17
 376 150 376 150 376 82 c 128,-1,18
 376 14 376 14 336 -35.5 c 128,-1,19
 296 -85 296 -85 205 -85 c 0,20,21
 165 -85 165 -85 122 -72.5 c 128,-1,22
 79 -60 79 -60 62 -44 c 1,23,-1
 71 61 l 1,24,25
 140 11 140 11 200 11 c 0,26,27
 290 11 290 11 290 69 c 0,28,29
 290 99 290 99 264 119 c 128,-1,30
 238 139 238 139 201 152.5 c 128,-1,31
 164 166 164 166 126.5 184 c 128,-1,32
 89 202 89 202 63 239 c 128,-1,33
 37 276 37 276 37 332 c 0,34,35
 37 443 37 443 122 479 c 1,36,37
 79 513 79 513 79 582 c 128,-1,38
 79 651 79 651 119.5 700.5 c 128,-1,39
 160 750 160 750 251 750 c 0,40,41
 291 750 291 750 334 737.5 c 128,-1,42
 377 725 377 725 394 709 c 1,43,-1
 385 604 l 1,44,45
 316 654 316 654 256 654 c 0,46,47
 166 654 166 654 166 596 c 0,48,49
 166 566 166 566 192 546 c 128,-1,50
 218 526 218 526 255 512.5 c 128,-1,51
 292 499 292 499 329.5 481 c 128,-1,52
 367 463 367 463 393 426 c 128,-1,53
 419 389 419 389 419 333 c 0,14,15
EndSplineSet
EndChar

StartChar: paragraph
Encoding: 182 182 225
Width: 627
Flags: HMW
HStem: 0 21G<292 361 292 292 423 511 423 423> 593 107<361 423 361 361 511 511 511 580>
VStem: 292 69<0 229 229 229> 423 88<0 593>
LayerCount: 2
Fore
SplineSet
511 0 m 1,0,-1
 423 0 l 1,1,-1
 423 593 l 1,2,-1
 361 593 l 1,3,-1
 361 0 l 1,4,-1
 292 0 l 1,5,-1
 292 229 l 1,6,7
 170 236 170 236 101.5 305.5 c 128,-1,8
 33 375 33 375 33 468 c 0,9,10
 33 561 33 561 108.5 630.5 c 128,-1,11
 184 700 184 700 320 700 c 2,12,-1
 580 700 l 1,13,-1
 580 593 l 1,14,-1
 511 593 l 1,15,-1
 511 0 l 1,0,-1
EndSplineSet
EndChar

StartChar: germandbls
Encoding: 223 223 226
Width: 568
Flags: HMW
HStem: -136 21G<89 211 89 89> -15 98<264 383> 398 102<29 89 29 89 18 89> 644 106<263.5 307.5>
VStem: 89 122<-136 398 398 398 500 555 555 560 -136 615> 279 131<347 382 347 387.5> 367 43 416 70 416 129<118 203>
LayerCount: 2
Fore
SplineSet
345 476.5 m 128,-1,1
 367 514 367 514 367 558 c 128,-1,2
 367 602 367 602 344 623 c 128,-1,3
 321 644 321 644 286.5 644 c 128,-1,4
 252 644 252 644 231.5 621 c 128,-1,5
 211 598 211 598 211 560 c 2,6,-1
 211 -136 l 1,7,-1
 89 -136 l 1,8,-1
 89 398 l 1,9,-1
 18 398 l 1,10,-1
 29 500 l 1,11,-1
 89 500 l 1,12,-1
 89 555 l 2,13,14
 89 640 89 640 151 695 c 128,-1,15
 213 750 213 750 289 750 c 0,16,17
 354 750 354 750 416 707 c 0,18,19
 446 686 446 686 466 648 c 128,-1,20
 486 610 486 610 486 567.5 c 128,-1,21
 486 525 486 525 474 490 c 0,22,23
 462 454 462 454 448 434 c 2,24,-1
 422 395 l 2,25,26
 410 376 410 376 410 365.5 c 128,-1,27
 410 355 410 355 431 335.5 c 128,-1,28
 452 316 452 316 477.5 295.5 c 128,-1,29
 503 275 503 275 524 235.5 c 128,-1,30
 545 196 545 196 545 149 c 0,31,32
 545 63 545 63 483.5 24 c 128,-1,33
 422 -15 422 -15 324 -15 c 0,34,35
 292 -15 292 -15 264 -10 c 1,36,-1
 264 83 l 1,37,38
 345 83 345 83 372 91 c 128,-1,39
 399 99 399 99 407.5 112.5 c 128,-1,40
 416 126 416 126 416 156 c 128,-1,41
 416 186 416 186 394.5 218 c 0,42,43
 374 250 374 250 348 269 c 0,44,45
 280 320 280 320 279 360 c 0,46,47
 279 382 279 382 301 410.5 c 128,-1,0
 323 439 323 439 345 476.5 c 128,-1,1
EndSplineSet
EndChar
